<svg xmlns="http://www.w3.org/2000/svg" xmlns:xlink="http://www.w3.org/1999/xlink" contentStyleType="text/css" height="1218px" preserveAspectRatio="none" style="width:1939px;height:1218px;background:#FFFFFF;" version="1.1" viewBox="0 0 1939 1218" width="1939px" zoomAndPan="magnify"><title>Diagramme de classes &#226;&#8364;&#8221; Tra&#195;&#167;abilit&#195;&#169; IA</title><defs/><g><text fill="#000000" font-family="sans-serif" font-size="14" font-weight="bold" lengthAdjust="spacing" textLength="291.9971" x="816.699" y="24.5332">Diagramme de classes &#226;&#8364;&#8221; Tra&#195;&#167;abilit&#195;&#169; IA</text><!--class Utilisateur--><g id="elem_Utilisateur"><rect codeLine="26" fill="#FEFEFE" height="123.8936" id="Utilisateur" rx="2.5" ry="2.5" style="stroke:#1F2937;stroke-width:0.5;" width="161.499" x="949" y="143.6094"/><ellipse cx="998.8247" cy="159.6094" fill="#ADD1B2" rx="11" ry="11" style="stroke:#181818;stroke-width:1;"/><path d="M1001.5903,155.4844 Q1001.7466,155.2656 1001.9341,155.1563 Q1002.1216,155.0469 1002.3403,155.0469 Q1002.7153,155.0469 1002.9497,155.3125 Q1003.1841,155.5625 1003.1841,156.1719 L1003.1841,157.625 Q1003.1841,158.2344 1002.9497,158.5 Q1002.7153,158.7656 1002.3403,158.7656 Q1001.9966,158.7656 1001.7935,158.5625 Q1001.5903,158.375 1001.481,157.8594 Q1001.4341,157.5 1001.2466,157.3125 Q1000.9185,156.9375 1000.3091,156.7188 Q999.6997,156.5 999.0747,156.5 Q998.3091,156.5 997.6685,156.8281 Q997.0435,157.1563 996.5435,157.9063 Q996.0591,158.6563 996.0591,159.6875 L996.0591,160.7813 Q996.0591,162.0156 996.9497,162.8438 Q997.8403,163.6563 999.4341,163.6563 Q1000.3716,163.6563 1001.0278,163.4063 Q1001.4185,163.25 1001.8403,162.8125 Q1002.106,162.5469 1002.2466,162.4688 Q1002.4028,162.3906 1002.606,162.3906 Q1002.9341,162.3906 1003.1841,162.6563 Q1003.4497,162.9063 1003.4497,163.25 Q1003.4497,163.5938 1003.106,164 Q1002.606,164.5781 1001.8091,164.9063 Q1000.731,165.3594 999.4341,165.3594 Q997.9185,165.3594 996.7153,164.7344 Q995.731,164.2344 995.0435,163.1719 Q994.356,162.0938 994.356,160.8125 L994.356,159.6563 Q994.356,158.3281 994.9653,157.1875 Q995.5903,156.0313 996.6841,155.4219 Q997.7778,154.7969 999.0122,154.7969 Q999.7466,154.7969 1000.3872,154.9688 Q1001.0435,155.125 1001.5903,155.4844 Z " fill="#000000"/><text fill="#000000" font-family="Arial" font-size="12" lengthAdjust="spacing" textLength="53.3496" x="1019.3247" y="163.9658">Utilisateur</text><line style="stroke:#1F2937;stroke-width:0.5;" x1="950" x2="1109.499" y1="175.6094" y2="175.6094"/><text fill="#000000" font-family="Arial" font-size="11" lengthAdjust="spacing" textLength="47.9854" x="955" y="189.9272">+id: UUID</text><text fill="#000000" font-family="Arial" font-size="11" lengthAdjust="spacing" textLength="62.6699" x="955" y="202.5762">+nom: String</text><text fill="#000000" font-family="Arial" font-size="11" lengthAdjust="spacing" textLength="67.5576" x="955" y="215.2251">+email: String</text><text fill="#000000" font-family="Arial" font-size="11" lengthAdjust="spacing" textLength="129.9214" x="955" y="227.874">+motDePasseHash: String</text><text fill="#000000" font-family="Arial" font-size="11" lengthAdjust="spacing" textLength="82.2368" x="955" y="240.5229">+role: RoleEnum</text><text fill="#000000" font-family="Arial" font-size="11" lengthAdjust="spacing" textLength="149.499" x="955" y="253.1719">+dateCreation: LocalDateTime</text><line style="stroke:#1F2937;stroke-width:0.5;" x1="950" x2="1109.499" y1="259.5029" y2="259.5029"/></g><!--class Administrateur--><g id="elem_Administrateur"><rect codeLine="35" fill="#FEFEFE" height="48" id="Administrateur" rx="2.5" ry="2.5" style="stroke:#1F2937;stroke-width:0.5;" width="109.3613" x="889" y="45.6094"/><ellipse cx="904" cy="61.6094" fill="#ADD1B2" rx="11" ry="11" style="stroke:#181818;stroke-width:1;"/><path d="M906.7656,57.4844 Q906.9219,57.2656 907.1094,57.1563 Q907.2969,57.0469 907.5156,57.0469 Q907.8906,57.0469 908.125,57.3125 Q908.3594,57.5625 908.3594,58.1719 L908.3594,59.625 Q908.3594,60.2344 908.125,60.5 Q907.8906,60.7656 907.5156,60.7656 Q907.1719,60.7656 906.9688,60.5625 Q906.7656,60.375 906.6563,59.8594 Q906.6094,59.5 906.4219,59.3125 Q906.0938,58.9375 905.4844,58.7188 Q904.875,58.5 904.25,58.5 Q903.4844,58.5 902.8438,58.8281 Q902.2188,59.1563 901.7188,59.9063 Q901.2344,60.6563 901.2344,61.6875 L901.2344,62.7813 Q901.2344,64.0156 902.125,64.8438 Q903.0156,65.6563 904.6094,65.6563 Q905.5469,65.6563 906.2031,65.4063 Q906.5938,65.25 907.0156,64.8125 Q907.2813,64.5469 907.4219,64.4688 Q907.5781,64.3906 907.7813,64.3906 Q908.1094,64.3906 908.3594,64.6563 Q908.625,64.9063 908.625,65.25 Q908.625,65.5938 908.2813,66 Q907.7813,66.5781 906.9844,66.9063 Q905.9063,67.3594 904.6094,67.3594 Q903.0938,67.3594 901.8906,66.7344 Q900.9063,66.2344 900.2188,65.1719 Q899.5313,64.0938 899.5313,62.8125 L899.5313,61.6563 Q899.5313,60.3281 900.1406,59.1875 Q900.7656,58.0313 901.8594,57.4219 Q902.9531,56.7969 904.1875,56.7969 Q904.9219,56.7969 905.5625,56.9688 Q906.2188,57.125 906.7656,57.4844 Z " fill="#000000"/><text fill="#000000" font-family="Arial" font-size="12" lengthAdjust="spacing" textLength="77.3613" x="918" y="65.9658">Administrateur</text><line style="stroke:#1F2937;stroke-width:0.5;" x1="890" x2="997.3613" y1="77.6094" y2="77.6094"/><line style="stroke:#1F2937;stroke-width:0.5;" x1="890" x2="997.3613" y1="85.6094" y2="85.6094"/></g><!--class Validateur--><g id="elem_Validateur"><rect codeLine="38" fill="#FEFEFE" height="48" id="Validateur" rx="2.5" ry="2.5" style="stroke:#1F2937;stroke-width:0.5;" width="86.0352" x="1741.5" y="45.6094"/><ellipse cx="1756.5" cy="61.6094" fill="#ADD1B2" rx="11" ry="11" style="stroke:#181818;stroke-width:1;"/><path d="M1759.2656,57.4844 Q1759.4219,57.2656 1759.6094,57.1563 Q1759.7969,57.0469 1760.0156,57.0469 Q1760.3906,57.0469 1760.625,57.3125 Q1760.8594,57.5625 1760.8594,58.1719 L1760.8594,59.625 Q1760.8594,60.2344 1760.625,60.5 Q1760.3906,60.7656 1760.0156,60.7656 Q1759.6719,60.7656 1759.4688,60.5625 Q1759.2656,60.375 1759.1563,59.8594 Q1759.1094,59.5 1758.9219,59.3125 Q1758.5938,58.9375 1757.9844,58.7188 Q1757.375,58.5 1756.75,58.5 Q1755.9844,58.5 1755.3438,58.8281 Q1754.7188,59.1563 1754.2188,59.9063 Q1753.7344,60.6563 1753.7344,61.6875 L1753.7344,62.7813 Q1753.7344,64.0156 1754.625,64.8438 Q1755.5156,65.6563 1757.1094,65.6563 Q1758.0469,65.6563 1758.7031,65.4063 Q1759.0938,65.25 1759.5156,64.8125 Q1759.7813,64.5469 1759.9219,64.4688 Q1760.0781,64.3906 1760.2813,64.3906 Q1760.6094,64.3906 1760.8594,64.6563 Q1761.125,64.9063 1761.125,65.25 Q1761.125,65.5938 1760.7813,66 Q1760.2813,66.5781 1759.4844,66.9063 Q1758.4063,67.3594 1757.1094,67.3594 Q1755.5938,67.3594 1754.3906,66.7344 Q1753.4063,66.2344 1752.7188,65.1719 Q1752.0313,64.0938 1752.0313,62.8125 L1752.0313,61.6563 Q1752.0313,60.3281 1752.6406,59.1875 Q1753.2656,58.0313 1754.3594,57.4219 Q1755.4531,56.7969 1756.6875,56.7969 Q1757.4219,56.7969 1758.0625,56.9688 Q1758.7188,57.125 1759.2656,57.4844 Z " fill="#000000"/><text fill="#000000" font-family="Arial" font-size="12" lengthAdjust="spacing" textLength="54.0352" x="1770.5" y="65.9658">Validateur</text><line style="stroke:#1F2937;stroke-width:0.5;" x1="1742.5" x2="1826.5352" y1="77.6094" y2="77.6094"/><line style="stroke:#1F2937;stroke-width:0.5;" x1="1742.5" x2="1826.5352" y1="85.6094" y2="85.6094"/></g><!--class Auditeur--><g id="elem_Auditeur"><rect codeLine="41" fill="#FEFEFE" height="48" id="Auditeur" rx="2.5" ry="2.5" style="stroke:#1F2937;stroke-width:0.5;" width="76.6953" x="350" y="45.6094"/><ellipse cx="365" cy="61.6094" fill="#ADD1B2" rx="11" ry="11" style="stroke:#181818;stroke-width:1;"/><path d="M367.7656,57.4844 Q367.9219,57.2656 368.1094,57.1563 Q368.2969,57.0469 368.5156,57.0469 Q368.8906,57.0469 369.125,57.3125 Q369.3594,57.5625 369.3594,58.1719 L369.3594,59.625 Q369.3594,60.2344 369.125,60.5 Q368.8906,60.7656 368.5156,60.7656 Q368.1719,60.7656 367.9688,60.5625 Q367.7656,60.375 367.6563,59.8594 Q367.6094,59.5 367.4219,59.3125 Q367.0938,58.9375 366.4844,58.7188 Q365.875,58.5 365.25,58.5 Q364.4844,58.5 363.8438,58.8281 Q363.2188,59.1563 362.7188,59.9063 Q362.2344,60.6563 362.2344,61.6875 L362.2344,62.7813 Q362.2344,64.0156 363.125,64.8438 Q364.0156,65.6563 365.6094,65.6563 Q366.5469,65.6563 367.2031,65.4063 Q367.5938,65.25 368.0156,64.8125 Q368.2813,64.5469 368.4219,64.4688 Q368.5781,64.3906 368.7813,64.3906 Q369.1094,64.3906 369.3594,64.6563 Q369.625,64.9063 369.625,65.25 Q369.625,65.5938 369.2813,66 Q368.7813,66.5781 367.9844,66.9063 Q366.9063,67.3594 365.6094,67.3594 Q364.0938,67.3594 362.8906,66.7344 Q361.9063,66.2344 361.2188,65.1719 Q360.5313,64.0938 360.5313,62.8125 L360.5313,61.6563 Q360.5313,60.3281 361.1406,59.1875 Q361.7656,58.0313 362.8594,57.4219 Q363.9531,56.7969 365.1875,56.7969 Q365.9219,56.7969 366.5625,56.9688 Q367.2188,57.125 367.7656,57.4844 Z " fill="#000000"/><text fill="#000000" font-family="Arial" font-size="12" lengthAdjust="spacing" textLength="44.6953" x="379" y="65.9658">Auditeur</text><line style="stroke:#1F2937;stroke-width:0.5;" x1="351" x2="425.6953" y1="77.6094" y2="77.6094"/><line style="stroke:#1F2937;stroke-width:0.5;" x1="351" x2="425.6953" y1="85.6094" y2="85.6094"/></g><!--class Decision--><g id="elem_Decision"><rect codeLine="49" fill="#FEFEFE" height="376.8721" id="Decision" rx="2.5" ry="2.5" style="stroke:#1F2937;stroke-width:0.5;" width="220.1943" x="263.5" y="491.6094"/><ellipse cx="346.3374" cy="507.6094" fill="#ADD1B2" rx="11" ry="11" style="stroke:#181818;stroke-width:1;"/><path d="M349.103,503.4844 Q349.2593,503.2656 349.4468,503.1563 Q349.6343,503.0469 349.853,503.0469 Q350.228,503.0469 350.4624,503.3125 Q350.6968,503.5625 350.6968,504.1719 L350.6968,505.625 Q350.6968,506.2344 350.4624,506.5 Q350.228,506.7656 349.853,506.7656 Q349.5093,506.7656 349.3062,506.5625 Q349.103,506.375 348.9937,505.8594 Q348.9468,505.5 348.7593,505.3125 Q348.4312,504.9375 347.8218,504.7188 Q347.2124,504.5 346.5874,504.5 Q345.8218,504.5 345.1812,504.8281 Q344.5562,505.1563 344.0562,505.9063 Q343.5718,506.6563 343.5718,507.6875 L343.5718,508.7813 Q343.5718,510.0156 344.4624,510.8438 Q345.353,511.6563 346.9468,511.6563 Q347.8843,511.6563 348.5405,511.4063 Q348.9312,511.25 349.353,510.8125 Q349.6187,510.5469 349.7593,510.4688 Q349.9155,510.3906 350.1187,510.3906 Q350.4468,510.3906 350.6968,510.6563 Q350.9624,510.9063 350.9624,511.25 Q350.9624,511.5938 350.6187,512 Q350.1187,512.5781 349.3218,512.9063 Q348.2437,513.3594 346.9468,513.3594 Q345.4312,513.3594 344.228,512.7344 Q343.2437,512.2344 342.5562,511.1719 Q341.8687,510.0938 341.8687,508.8125 L341.8687,507.6563 Q341.8687,506.3281 342.478,505.1875 Q343.103,504.0313 344.1968,503.4219 Q345.2905,502.7969 346.5249,502.7969 Q347.2593,502.7969 347.8999,502.9688 Q348.5562,503.125 349.103,503.4844 Z " fill="#000000"/><text fill="#000000" font-family="Arial" font-size="12" lengthAdjust="spacing" textLength="46.0195" x="366.8374" y="511.9658">Decision</text><line style="stroke:#1F2937;stroke-width:0.5;" x1="264.5" x2="482.6943" y1="523.6094" y2="523.6094"/><text fill="#000000" font-family="Arial" font-size="11" lengthAdjust="spacing" textLength="88.9561" x="269.5" y="537.9272">+decisionId: UUID</text><text fill="#000000" font-family="Arial" font-size="11" lengthAdjust="spacing" textLength="137.2476" x="269.5" y="550.5762">+timestamp: LocalDateTime</text><text fill="#000000" font-family="Arial" font-size="11" lengthAdjust="spacing" textLength="75.5068" x="269.5" y="563.2251">+prompt: String</text><text fill="#000000" font-family="Arial" font-size="11" lengthAdjust="spacing" textLength="82.8545" x="269.5" y="575.874">+contexte: String</text><text fill="#000000" font-family="Arial" font-size="11" lengthAdjust="spacing" textLength="100.5737" x="269.5" y="588.5229">+modelName: String</text><text fill="#000000" font-family="Arial" font-size="11" lengthAdjust="spacing" textLength="108.5283" x="269.5" y="601.1719">+modelVersion: String</text><text fill="#000000" font-family="Arial" font-size="11" lengthAdjust="spacing" textLength="81.0229" x="269.5" y="613.8208">+reponse: String</text><text fill="#000000" font-family="Arial" font-size="11" lengthAdjust="spacing" textLength="187.4136" x="269.5" y="626.4697">+statutValidation: StatutDecisionEnum</text><text fill="#000000" font-family="Arial" font-size="11" lengthAdjust="spacing" textLength="104.2529" x="269.5" y="639.1187">+featuresJson: String</text><text fill="#000000" font-family="Arial" font-size="11" lengthAdjust="spacing" textLength="134.2183" x="269.5" y="651.7676">+suggestedDecision: String</text><text fill="#000000" font-family="Arial" font-size="11" lengthAdjust="spacing" textLength="129.3359" x="269.5" y="664.4165">+confidenceScore: Double</text><text fill="#000000" font-family="Arial" font-size="11" lengthAdjust="spacing" textLength="84.6753" x="269.5" y="677.0654">+riskLevel: String</text><text fill="#000000" font-family="Arial" font-size="11" lengthAdjust="spacing" textLength="123.2075" x="269.5" y="689.7144">+probabilitiesJson: String</text><text fill="#000000" font-family="Arial" font-size="11" lengthAdjust="spacing" textLength="132.9829" x="269.5" y="702.3633">+resumeConsensus: String</text><text fill="#000000" font-family="Arial" font-size="11" lengthAdjust="spacing" textLength="117.0952" x="269.5" y="715.0122">+consensusJson: String</text><text fill="#000000" font-family="Arial" font-size="11" lengthAdjust="spacing" textLength="132.3921" x="269.5" y="727.6611">+explanationSource: String</text><text fill="#000000" font-family="Arial" font-size="11" lengthAdjust="spacing" textLength="108.5283" x="269.5" y="740.3101">+previousHash: String</text><text fill="#000000" font-family="Arial" font-size="11" lengthAdjust="spacing" textLength="101.186" x="269.5" y="752.959">+currentHash: String</text><text fill="#000000" font-family="Arial" font-size="11" lengthAdjust="spacing" textLength="133.6006" x="269.5" y="765.6079">+businessDataHash: String</text><text fill="#000000" font-family="Arial" font-size="11" lengthAdjust="spacing" textLength="105.4668" x="269.5" y="778.2568">+sourcesHash: String</text><text fill="#000000" font-family="Arial" font-size="11" lengthAdjust="spacing" textLength="149.5098" x="269.5" y="790.9058">+agentResponsesHash: String</text><text fill="#000000" font-family="Arial" font-size="11" lengthAdjust="spacing" textLength="117.0898" x="269.5" y="803.5547">+humanDecision: String</text><text fill="#000000" font-family="Arial" font-size="11" lengthAdjust="spacing" textLength="110.3545" x="269.5" y="816.2036">+validatorEmail: String</text><line style="stroke:#1F2937;stroke-width:1;" x1="264.5" x2="482.6943" y1="822.5347" y2="822.5347"/><text fill="#000000" font-family="Arial" font-size="11" lengthAdjust="spacing" textLength="112.1807" x="269.5" y="836.8525">+calculerHash(): String</text><text fill="#000000" font-family="Arial" font-size="11" lengthAdjust="spacing" textLength="192.9028" x="269.5" y="849.5015">+chainerAvecPrecedent(Decision): void</text><text fill="#000000" font-family="Arial" font-size="11" lengthAdjust="spacing" textLength="208.1943" x="269.5" y="862.1504">+changerStatut(StatutDecisionEnum): void</text></g><!--class ExplanationFactor--><g id="elem_ExplanationFactor"><rect codeLine="79" fill="#FEFEFE" height="149.1914" id="ExplanationFactor" rx="2.5" ry="2.5" style="stroke:#1F2937;stroke-width:0.5;" width="154.1729" x="807.5" y="944.1094"/><ellipse cx="833.9535" cy="960.1094" fill="#ADD1B2" rx="11" ry="11" style="stroke:#181818;stroke-width:1;"/><path d="M836.7191,955.9844 Q836.8753,955.7656 837.0628,955.6563 Q837.2503,955.5469 837.4691,955.5469 Q837.8441,955.5469 838.0785,955.8125 Q838.3128,956.0625 838.3128,956.6719 L838.3128,958.125 Q838.3128,958.7344 838.0785,959 Q837.8441,959.2656 837.4691,959.2656 Q837.1253,959.2656 836.9222,959.0625 Q836.7191,958.875 836.6097,958.3594 Q836.5628,958 836.3753,957.8125 Q836.0472,957.4375 835.4378,957.2188 Q834.8285,957 834.2035,957 Q833.4378,957 832.7972,957.3281 Q832.1722,957.6563 831.6722,958.4063 Q831.1878,959.1563 831.1878,960.1875 L831.1878,961.2813 Q831.1878,962.5156 832.0785,963.3438 Q832.9691,964.1563 834.5628,964.1563 Q835.5003,964.1563 836.1566,963.9063 Q836.5472,963.75 836.9691,963.3125 Q837.2347,963.0469 837.3753,962.9688 Q837.5316,962.8906 837.7347,962.8906 Q838.0628,962.8906 838.3128,963.1563 Q838.5785,963.4063 838.5785,963.75 Q838.5785,964.0938 838.2347,964.5 Q837.7347,965.0781 836.9378,965.4063 Q835.8597,965.8594 834.5628,965.8594 Q833.0472,965.8594 831.8441,965.2344 Q830.8597,964.7344 830.1722,963.6719 Q829.4847,962.5938 829.4847,961.3125 L829.4847,960.1563 Q829.4847,958.8281 830.0941,957.6875 Q830.7191,956.5313 831.8128,955.9219 Q832.9066,955.2969 834.141,955.2969 Q834.8753,955.2969 835.516,955.4688 Q836.1722,955.625 836.7191,955.9844 Z " fill="#000000"/><text fill="#000000" font-family="Arial" font-size="12" lengthAdjust="spacing" textLength="96.7207" x="850.4987" y="964.4658">ExplanationFactor</text><line style="stroke:#1F2937;stroke-width:0.5;" x1="808.5" x2="960.6729" y1="976.1094" y2="976.1094"/><text fill="#000000" font-family="Arial" font-size="11" lengthAdjust="spacing" textLength="76.1084" x="813.5" y="990.4272">+factorId: UUID</text><text fill="#000000" font-family="Arial" font-size="11" lengthAdjust="spacing" textLength="68.7876" x="813.5" y="1003.0762">+name: String</text><text fill="#000000" font-family="Arial" font-size="11" lengthAdjust="spacing" textLength="67.5684" x="813.5" y="1015.7251">+value: String</text><text fill="#000000" font-family="Arial" font-size="11" lengthAdjust="spacing" textLength="99.3813" x="813.5" y="1028.374">+shapValue: Double</text><text fill="#000000" font-family="Arial" font-size="11" lengthAdjust="spacing" textLength="73.6699" x="813.5" y="1041.0229">+impact: String</text><text fill="#000000" font-family="Arial" font-size="11" lengthAdjust="spacing" textLength="68.1807" x="813.5" y="1053.6719">+rank: Integer</text><text fill="#000000" font-family="Arial" font-size="11" lengthAdjust="spacing" textLength="142.1729" x="813.5" y="1066.3208">+contributionPercent: Double</text><text fill="#000000" font-family="Arial" font-size="11" lengthAdjust="spacing" textLength="74.2876" x="813.5" y="1078.9697">+source: String</text><line style="stroke:#1F2937;stroke-width:0.5;" x1="808.5" x2="960.6729" y1="1085.3008" y2="1085.3008"/></g><!--class ReponseAgentIA--><g id="elem_ReponseAgentIA"><rect codeLine="90" fill="#FEFEFE" height="199.7871" id="ReponseAgentIA" rx="2.5" ry="2.5" style="stroke:#1F2937;stroke-width:0.5;" width="181.6943" x="1021.5" y="918.6094"/><ellipse cx="1063.0329" cy="934.6094" fill="#ADD1B2" rx="11" ry="11" style="stroke:#181818;stroke-width:1;"/><path d="M1065.7985,930.4844 Q1065.9547,930.2656 1066.1422,930.1563 Q1066.3297,930.0469 1066.5485,930.0469 Q1066.9235,930.0469 1067.1579,930.3125 Q1067.3922,930.5625 1067.3922,931.1719 L1067.3922,932.625 Q1067.3922,933.2344 1067.1579,933.5 Q1066.9235,933.7656 1066.5485,933.7656 Q1066.2047,933.7656 1066.0016,933.5625 Q1065.7985,933.375 1065.6891,932.8594 Q1065.6422,932.5 1065.4547,932.3125 Q1065.1266,931.9375 1064.5172,931.7188 Q1063.9079,931.5 1063.2829,931.5 Q1062.5172,931.5 1061.8766,931.8281 Q1061.2516,932.1563 1060.7516,932.9063 Q1060.2672,933.6563 1060.2672,934.6875 L1060.2672,935.7813 Q1060.2672,937.0156 1061.1579,937.8438 Q1062.0485,938.6563 1063.6422,938.6563 Q1064.5797,938.6563 1065.236,938.4063 Q1065.6266,938.25 1066.0485,937.8125 Q1066.3141,937.5469 1066.4547,937.4688 Q1066.611,937.3906 1066.8141,937.3906 Q1067.1422,937.3906 1067.3922,937.6563 Q1067.6579,937.9063 1067.6579,938.25 Q1067.6579,938.5938 1067.3141,939 Q1066.8141,939.5781 1066.0172,939.9063 Q1064.9391,940.3594 1063.6422,940.3594 Q1062.1266,940.3594 1060.9235,939.7344 Q1059.9391,939.2344 1059.2516,938.1719 Q1058.5641,937.0938 1058.5641,935.8125 L1058.5641,934.6563 Q1058.5641,933.3281 1059.1735,932.1875 Q1059.7985,931.0313 1060.8922,930.4219 Q1061.986,929.7969 1063.2204,929.7969 Q1063.9547,929.7969 1064.5954,929.9688 Q1065.2516,930.125 1065.7985,930.4844 Z " fill="#000000"/><text fill="#000000" font-family="Arial" font-size="12" lengthAdjust="spacing" textLength="90.7324" x="1082.9291" y="938.9658">ReponseAgentIA</text><line style="stroke:#1F2937;stroke-width:0.5;" x1="1022.5" x2="1202.1943" y1="950.6094" y2="950.6094"/><text fill="#000000" font-family="Arial" font-size="11" lengthAdjust="spacing" textLength="117.0952" x="1027.5" y="964.9272">+reponseAgentId: UUID</text><text fill="#000000" font-family="Arial" font-size="11" lengthAdjust="spacing" textLength="87.7529" x="1027.5" y="977.5762">+agentKey: String</text><text fill="#000000" font-family="Arial" font-size="11" lengthAdjust="spacing" textLength="80.4053" x="1027.5" y="990.2251">+modelId: String</text><text fill="#000000" font-family="Arial" font-size="11" lengthAdjust="spacing" textLength="100.5737" x="1027.5" y="1002.874">+modelName: String</text><text fill="#000000" font-family="Arial" font-size="11" lengthAdjust="spacing" textLength="81.0122" x="1027.5" y="1015.5229">+provider: String</text><text fill="#000000" font-family="Arial" font-size="11" lengthAdjust="spacing" textLength="128.7183" x="1027.5" y="1028.1719">+decisionProposee: String</text><text fill="#000000" font-family="Arial" font-size="11" lengthAdjust="spacing" textLength="138.5044" x="1027.5" y="1040.8208">+confianceDeclaree: Double</text><text fill="#000000" font-family="Arial" font-size="11" lengthAdjust="spacing" textLength="107.9268" x="1027.5" y="1053.4697">+niveauRisque: String</text><text fill="#000000" font-family="Arial" font-size="11" lengthAdjust="spacing" textLength="77.9507" x="1027.5" y="1066.1187">+resume: String</text><text fill="#000000" font-family="Arial" font-size="11" lengthAdjust="spacing" textLength="93.2476" x="1027.5" y="1078.7676">+explication: String</text><text fill="#000000" font-family="Arial" font-size="11" lengthAdjust="spacing" textLength="169.6943" x="1027.5" y="1091.4165">+statut: StatutReponseAgentEnum</text><text fill="#000000" font-family="Arial" font-size="11" lengthAdjust="spacing" textLength="137.2476" x="1027.5" y="1104.0654">+timestamp: LocalDateTime</text><line style="stroke:#1F2937;stroke-width:0.5;" x1="1022.5" x2="1202.1943" y1="1110.3965" y2="1110.3965"/></g><!--class ValidationAction--><g id="elem_ValidationAction"><rect codeLine="105" fill="#FEFEFE" height="136.5425" id="ValidationAction" rx="2.5" ry="2.5" style="stroke:#1F2937;stroke-width:0.5;" width="179.8359" x="1663.5" y="950.1094"/><ellipse cx="1706.3007" cy="966.1094" fill="#ADD1B2" rx="11" ry="11" style="stroke:#181818;stroke-width:1;"/><path d="M1709.0663,961.9844 Q1709.2226,961.7656 1709.4101,961.6563 Q1709.5976,961.5469 1709.8163,961.5469 Q1710.1913,961.5469 1710.4257,961.8125 Q1710.6601,962.0625 1710.6601,962.6719 L1710.6601,964.125 Q1710.6601,964.7344 1710.4257,965 Q1710.1913,965.2656 1709.8163,965.2656 Q1709.4726,965.2656 1709.2694,965.0625 Q1709.0663,964.875 1708.9569,964.3594 Q1708.9101,964 1708.7226,963.8125 Q1708.3944,963.4375 1707.7851,963.2188 Q1707.1757,963 1706.5507,963 Q1705.7851,963 1705.1444,963.3281 Q1704.5194,963.6563 1704.0194,964.4063 Q1703.5351,965.1563 1703.5351,966.1875 L1703.5351,967.2813 Q1703.5351,968.5156 1704.4257,969.3438 Q1705.3163,970.1563 1706.9101,970.1563 Q1707.8476,970.1563 1708.5038,969.9063 Q1708.8944,969.75 1709.3163,969.3125 Q1709.5819,969.0469 1709.7226,968.9688 Q1709.8788,968.8906 1710.0819,968.8906 Q1710.4101,968.8906 1710.6601,969.1563 Q1710.9257,969.4063 1710.9257,969.75 Q1710.9257,970.0938 1710.5819,970.5 Q1710.0819,971.0781 1709.2851,971.4063 Q1708.2069,971.8594 1706.9101,971.8594 Q1705.3944,971.8594 1704.1913,971.2344 Q1703.2069,970.7344 1702.5194,969.6719 Q1701.8319,968.5938 1701.8319,967.3125 L1701.8319,966.1563 Q1701.8319,964.8281 1702.4413,963.6875 Q1703.0663,962.5313 1704.1601,961.9219 Q1705.2538,961.2969 1706.4882,961.2969 Q1707.2226,961.2969 1707.8632,961.4688 Q1708.5194,961.625 1709.0663,961.9844 Z " fill="#000000"/><text fill="#000000" font-family="Arial" font-size="12" lengthAdjust="spacing" textLength="86.0566" x="1726.4786" y="970.4658">ValidationAction</text><line style="stroke:#1F2937;stroke-width:0.5;" x1="1664.5" x2="1842.3359" y1="982.1094" y2="982.1094"/><text fill="#000000" font-family="Arial" font-size="11" lengthAdjust="spacing" textLength="125.646" x="1669.5" y="996.4272">+validationActionId: UUID</text><text fill="#000000" font-family="Arial" font-size="11" lengthAdjust="spacing" textLength="147.6621" x="1669.5" y="1009.0762">+typeAction: TypeActionEnum</text><text fill="#000000" font-family="Arial" font-size="11" lengthAdjust="spacing" textLength="167.229" x="1669.5" y="1021.7251">+statutAvant: StatutDecisionEnum</text><text fill="#000000" font-family="Arial" font-size="11" lengthAdjust="spacing" textLength="167.8359" x="1669.5" y="1034.374">+statutApres: StatutDecisionEnum</text><text fill="#000000" font-family="Arial" font-size="11" lengthAdjust="spacing" textLength="125.6514" x="1669.5" y="1047.0229">+decisionHumaine: String</text><text fill="#000000" font-family="Arial" font-size="11" lengthAdjust="spacing" textLength="104.8491" x="1669.5" y="1059.6719">+commentaire: String</text><text fill="#000000" font-family="Arial" font-size="11" lengthAdjust="spacing" textLength="137.2476" x="1669.5" y="1072.3208">+timestamp: LocalDateTime</text><line style="stroke:#1F2937;stroke-width:0.5;" x1="1664.5" x2="1842.3359" y1="1078.6519" y2="1078.6519"/></g><!--class DecisionSource--><g id="elem_DecisionSource"><rect codeLine="115" fill="#FEFEFE" height="161.8403" id="DecisionSource" rx="2.5" ry="2.5" style="stroke:#1F2937;stroke-width:0.5;" width="183.499" x="264" y="937.6094"/><ellipse cx="309.479" cy="953.6094" fill="#ADD1B2" rx="11" ry="11" style="stroke:#181818;stroke-width:1;"/><path d="M312.2446,949.4844 Q312.4009,949.2656 312.5884,949.1563 Q312.7759,949.0469 312.9946,949.0469 Q313.3696,949.0469 313.604,949.3125 Q313.8384,949.5625 313.8384,950.1719 L313.8384,951.625 Q313.8384,952.2344 313.604,952.5 Q313.3696,952.7656 312.9946,952.7656 Q312.6509,952.7656 312.4478,952.5625 Q312.2446,952.375 312.1353,951.8594 Q312.0884,951.5 311.9009,951.3125 Q311.5728,950.9375 310.9634,950.7188 Q310.354,950.5 309.729,950.5 Q308.9634,950.5 308.3228,950.8281 Q307.6978,951.1563 307.1978,951.9063 Q306.7134,952.6563 306.7134,953.6875 L306.7134,954.7813 Q306.7134,956.0156 307.604,956.8438 Q308.4946,957.6563 310.0884,957.6563 Q311.0259,957.6563 311.6821,957.4063 Q312.0728,957.25 312.4946,956.8125 Q312.7603,956.5469 312.9009,956.4688 Q313.0571,956.3906 313.2603,956.3906 Q313.5884,956.3906 313.8384,956.6563 Q314.104,956.9063 314.104,957.25 Q314.104,957.5938 313.7603,958 Q313.2603,958.5781 312.4634,958.9063 Q311.3853,959.3594 310.0884,959.3594 Q308.5728,959.3594 307.3696,958.7344 Q306.3853,958.2344 305.6978,957.1719 Q305.0103,956.0938 305.0103,954.8125 L305.0103,953.6563 Q305.0103,952.3281 305.6196,951.1875 Q306.2446,950.0313 307.3384,949.4219 Q308.4321,948.7969 309.6665,948.7969 Q310.4009,948.7969 311.0415,948.9688 Q311.6978,949.125 312.2446,949.4844 Z " fill="#000000"/><text fill="#000000" font-family="Arial" font-size="12" lengthAdjust="spacing" textLength="84.041" x="329.979" y="957.9658">DecisionSource</text><line style="stroke:#1F2937;stroke-width:0.5;" x1="265" x2="446.499" y1="969.6094" y2="969.6094"/><text fill="#000000" font-family="Arial" font-size="11" lengthAdjust="spacing" textLength="81.6138" x="270" y="983.9272">+sourceId: UUID</text><text fill="#000000" font-family="Arial" font-size="11" lengthAdjust="spacing" textLength="171.499" x="270" y="996.5762">+sourceType: DecisionSourceType</text><text fill="#000000" font-family="Arial" font-size="11" lengthAdjust="spacing" textLength="68.7876" x="270" y="1009.2251">+name: String</text><text fill="#000000" font-family="Arial" font-size="11" lengthAdjust="spacing" textLength="94.4668" x="270" y="1021.874">+description: String</text><text fill="#000000" font-family="Arial" font-size="11" lengthAdjust="spacing" textLength="53.4961" x="270" y="1034.5229">+url: String</text><text fill="#000000" font-family="Arial" font-size="11" lengthAdjust="spacing" textLength="103.0337" x="270" y="1047.1719">+contentHash: String</text><text fill="#000000" font-family="Arial" font-size="11" lengthAdjust="spacing" textLength="98.1245" x="270" y="1059.8208">+createdById: UUID</text><text fill="#000000" font-family="Arial" font-size="11" lengthAdjust="spacing" textLength="118.3037" x="270" y="1072.4697">+createdByEmail: String</text><text fill="#000000" font-family="Arial" font-size="11" lengthAdjust="spacing" textLength="133.5952" x="270" y="1085.1187">+createdAt: LocalDateTime</text><line style="stroke:#1F2937;stroke-width:0.5;" x1="265" x2="446.499" y1="1091.4497" y2="1091.4497"/></g><!--class DecisionHistory--><g id="elem_DecisionHistory"><rect codeLine="127" fill="#FEFEFE" height="174.4893" id="DecisionHistory" rx="2.5" ry="2.5" style="stroke:#1F2937;stroke-width:0.5;" width="196.959" x="7" y="931.6094"/><ellipse cx="59.5518" cy="947.6094" fill="#ADD1B2" rx="11" ry="11" style="stroke:#181818;stroke-width:1;"/><path d="M62.3174,943.4844 Q62.4736,943.2656 62.6611,943.1563 Q62.8486,943.0469 63.0674,943.0469 Q63.4424,943.0469 63.6768,943.3125 Q63.9111,943.5625 63.9111,944.1719 L63.9111,945.625 Q63.9111,946.2344 63.6768,946.5 Q63.4424,946.7656 63.0674,946.7656 Q62.7236,946.7656 62.5205,946.5625 Q62.3174,946.375 62.208,945.8594 Q62.1611,945.5 61.9736,945.3125 Q61.6455,944.9375 61.0361,944.7188 Q60.4268,944.5 59.8018,944.5 Q59.0361,944.5 58.3955,944.8281 Q57.7705,945.1563 57.2705,945.9063 Q56.7861,946.6563 56.7861,947.6875 L56.7861,948.7813 Q56.7861,950.0156 57.6768,950.8438 Q58.5674,951.6563 60.1611,951.6563 Q61.0986,951.6563 61.7549,951.4063 Q62.1455,951.25 62.5674,950.8125 Q62.833,950.5469 62.9736,950.4688 Q63.1299,950.3906 63.333,950.3906 Q63.6611,950.3906 63.9111,950.6563 Q64.1768,950.9063 64.1768,951.25 Q64.1768,951.5938 63.833,952 Q63.333,952.5781 62.5361,952.9063 Q61.458,953.3594 60.1611,953.3594 Q58.6455,953.3594 57.4424,952.7344 Q56.458,952.2344 55.7705,951.1719 Q55.083,950.0938 55.083,948.8125 L55.083,947.6563 Q55.083,946.3281 55.6924,945.1875 Q56.3174,944.0313 57.4111,943.4219 Q58.5049,942.7969 59.7393,942.7969 Q60.4736,942.7969 61.1143,942.9688 Q61.7705,943.125 62.3174,943.4844 Z " fill="#000000"/><text fill="#000000" font-family="Arial" font-size="12" lengthAdjust="spacing" textLength="83.3555" x="80.0518" y="951.9658">DecisionHistory</text><line style="stroke:#1F2937;stroke-width:0.5;" x1="8" x2="202.959" y1="963.6094" y2="963.6094"/><text fill="#000000" font-family="Arial" font-size="11" lengthAdjust="spacing" textLength="80.9961" x="13" y="977.9272">+historyId: UUID</text><text fill="#000000" font-family="Arial" font-size="11" lengthAdjust="spacing" textLength="148.8706" x="13" y="990.5762">+action: DecisionHistoryAction</text><text fill="#000000" font-family="Arial" font-size="11" lengthAdjust="spacing" textLength="184.959" x="13" y="1003.2251">+previousStatus: StatutDecisionEnum</text><text fill="#000000" font-family="Arial" font-size="11" lengthAdjust="spacing" textLength="163.5605" x="13" y="1015.874">+newStatus: StatutDecisionEnum</text><text fill="#000000" font-family="Arial" font-size="11" lengthAdjust="spacing" textLength="111.5684" x="13" y="1028.5229">+performedById: UUID</text><text fill="#000000" font-family="Arial" font-size="11" lengthAdjust="spacing" textLength="131.7476" x="13" y="1041.1719">+performedByEmail: String</text><text fill="#000000" font-family="Arial" font-size="11" lengthAdjust="spacing" textLength="86.5068" x="13" y="1053.8208">+comment: String</text><text fill="#000000" font-family="Arial" font-size="11" lengthAdjust="spacing" textLength="114.6514" x="13" y="1066.4697">+eventDataJson: String</text><text fill="#000000" font-family="Arial" font-size="11" lengthAdjust="spacing" textLength="101.8037" x="13" y="1079.1187">+correlationId: String</text><text fill="#000000" font-family="Arial" font-size="11" lengthAdjust="spacing" textLength="133.5952" x="13" y="1091.7676">+createdAt: LocalDateTime</text><line style="stroke:#1F2937;stroke-width:0.5;" x1="8" x2="202.959" y1="1098.0986" y2="1098.0986"/></g><!--class SystemeIA--><g id="elem_SystemeIA"><rect codeLine="140" fill="#FEFEFE" height="123.8936" id="SystemeIA" rx="2.5" ry="2.5" style="stroke:#1F2937;stroke-width:0.5;" width="124.8091" x="539" y="317.6094"/><ellipse cx="569.6553" cy="333.6094" fill="#ADD1B2" rx="11" ry="11" style="stroke:#181818;stroke-width:1;"/><path d="M572.4209,329.4844 Q572.5772,329.2656 572.7647,329.1563 Q572.9522,329.0469 573.1709,329.0469 Q573.5459,329.0469 573.7803,329.3125 Q574.0147,329.5625 574.0147,330.1719 L574.0147,331.625 Q574.0147,332.2344 573.7803,332.5 Q573.5459,332.7656 573.1709,332.7656 Q572.8272,332.7656 572.624,332.5625 Q572.4209,332.375 572.3115,331.8594 Q572.2647,331.5 572.0772,331.3125 Q571.749,330.9375 571.1397,330.7188 Q570.5303,330.5 569.9053,330.5 Q569.1397,330.5 568.499,330.8281 Q567.874,331.1563 567.374,331.9063 Q566.8897,332.6563 566.8897,333.6875 L566.8897,334.7813 Q566.8897,336.0156 567.7803,336.8438 Q568.6709,337.6563 570.2647,337.6563 Q571.2022,337.6563 571.8584,337.4063 Q572.249,337.25 572.6709,336.8125 Q572.9365,336.5469 573.0772,336.4688 Q573.2334,336.3906 573.4365,336.3906 Q573.7647,336.3906 574.0147,336.6563 Q574.2803,336.9063 574.2803,337.25 Q574.2803,337.5938 573.9365,338 Q573.4365,338.5781 572.6397,338.9063 Q571.5615,339.3594 570.2647,339.3594 Q568.749,339.3594 567.5459,338.7344 Q566.5615,338.2344 565.874,337.1719 Q565.1865,336.0938 565.1865,334.8125 L565.1865,333.6563 Q565.1865,332.3281 565.7959,331.1875 Q566.4209,330.0313 567.5147,329.4219 Q568.6084,328.7969 569.8428,328.7969 Q570.5772,328.7969 571.2178,328.9688 Q571.874,329.125 572.4209,329.4844 Z " fill="#000000"/><text fill="#000000" font-family="Arial" font-size="12" lengthAdjust="spacing" textLength="58.0195" x="587.1343" y="337.9658">SystemeIA</text><line style="stroke:#1F2937;stroke-width:0.5;" x1="540" x2="662.8091" y1="349.6094" y2="349.6094"/><text fill="#000000" font-family="Arial" font-size="11" lengthAdjust="spacing" textLength="98.7261" x="545" y="363.9272">+systemeIaId: UUID</text><text fill="#000000" font-family="Arial" font-size="11" lengthAdjust="spacing" textLength="62.6699" x="545" y="376.5762">+nom: String</text><text fill="#000000" font-family="Arial" font-size="11" lengthAdjust="spacing" textLength="95.686" x="545" y="389.2251">+fournisseur: String</text><text fill="#000000" font-family="Arial" font-size="11" lengthAdjust="spacing" textLength="77.3491" x="545" y="401.874">+modele: String</text><text fill="#000000" font-family="Arial" font-size="11" lengthAdjust="spacing" textLength="112.8091" x="545" y="414.5229">+versionModele: String</text><text fill="#000000" font-family="Arial" font-size="11" lengthAdjust="spacing" textLength="73.0791" x="545" y="427.1719">+actif: Boolean</text><line style="stroke:#1F2937;stroke-width:0.5;" x1="540" x2="662.8091" y1="433.5029" y2="433.5029"/></g><!--class DecisionService--><g id="elem_DecisionService"><rect codeLine="164" fill="#FEFEFE" height="92.8394" id="DecisionService" rx="2.5" ry="2.5" style="stroke:#1F2937;stroke-width:0.5;" width="308.2212" x="789.5" y="333.1094"/><ellipse cx="896.344" cy="352.5557" fill="#ADD1B2" rx="11" ry="11" style="stroke:#181818;stroke-width:1;"/><path d="M899.1096,348.4307 Q899.2659,348.2119 899.4534,348.1025 Q899.6409,347.9932 899.8596,347.9932 Q900.2346,347.9932 900.469,348.2588 Q900.7034,348.5088 900.7034,349.1182 L900.7034,350.5713 Q900.7034,351.1807 900.469,351.4463 Q900.2346,351.7119 899.8596,351.7119 Q899.5159,351.7119 899.3127,351.5088 Q899.1096,351.3213 899.0002,350.8057 Q898.9534,350.4463 898.7659,350.2588 Q898.4377,349.8838 897.8284,349.665 Q897.219,349.4463 896.594,349.4463 Q895.8284,349.4463 895.1877,349.7744 Q894.5627,350.1025 894.0627,350.8525 Q893.5784,351.6025 893.5784,352.6338 L893.5784,353.7275 Q893.5784,354.9619 894.469,355.79 Q895.3596,356.6025 896.9534,356.6025 Q897.8909,356.6025 898.5471,356.3525 Q898.9377,356.1963 899.3596,355.7588 Q899.6252,355.4932 899.7659,355.415 Q899.9221,355.3369 900.1252,355.3369 Q900.4534,355.3369 900.7034,355.6025 Q900.969,355.8525 900.969,356.1963 Q900.969,356.54 900.6252,356.9463 Q900.1252,357.5244 899.3284,357.8525 Q898.2502,358.3057 896.9534,358.3057 Q895.4377,358.3057 894.2346,357.6807 Q893.2502,357.1807 892.5627,356.1182 Q891.8752,355.04 891.8752,353.7588 L891.8752,352.6025 Q891.8752,351.2744 892.4846,350.1338 Q893.1096,348.9775 894.2034,348.3682 Q895.2971,347.7432 896.5315,347.7432 Q897.2659,347.7432 897.9065,347.915 Q898.5627,348.0713 899.1096,348.4307 Z " fill="#000000"/><text fill="#000000" font-family="sans-serif" font-size="12" font-style="italic" lengthAdjust="spacing" textLength="51.3574" x="934.1819" y="350.5664">&#171;service&#187;</text><text fill="#000000" font-family="Arial" font-size="12" lengthAdjust="spacing" textLength="86.0332" x="916.844" y="364.459">DecisionService</text><line style="stroke:#1F2937;stroke-width:0.5;" x1="790.5" x2="1096.7212" y1="372.002" y2="372.002"/><line style="stroke:#1F2937;stroke-width:0.5;" x1="790.5" x2="1096.7212" y1="380.002" y2="380.002"/><text fill="#000000" font-family="Arial" font-size="11" lengthAdjust="spacing" textLength="296.2212" x="795.5" y="394.3198">+analyserCredit(CreditFeaturesRequest): DecisionResponse</text><text fill="#000000" font-family="Arial" font-size="11" lengthAdjust="spacing" textLength="172.1006" x="795.5" y="406.9688">+obtenir(UUID): DecisionResponse</text><text fill="#000000" font-family="Arial" font-size="11" lengthAdjust="spacing" textLength="199.0151" x="795.5" y="419.6177">+rechercher(...): DecisionPageResponse</text></g><!--class MLDecisionService--><g id="elem_MLDecisionService"><rect codeLine="170" fill="#FEFEFE" height="80.1904" id="MLDecisionService" rx="2.5" ry="2.5" style="stroke:#1F2937;stroke-width:0.5;" width="292.3281" x="861.5" y="640.1094"/><ellipse cx="952.0625" cy="659.5557" fill="#ADD1B2" rx="11" ry="11" style="stroke:#181818;stroke-width:1;"/><path d="M954.8281,655.4307 Q954.9844,655.2119 955.1719,655.1025 Q955.3594,654.9932 955.5781,654.9932 Q955.9531,654.9932 956.1875,655.2588 Q956.4219,655.5088 956.4219,656.1182 L956.4219,657.5713 Q956.4219,658.1807 956.1875,658.4463 Q955.9531,658.7119 955.5781,658.7119 Q955.2344,658.7119 955.0313,658.5088 Q954.8281,658.3213 954.7188,657.8057 Q954.6719,657.4463 954.4844,657.2588 Q954.1563,656.8838 953.5469,656.665 Q952.9375,656.4463 952.3125,656.4463 Q951.5469,656.4463 950.9063,656.7744 Q950.2813,657.1025 949.7813,657.8525 Q949.2969,658.6025 949.2969,659.6338 L949.2969,660.7275 Q949.2969,661.9619 950.1875,662.79 Q951.0781,663.6025 952.6719,663.6025 Q953.6094,663.6025 954.2656,663.3525 Q954.6563,663.1963 955.0781,662.7588 Q955.3438,662.4932 955.4844,662.415 Q955.6406,662.3369 955.8438,662.3369 Q956.1719,662.3369 956.4219,662.6025 Q956.6875,662.8525 956.6875,663.1963 Q956.6875,663.54 956.3438,663.9463 Q955.8438,664.5244 955.0469,664.8525 Q953.9688,665.3057 952.6719,665.3057 Q951.1563,665.3057 949.9531,664.6807 Q948.9688,664.1807 948.2813,663.1182 Q947.5938,662.04 947.5938,660.7588 L947.5938,659.6025 Q947.5938,658.2744 948.2031,657.1338 Q948.8281,655.9775 949.9219,655.3682 Q951.0156,654.7432 952.25,654.7432 Q952.9844,654.7432 953.625,654.915 Q954.2813,655.0713 954.8281,655.4307 Z " fill="#000000"/><text fill="#000000" font-family="sans-serif" font-size="12" font-style="italic" lengthAdjust="spacing" textLength="51.3574" x="998.2354" y="657.5664">&#171;service&#187;</text><text fill="#000000" font-family="Arial" font-size="12" lengthAdjust="spacing" textLength="102.7031" x="972.5625" y="671.459">MLDecisionService</text><line style="stroke:#1F2937;stroke-width:0.5;" x1="862.5" x2="1152.8281" y1="679.002" y2="679.002"/><line style="stroke:#1F2937;stroke-width:0.5;" x1="862.5" x2="1152.8281" y1="687.002" y2="687.002"/><text fill="#000000" font-family="Arial" font-size="11" lengthAdjust="spacing" textLength="280.3281" x="867.5" y="701.3198">+predict(CreditFeaturesRequest): MLPredictionResponse</text><text fill="#000000" font-family="Arial" font-size="11" lengthAdjust="spacing" textLength="163.5552" x="867.5" y="713.9688">+isMLServiceAvailable(): boolean</text></g><!--class GroqMultiAgentService--><g id="elem_GroqMultiAgentService"><rect codeLine="175" fill="#FEFEFE" height="80.1904" id="GroqMultiAgentService" rx="2.5" ry="2.5" style="stroke:#1F2937;stroke-width:0.5;" width="357.7534" x="1213.5" y="640.1094"/><ellipse cx="1326.4333" cy="659.5557" fill="#ADD1B2" rx="11" ry="11" style="stroke:#181818;stroke-width:1;"/><path d="M1329.199,655.4307 Q1329.3552,655.2119 1329.5427,655.1025 Q1329.7302,654.9932 1329.949,654.9932 Q1330.324,654.9932 1330.5583,655.2588 Q1330.7927,655.5088 1330.7927,656.1182 L1330.7927,657.5713 Q1330.7927,658.1807 1330.5583,658.4463 Q1330.324,658.7119 1329.949,658.7119 Q1329.6052,658.7119 1329.4021,658.5088 Q1329.199,658.3213 1329.0896,657.8057 Q1329.0427,657.4463 1328.8552,657.2588 Q1328.5271,656.8838 1327.9177,656.665 Q1327.3083,656.4463 1326.6833,656.4463 Q1325.9177,656.4463 1325.2771,656.7744 Q1324.6521,657.1025 1324.1521,657.8525 Q1323.6677,658.6025 1323.6677,659.6338 L1323.6677,660.7275 Q1323.6677,661.9619 1324.5583,662.79 Q1325.449,663.6025 1327.0427,663.6025 Q1327.9802,663.6025 1328.6365,663.3525 Q1329.0271,663.1963 1329.449,662.7588 Q1329.7146,662.4932 1329.8552,662.415 Q1330.0115,662.3369 1330.2146,662.3369 Q1330.5427,662.3369 1330.7927,662.6025 Q1331.0583,662.8525 1331.0583,663.1963 Q1331.0583,663.54 1330.7146,663.9463 Q1330.2146,664.5244 1329.4177,664.8525 Q1328.3396,665.3057 1327.0427,665.3057 Q1325.5271,665.3057 1324.324,664.6807 Q1323.3396,664.1807 1322.6521,663.1182 Q1321.9646,662.04 1321.9646,660.7588 L1321.9646,659.6025 Q1321.9646,658.2744 1322.574,657.1338 Q1323.199,655.9775 1324.2927,655.3682 Q1325.3865,654.7432 1326.6208,654.7432 Q1327.3552,654.7432 1327.9958,654.915 Q1328.6521,655.0713 1329.199,655.4307 Z " fill="#000000"/><text fill="#000000" font-family="sans-serif" font-size="12" font-style="italic" lengthAdjust="spacing" textLength="51.3574" x="1382.948" y="657.5664">&#171;service&#187;</text><text fill="#000000" font-family="Arial" font-size="12" lengthAdjust="spacing" textLength="123.3867" x="1346.9333" y="671.459">GroqMultiAgentService</text><line style="stroke:#1F2937;stroke-width:0.5;" x1="1214.5" x2="1570.2534" y1="679.002" y2="679.002"/><line style="stroke:#1F2937;stroke-width:0.5;" x1="1214.5" x2="1570.2534" y1="687.002" y2="687.002"/><text fill="#000000" font-family="Arial" font-size="11" lengthAdjust="spacing" textLength="345.7534" x="1219.5" y="701.3198">+analyzeDecisionAgents(Decision, String, String): GroqAnalysisBundle</text><text fill="#000000" font-family="Arial" font-size="11" lengthAdjust="spacing" textLength="334.7803" x="1219.5" y="713.9688">+retryAgentResponse(Decision, ReponseAgentIA): ReponseAgentIA</text></g><!--class ConsensusService--><g id="elem_ConsensusService"><rect codeLine="180" fill="#FEFEFE" height="80.1904" id="ConsensusService" rx="2.5" ry="2.5" style="stroke:#1F2937;stroke-width:0.5;" width="291.7534" x="1263.5" y="978.6094"/><ellipse cx="1355.1023" cy="998.0557" fill="#ADD1B2" rx="11" ry="11" style="stroke:#181818;stroke-width:1;"/><path d="M1357.8679,993.9307 Q1358.0242,993.7119 1358.2117,993.6025 Q1358.3992,993.4932 1358.6179,993.4932 Q1358.9929,993.4932 1359.2273,993.7588 Q1359.4617,994.0088 1359.4617,994.6182 L1359.4617,996.0713 Q1359.4617,996.6807 1359.2273,996.9463 Q1358.9929,997.2119 1358.6179,997.2119 Q1358.2742,997.2119 1358.071,997.0088 Q1357.8679,996.8213 1357.7585,996.3057 Q1357.7117,995.9463 1357.5242,995.7588 Q1357.196,995.3838 1356.5867,995.165 Q1355.9773,994.9463 1355.3523,994.9463 Q1354.5867,994.9463 1353.946,995.2744 Q1353.321,995.6025 1352.821,996.3525 Q1352.3367,997.1025 1352.3367,998.1338 L1352.3367,999.2275 Q1352.3367,1000.4619 1353.2273,1001.29 Q1354.1179,1002.1025 1355.7117,1002.1025 Q1356.6492,1002.1025 1357.3054,1001.8525 Q1357.696,1001.6963 1358.1179,1001.2588 Q1358.3835,1000.9932 1358.5242,1000.915 Q1358.6804,1000.8369 1358.8835,1000.8369 Q1359.2117,1000.8369 1359.4617,1001.1025 Q1359.7273,1001.3525 1359.7273,1001.6963 Q1359.7273,1002.04 1359.3835,1002.4463 Q1358.8835,1003.0244 1358.0867,1003.3525 Q1357.0085,1003.8057 1355.7117,1003.8057 Q1354.196,1003.8057 1352.9929,1003.1807 Q1352.0085,1002.6807 1351.321,1001.6182 Q1350.6335,1000.54 1350.6335,999.2588 L1350.6335,998.1025 Q1350.6335,996.7744 1351.2429,995.6338 Q1351.8679,994.4775 1352.9617,993.8682 Q1354.0554,993.2432 1355.2898,993.2432 Q1356.0242,993.2432 1356.6648,993.415 Q1357.321,993.5713 1357.8679,993.9307 Z " fill="#000000"/><text fill="#000000" font-family="sans-serif" font-size="12" font-style="italic" lengthAdjust="spacing" textLength="51.3574" x="1399.948" y="996.0664">&#171;service&#187;</text><text fill="#000000" font-family="Arial" font-size="12" lengthAdjust="spacing" textLength="100.0488" x="1375.6023" y="1009.959">ConsensusService</text><line style="stroke:#1F2937;stroke-width:0.5;" x1="1264.5" x2="1554.2534" y1="1017.502" y2="1017.502"/><line style="stroke:#1F2937;stroke-width:0.5;" x1="1264.5" x2="1554.2534" y1="1025.502" y2="1025.502"/><text fill="#000000" font-family="Arial" font-size="11" lengthAdjust="spacing" textLength="279.7534" x="1269.5" y="1039.8198">+compute(List&lt;ReponseAgentIA&gt;): ConsensusResponse</text><text fill="#000000" font-family="Arial" font-size="11" lengthAdjust="spacing" textLength="271.1865" x="1269.5" y="1052.4688">+buildSkippedConsensus(String): ConsensusResponse</text></g><!--class ValidationService--><g id="elem_ValidationService"><rect codeLine="185" fill="#FEFEFE" height="105.4883" id="ValidationService" rx="2.5" ry="2.5" style="stroke:#1F2937;stroke-width:0.5;" width="295.395" x="1637" y="327.1094"/><ellipse cx="1734.0881" cy="346.5557" fill="#ADD1B2" rx="11" ry="11" style="stroke:#181818;stroke-width:1;"/><path d="M1736.8538,342.4307 Q1737.01,342.2119 1737.1975,342.1025 Q1737.385,341.9932 1737.6038,341.9932 Q1737.9788,341.9932 1738.2131,342.2588 Q1738.4475,342.5088 1738.4475,343.1182 L1738.4475,344.5713 Q1738.4475,345.1807 1738.2131,345.4463 Q1737.9788,345.7119 1737.6038,345.7119 Q1737.26,345.7119 1737.0569,345.5088 Q1736.8538,345.3213 1736.7444,344.8057 Q1736.6975,344.4463 1736.51,344.2588 Q1736.1819,343.8838 1735.5725,343.665 Q1734.9631,343.4463 1734.3381,343.4463 Q1733.5725,343.4463 1732.9319,343.7744 Q1732.3069,344.1025 1731.8069,344.8525 Q1731.3225,345.6025 1731.3225,346.6338 L1731.3225,347.7275 Q1731.3225,348.9619 1732.2131,349.79 Q1733.1038,350.6025 1734.6975,350.6025 Q1735.635,350.6025 1736.2913,350.3525 Q1736.6819,350.1963 1737.1038,349.7588 Q1737.3694,349.4932 1737.51,349.415 Q1737.6663,349.3369 1737.8694,349.3369 Q1738.1975,349.3369 1738.4475,349.6025 Q1738.7131,349.8525 1738.7131,350.1963 Q1738.7131,350.54 1738.3694,350.9463 Q1737.8694,351.5244 1737.0725,351.8525 Q1735.9944,352.3057 1734.6975,352.3057 Q1733.1819,352.3057 1731.9788,351.6807 Q1730.9944,351.1807 1730.3069,350.1182 Q1729.6194,349.04 1729.6194,347.7588 L1729.6194,346.6025 Q1729.6194,345.2744 1730.2288,344.1338 Q1730.8538,342.9775 1731.9475,342.3682 Q1733.0413,341.7432 1734.2756,341.7432 Q1735.01,341.7432 1735.6506,341.915 Q1736.3069,342.0713 1736.8538,342.4307 Z " fill="#000000"/><text fill="#000000" font-family="sans-serif" font-size="12" font-style="italic" lengthAdjust="spacing" textLength="51.3574" x="1775.2688" y="344.5664">&#171;service&#187;</text><text fill="#000000" font-family="Arial" font-size="12" lengthAdjust="spacing" textLength="92.7188" x="1754.5881" y="358.459">ValidationService</text><line style="stroke:#1F2937;stroke-width:0.5;" x1="1638" x2="1931.395" y1="366.002" y2="366.002"/><line style="stroke:#1F2937;stroke-width:0.5;" x1="1638" x2="1931.395" y1="374.002" y2="374.002"/><text fill="#000000" font-family="Arial" font-size="11" lengthAdjust="spacing" textLength="283.395" x="1643" y="388.3198">+approuver(UUID, ValidationRequest): DecisionResponse</text><text fill="#000000" font-family="Arial" font-size="11" lengthAdjust="spacing" textLength="265.042" x="1643" y="400.9688">+rejeter(UUID, ValidationRequest): DecisionResponse</text><text fill="#000000" font-family="Arial" font-size="11" lengthAdjust="spacing" textLength="272.9858" x="1643" y="413.6177">+modifier(UUID, ValidationRequest): DecisionResponse</text><text fill="#000000" font-family="Arial" font-size="11" lengthAdjust="spacing" textLength="265.6489" x="1643" y="426.2666">+review(UUID, ValidationRequest): DecisionResponse</text></g><!--class DecisionHashService--><g id="elem_DecisionHashService"><rect codeLine="192" fill="#FEFEFE" height="92.8394" id="DecisionHashService" rx="2.5" ry="2.5" style="stroke:#1F2937;stroke-width:0.5;" width="239.7397" x="561.5" y="633.6094"/><ellipse cx="620.0964" cy="653.0557" fill="#ADD1B2" rx="11" ry="11" style="stroke:#181818;stroke-width:1;"/><path d="M622.8621,648.9307 Q623.0183,648.7119 623.2058,648.6025 Q623.3933,648.4932 623.6121,648.4932 Q623.9871,648.4932 624.2214,648.7588 Q624.4558,649.0088 624.4558,649.6182 L624.4558,651.0713 Q624.4558,651.6807 624.2214,651.9463 Q623.9871,652.2119 623.6121,652.2119 Q623.2683,652.2119 623.0652,652.0088 Q622.8621,651.8213 622.7527,651.3057 Q622.7058,650.9463 622.5183,650.7588 Q622.1902,650.3838 621.5808,650.165 Q620.9714,649.9463 620.3464,649.9463 Q619.5808,649.9463 618.9402,650.2744 Q618.3152,650.6025 617.8152,651.3525 Q617.3308,652.1025 617.3308,653.1338 L617.3308,654.2275 Q617.3308,655.4619 618.2214,656.29 Q619.1121,657.1025 620.7058,657.1025 Q621.6433,657.1025 622.2996,656.8525 Q622.6902,656.6963 623.1121,656.2588 Q623.3777,655.9932 623.5183,655.915 Q623.6746,655.8369 623.8777,655.8369 Q624.2058,655.8369 624.4558,656.1025 Q624.7214,656.3525 624.7214,656.6963 Q624.7214,657.04 624.3777,657.4463 Q623.8777,658.0244 623.0808,658.3525 Q622.0027,658.8057 620.7058,658.8057 Q619.1902,658.8057 617.9871,658.1807 Q617.0027,657.6807 616.3152,656.6182 Q615.6277,655.54 615.6277,654.2588 L615.6277,653.1025 Q615.6277,651.7744 616.2371,650.6338 Q616.8621,649.4775 617.9558,648.8682 Q619.0496,648.2432 620.2839,648.2432 Q621.0183,648.2432 621.6589,648.415 Q622.3152,648.5713 622.8621,648.9307 Z " fill="#000000"/><text fill="#000000" font-family="sans-serif" font-size="12" font-style="italic" lengthAdjust="spacing" textLength="51.3574" x="671.9412" y="651.0664">&#171;service&#187;</text><text fill="#000000" font-family="Arial" font-size="12" lengthAdjust="spacing" textLength="114.0469" x="640.5964" y="664.959">DecisionHashService</text><line style="stroke:#1F2937;stroke-width:0.5;" x1="562.5" x2="800.2397" y1="672.502" y2="672.502"/><line style="stroke:#1F2937;stroke-width:0.5;" x1="562.5" x2="800.2397" y1="680.502" y2="680.502"/><text fill="#000000" font-family="Arial" font-size="11" lengthAdjust="spacing" textLength="213.0713" x="567.5" y="694.8198">+computeBusinessDataHash(String): String</text><text fill="#000000" font-family="Arial" font-size="11" lengthAdjust="spacing" textLength="217.3628" x="567.5" y="707.4688">+computeAgentResponsesHash(List): String</text><text fill="#000000" font-family="Arial" font-size="11" lengthAdjust="spacing" textLength="227.7397" x="567.5" y="720.1177">+refreshHashComponents(Decision, List): void</text></g><!--class AuditService--><g id="elem_AuditService"><rect codeLine="198" fill="#FEFEFE" height="92.8394" id="AuditService" rx="2.5" ry="2.5" style="stroke:#1F2937;stroke-width:0.5;" width="294.1382" x="184.5" y="333.1094"/><ellipse cx="293.6365" cy="352.5557" fill="#ADD1B2" rx="11" ry="11" style="stroke:#181818;stroke-width:1;"/><path d="M296.4021,348.4307 Q296.5583,348.2119 296.7458,348.1025 Q296.9333,347.9932 297.1521,347.9932 Q297.5271,347.9932 297.7615,348.2588 Q297.9958,348.5088 297.9958,349.1182 L297.9958,350.5713 Q297.9958,351.1807 297.7615,351.4463 Q297.5271,351.7119 297.1521,351.7119 Q296.8083,351.7119 296.6052,351.5088 Q296.4021,351.3213 296.2927,350.8057 Q296.2458,350.4463 296.0583,350.2588 Q295.7302,349.8838 295.1208,349.665 Q294.5115,349.4463 293.8865,349.4463 Q293.1208,349.4463 292.4802,349.7744 Q291.8552,350.1025 291.3552,350.8525 Q290.8708,351.6025 290.8708,352.6338 L290.8708,353.7275 Q290.8708,354.9619 291.7615,355.79 Q292.6521,356.6025 294.2458,356.6025 Q295.1833,356.6025 295.8396,356.3525 Q296.2302,356.1963 296.6521,355.7588 Q296.9177,355.4932 297.0583,355.415 Q297.2146,355.3369 297.4177,355.3369 Q297.7458,355.3369 297.9958,355.6025 Q298.2615,355.8525 298.2615,356.1963 Q298.2615,356.54 297.9177,356.9463 Q297.4177,357.5244 296.6208,357.8525 Q295.5427,358.3057 294.2458,358.3057 Q292.7302,358.3057 291.5271,357.6807 Q290.5427,357.1807 289.8552,356.1182 Q289.1677,355.04 289.1677,353.7588 L289.1677,352.6025 Q289.1677,351.2744 289.7771,350.1338 Q290.4021,348.9775 291.4958,348.3682 Q292.5896,347.7432 293.824,347.7432 Q294.5583,347.7432 295.199,347.915 Q295.8552,348.0713 296.4021,348.4307 Z " fill="#000000"/><text fill="#000000" font-family="sans-serif" font-size="12" font-style="italic" lengthAdjust="spacing" textLength="51.3574" x="322.1404" y="350.5664">&#171;service&#187;</text><text fill="#000000" font-family="Arial" font-size="12" lengthAdjust="spacing" textLength="67.3652" x="314.1365" y="364.459">AuditService</text><line style="stroke:#1F2937;stroke-width:0.5;" x1="185.5" x2="477.6382" y1="372.002" y2="372.002"/><line style="stroke:#1F2937;stroke-width:0.5;" x1="185.5" x2="477.6382" y1="380.002" y2="380.002"/><text fill="#000000" font-family="Arial" font-size="11" lengthAdjust="spacing" textLength="246.0874" x="190.5" y="394.3198">+getDecisionAudit(UUID): AuditDecisionResponse</text><text fill="#000000" font-family="Arial" font-size="11" lengthAdjust="spacing" textLength="221.6543" x="190.5" y="406.9688">+getRecentAudits(int): AuditRecentResponse</text><text fill="#000000" font-family="Arial" font-size="11" lengthAdjust="spacing" textLength="282.1382" x="190.5" y="419.6177">+getIntegritySummary(): AuditIntegritySummaryResponse</text></g><g id="elem_GMN49"><path d="M507.5,981.1094 L507.5,1056.5156 L747.7734,1056.5156 L747.7734,991.1094 L737.7734,981.1094 L507.5,981.1094 " fill="#FEFFDD" style="stroke:#181818;stroke-width:0.5;"/><path d="M737.7734,981.1094 L737.7734,991.1094 L747.7734,991.1094 L737.7734,981.1094 " fill="#FEFFDD" style="stroke:#181818;stroke-width:1;"/><text fill="#000000" font-family="sans-serif" font-size="13" lengthAdjust="spacing" textLength="219.2734" x="513.5" y="999.6045">Cr&#195;&#169;ateur trac&#195;&#169; via DecisionHistory</text><text fill="#000000" font-family="sans-serif" font-size="13" lengthAdjust="spacing" textLength="215.2935" x="513.5" y="1015.9561">(performedById / performedByEmail).</text><text fill="#000000" font-family="sans-serif" font-size="13" lengthAdjust="spacing" textLength="203.6074" x="513.5" y="1032.3076">D&#195;&#169;cision finale = ValidationAction</text><text fill="#000000" font-family="sans-serif" font-size="13" lengthAdjust="spacing" textLength="196.8979" x="513.5" y="1048.6592">+ humanDecision / validatorEmail.</text></g><g id="elem_GMN52"><path d="M771,1168.6094 L771,1211.3125 A0,0 0 0 0 771,1211.3125 L997.7783,1211.3125 A0,0 0 0 0 997.7783,1211.3125 L997.7783,1178.6094 L987.7783,1168.6094 L888.5,1168.6094 L884.5,1093.3294 L880.5,1168.6094 L771,1168.6094 A0,0 0 0 0 771,1168.6094 " fill="#FEFFDD" style="stroke:#181818;stroke-width:0.5;"/><path d="M987.7783,1168.6094 L987.7783,1178.6094 L997.7783,1178.6094 L987.7783,1168.6094 " fill="#FEFFDD" style="stroke:#181818;stroke-width:0.5;"/><text fill="#000000" font-family="sans-serif" font-size="13" lengthAdjust="spacing" textLength="159.8467" x="777" y="1187.1045">Facteurs SHAP persist&#195;&#169;s.</text><text fill="#000000" font-family="sans-serif" font-size="13" lengthAdjust="spacing" textLength="205.7783" x="777" y="1203.4561">Aucune entit&#195;&#169; SHAP s&#195;&#169;par&#195;&#169;e.</text></g><!--link Administrateur to Utilisateur--><g id="link_Administrateur_Utilisateur"><path codeLine="44" d="M965.33,93.6094 C965.33,107.5694 965.33,107.8494 965.33,125.5894 " fill="none" id="Administrateur-to-Utilisateur" style="stroke:#1F2937;stroke-width:1;"/><polygon fill="none" points="965.33,143.5894,971.33,125.5894,959.33,125.5894,965.33,143.5894" style="stroke:#1F2937;stroke-width:1;"/></g><!--link Administrateur to Utilisateur--><g id="link_Administrateur_Utilisateur"><path codeLine="152" d="M981.67,93.6094 C981.67,107.5694 981.67,119.8494 981.67,137.5894 " fill="none" id="Administrateur-to-Utilisateur-1" style="stroke:#1F2937;stroke-width:1;stroke-dasharray:7.0,7.0;"/><polygon fill="#1F2937" points="981.67,143.5894,985.67,134.5894,981.67,138.5894,977.67,134.5894,981.67,143.5894" style="stroke:#1F2937;stroke-width:1;"/><text fill="#000000" font-family="sans-serif" font-size="13" lengthAdjust="spacing" textLength="31.7891" x="982.67" y="115.0945">g&#195;&#168;re</text><text fill="#000000" font-family="sans-serif" font-size="13" lengthAdjust="spacing" textLength="7.23" x="983.1048" y="114.9473">1</text><text fill="#000000" font-family="sans-serif" font-size="13" lengthAdjust="spacing" textLength="19.5127" x="955.6837" y="132.5787">0..*</text></g><!--link Validateur to Utilisateur--><g id="link_Validateur_Utilisateur"><path codeLine="45" d="M1741.26,61.6094 C1584.34,61.6094 1054,61.6094 1054,61.6094 C1054,61.6094 1054,86.3694 1054,125.2894 " fill="none" id="Validateur-to-Utilisateur" style="stroke:#1F2937;stroke-width:1;"/><polygon fill="none" points="1054,143.2894,1060,125.2894,1048,125.2894,1054,143.2894" style="stroke:#1F2937;stroke-width:1;"/></g><!--link Auditeur to Utilisateur--><g id="link_Auditeur_Utilisateur"><path codeLine="46" d="M388.5,93.6094 C388.5,132.6494 388.5,205.6094 388.5,205.6094 C388.5,205.6094 758.81,205.6094 930.97,205.6094 " fill="none" id="Auditeur-to-Utilisateur" style="stroke:#1F2937;stroke-width:1;"/><polygon fill="none" points="948.97,205.6094,930.97,199.6094,930.97,211.6094,948.97,205.6094" style="stroke:#1F2937;stroke-width:1;"/></g><!--reverse link Utilisateur to ValidationAction--><g id="link_Utilisateur_ValidationAction"><path codeLine="150" d="M1116.1,205.6094 C1163.61,205.6094 1208.5,205.6094 1208.5,205.6094 C1208.5,205.6094 1208.5,969.6094 1208.5,969.6094 C1208.5,969.6094 1508.31,969.6094 1663.2,969.6094 " fill="none" id="Utilisateur-backto-ValidationAction" style="stroke:#1F2937;stroke-width:1;"/><polygon fill="#1F2937" points="1110.1,205.6094,1119.1,209.6094,1115.1,205.6094,1119.1,201.6094,1110.1,205.6094" style="stroke:#1F2937;stroke-width:1;"/><text fill="#000000" font-family="sans-serif" font-size="13" lengthAdjust="spacing" textLength="56.3672" x="1151.5" y="762.2545">validateur</text><text fill="#000000" font-family="sans-serif" font-size="13" lengthAdjust="spacing" textLength="7.23" x="1118.7589" y="202.3031">1</text><text fill="#000000" font-family="sans-serif" font-size="13" lengthAdjust="spacing" textLength="19.5127" x="1635.9633" y="962.4177">0..*</text></g><!--link Validateur to ValidationAction--><g id="link_Validateur_ValidationAction"><path codeLine="151" d="M1741.33,77.6094 C1688,77.6094 1604.25,77.6094 1604.25,77.6094 C1604.25,77.6094 1604.25,959.6094 1604.25,959.6094 C1604.25,959.6094 1625.81,959.6094 1657.24,959.6094 " fill="none" id="Validateur-to-ValidationAction" style="stroke:#1F2937;stroke-width:1;stroke-dasharray:7.0,7.0;"/><polygon fill="#1F2937" points="1663.24,959.6094,1654.24,955.6094,1658.24,959.6094,1654.24,963.6094,1663.24,959.6094" style="stroke:#1F2937;stroke-width:1;"/><text fill="#000000" font-family="sans-serif" font-size="13" lengthAdjust="spacing" textLength="33.9663" x="1570.25" y="476.0645">valide</text><text fill="#000000" font-family="sans-serif" font-size="13" lengthAdjust="spacing" textLength="7.23" x="1726.3253" y="75.1347">1</text><text fill="#000000" font-family="sans-serif" font-size="13" lengthAdjust="spacing" textLength="19.5127" x="1636.0066" y="951.5896">0..*</text></g><!--link Auditeur to DecisionHistory--><g id="link_Auditeur_DecisionHistory"><path codeLine="153" d="M349.93,69.6094 C270.43,69.6094 95.75,69.6094 95.75,69.6094 C95.75,69.6094 95.75,690.8494 95.75,925.4494 " fill="none" id="Auditeur-to-DecisionHistory" style="stroke:#1F2937;stroke-width:1;stroke-dasharray:7.0,7.0;"/><polygon fill="#1F2937" points="95.75,931.4494,99.75,922.4494,95.75,926.4494,91.75,922.4494,95.75,931.4494" style="stroke:#1F2937;stroke-width:1;"/><text fill="#000000" font-family="sans-serif" font-size="13" lengthAdjust="spacing" textLength="48.4199" x="46.75" y="369.9345">consulte</text><text fill="#000000" font-family="sans-serif" font-size="13" lengthAdjust="spacing" textLength="7.23" x="334.7001" y="65.5641">1</text><text fill="#000000" font-family="sans-serif" font-size="13" lengthAdjust="spacing" textLength="19.5127" x="75.1195" y="920.7608">0..*</text></g><!--reverse link Decision to ExplanationFactor--><g id="link_Decision_ExplanationFactor"><path codeLine="155" d="M461.6,880.9294 C461.6,932.5694 461.6,962.6094 461.6,962.6094 C461.6,962.6094 685.45,962.6094 807.43,962.6094 " fill="none" id="Decision-backto-ExplanationFactor" style="stroke:#1F2937;stroke-width:1;"/><polygon fill="#1F2937" points="461.6,868.9294,457.6,874.9294,461.6,880.9294,465.6,874.9294,461.6,868.9294" style="stroke:#1F2937;stroke-width:1;"/><text fill="#000000" font-family="sans-serif" font-size="13" lengthAdjust="spacing" textLength="109.8398" x="477.67" y="959.1045">explanationFactors</text><text fill="#000000" font-family="sans-serif" font-size="13" lengthAdjust="spacing" textLength="7.23" x="457.9054" y="890.1221">1</text><text fill="#000000" font-family="sans-serif" font-size="13" lengthAdjust="spacing" textLength="19.5127" x="779.925" y="953.8124">0..*</text></g><!--reverse link Decision to ReponseAgentIA--><g id="link_Decision_ReponseAgentIA"><path codeLine="156" d="M468.9,880.6694 C468.9,913.6394 468.9,925.6094 468.9,925.6094 C468.9,925.6094 843.76,925.6094 1021.31,925.6094 " fill="none" id="Decision-backto-ReponseAgentIA" style="stroke:#1F2937;stroke-width:1;"/><polygon fill="#1F2937" points="468.9,868.6694,464.9,874.6694,468.9,880.6694,472.9,874.6694,468.9,868.6694" style="stroke:#1F2937;stroke-width:1;"/><text fill="#000000" font-family="sans-serif" font-size="13" lengthAdjust="spacing" textLength="93.9517" x="622.64" y="922.1045">reponsesAgents</text><text fill="#000000" font-family="sans-serif" font-size="13" lengthAdjust="spacing" textLength="7.23" x="465.4905" y="889.852">1</text><text fill="#000000" font-family="sans-serif" font-size="13" lengthAdjust="spacing" textLength="19.5127" x="994.0055" y="914.7638">0..*</text></g><!--reverse link Decision to DecisionSource--><g id="link_Decision_DecisionSource"><path codeLine="157" d="M355.5,880.6594 C355.5,904.7994 355.5,916.3994 355.5,937.4794 " fill="none" id="Decision-backto-DecisionSource" style="stroke:#1F2937;stroke-width:1;"/><polygon fill="#1F2937" points="355.5,868.6594,351.5,874.6594,355.5,880.6594,359.5,874.6594,355.5,868.6594" style="stroke:#1F2937;stroke-width:1;"/><text fill="#000000" font-family="sans-serif" font-size="13" lengthAdjust="spacing" textLength="45.519" x="309.5" y="899.5645">sources</text><text fill="#000000" font-family="sans-serif" font-size="13" lengthAdjust="spacing" textLength="7.23" x="347.6609" y="889.8416">1</text><text fill="#000000" font-family="sans-serif" font-size="13" lengthAdjust="spacing" textLength="19.5127" x="335.6248" y="926.7814">0..*</text></g><!--reverse link Decision to DecisionHistory--><g id="link_Decision_DecisionHistory"><path codeLine="158" d="M251.29,680.6094 C215.82,680.6094 197.5,680.6094 197.5,680.6094 C197.5,680.6094 197.5,831.4194 197.5,931.5694 " fill="none" id="Decision-backto-DecisionHistory" style="stroke:#1F2937;stroke-width:1;"/><polygon fill="#1F2937" points="263.29,680.6094,257.29,676.6094,251.29,680.6094,257.29,684.6094,263.29,680.6094" style="stroke:#1F2937;stroke-width:1;"/><text fill="#000000" font-family="sans-serif" font-size="13" lengthAdjust="spacing" textLength="78.749" x="118.5" y="769.6945">historyEntries</text><text fill="#000000" font-family="sans-serif" font-size="13" lengthAdjust="spacing" textLength="7.23" x="248.296" y="677.594">1</text><text fill="#000000" font-family="sans-serif" font-size="13" lengthAdjust="spacing" textLength="19.5127" x="185.6136" y="920.8911">0..*</text></g><!--reverse link Decision to ValidationAction--><g id="link_Decision_ValidationAction"><path codeLine="159" d="M489.69,797.6094 C811.85,797.6094 1723.5,797.6094 1723.5,797.6094 C1723.5,797.6094 1723.5,885.0194 1723.5,949.8994 " fill="none" id="Decision-backto-ValidationAction" style="stroke:#1F2937;stroke-width:1;"/><polygon fill="#1F2937" points="483.69,797.6094,492.69,801.6094,488.69,797.6094,492.69,793.6094,483.69,797.6094" style="stroke:#1F2937;stroke-width:1;"/><text fill="#000000" font-family="sans-serif" font-size="13" lengthAdjust="spacing" textLength="47.6963" x="1131.74" y="794.1045">decision</text><text fill="#000000" font-family="sans-serif" font-size="13" lengthAdjust="spacing" textLength="7.23" x="491.6851" y="802.8206">1</text><text fill="#000000" font-family="sans-serif" font-size="13" lengthAdjust="spacing" textLength="19.5127" x="1700.2167" y="939.0486">0..*</text></g><!--reverse link Decision to Decision--><g id="link_Decision_Decision"><path codeLine="160" d="M406.83,485.5194 C406.83,470.2894 406.83,466.6094 406.83,466.6094 C406.83,466.6094 495.5,466.6094 495.5,466.6094 C495.5,466.6094 495.5,893.6094 495.5,893.6094 C495.5,893.6094 476.2,893.6094 476.2,893.6094 C476.2,893.6094 476.2,883.9294 476.2,868.6994 " fill="none" id="Decision-backto-Decision" style="stroke:#1F2937;stroke-width:1;"/><polygon fill="#1F2937" points="406.83,491.5194,410.83,482.5194,406.83,486.5194,402.83,482.5194,406.83,491.5194" style="stroke:#1F2937;stroke-width:1;"/><text fill="#000000" font-family="sans-serif" font-size="13" lengthAdjust="spacing" textLength="114.188" x="501.5" y="636.9245">decisionPrecedente</text><text fill="#000000" font-family="sans-serif" font-size="13" lengthAdjust="spacing" textLength="21.6836" x="386.8035" y="480.731">0..1</text><text fill="#000000" font-family="sans-serif" font-size="13" lengthAdjust="spacing" textLength="19.5127" x="480.589" y="889.8832">0..*</text></g><!--reverse link SystemeIA to Decision--><g id="link_SystemeIA_Decision"><path codeLine="161" d="M550.25,447.9494 C550.25,488.3894 550.25,527.6094 550.25,527.6094 C550.25,527.6094 519.52,527.6094 483.68,527.6094 " fill="none" id="SystemeIA-backto-Decision" style="stroke:#1F2937;stroke-width:1;"/><polygon fill="#1F2937" points="550.25,441.9494,546.25,450.9494,550.25,446.9494,554.25,450.9494,550.25,441.9494" style="stroke:#1F2937;stroke-width:1;"/><text fill="#000000" font-family="sans-serif" font-size="13" lengthAdjust="spacing" textLength="59.2427" x="551.25" y="514.5545">systemeIa</text><text fill="#000000" font-family="sans-serif" font-size="13" lengthAdjust="spacing" textLength="21.6836" x="522.5439" y="463.163">0..1</text><text fill="#000000" font-family="sans-serif" font-size="13" lengthAdjust="spacing" textLength="19.5127" x="491.7317" y="514.337">0..*</text></g><!--link DecisionService to Decision--><g id="link_DecisionService_Decision"><path codeLine="204" d="M793.5,426.2594 C793.5,480.4794 793.5,562.6094 793.5,562.6094 C793.5,562.6094 614.02,562.6094 489.58,562.6094 " fill="none" id="DecisionService-to-Decision" style="stroke:#1F2937;stroke-width:1;stroke-dasharray:7.0,7.0;"/><polygon fill="#1F2937" points="483.58,562.6094,492.58,566.6094,488.58,562.6094,492.58,558.6094,483.58,562.6094" style="stroke:#1F2937;stroke-width:1;"/><text fill="#000000" font-family="sans-serif" font-size="13" lengthAdjust="spacing" textLength="33.2363" x="672.71" y="559.1045">utilise</text></g><!--link DecisionService to MLDecisionService--><g id="link_DecisionService_MLDecisionService"><path codeLine="205" d="M979.5,426.2294 C979.5,484.7594 979.5,578.1694 979.5,633.6394 " fill="none" id="DecisionService-to-MLDecisionService" style="stroke:#1F2937;stroke-width:1;stroke-dasharray:7.0,7.0;"/><polygon fill="#1F2937" points="979.5,639.6394,983.5,630.6394,979.5,634.6394,975.5,630.6394,979.5,639.6394" style="stroke:#1F2937;stroke-width:1;"/><text fill="#000000" font-family="sans-serif" font-size="13" lengthAdjust="spacing" textLength="33.2363" x="945.5" y="529.4345">utilise</text></g><!--link DecisionService to GroqMultiAgentService--><g id="link_DecisionService_GroqMultiAgentService"><path codeLine="206" d="M1097.71,379.6094 C1227.63,379.6094 1392.5,379.6094 1392.5,379.6094 C1392.5,379.6094 1392.5,552.0094 1392.5,633.8994 " fill="none" id="DecisionService-to-GroqMultiAgentService" style="stroke:#1F2937;stroke-width:1;stroke-dasharray:7.0,7.0;"/><polygon fill="#1F2937" points="1392.5,639.8994,1396.5,630.8994,1392.5,634.8994,1388.5,630.8994,1392.5,639.8994" style="stroke:#1F2937;stroke-width:1;"/><text fill="#000000" font-family="sans-serif" font-size="13" lengthAdjust="spacing" textLength="33.2363" x="1341.25" y="376.1045">utilise</text></g><!--link DecisionService to DecisionHashService--><g id="link_DecisionService_DecisionHashService"><path codeLine="207" d="M797.5,426.2294 C797.5,482.6094 797.5,570.9494 797.5,627.3794 " fill="none" id="DecisionService-to-DecisionHashService" style="stroke:#1F2937;stroke-width:1;stroke-dasharray:7.0,7.0;"/><polygon fill="#1F2937" points="797.5,633.3794,801.5,624.3794,797.5,628.3794,793.5,624.3794,797.5,633.3794" style="stroke:#1F2937;stroke-width:1;"/><text fill="#000000" font-family="sans-serif" font-size="13" lengthAdjust="spacing" textLength="33.2363" x="763.5" y="526.3045">utilise</text></g><!--link GroqMultiAgentService to ConsensusService--><g id="link_GroqMultiAgentService_ConsensusService"><path codeLine="208" d="M1409.5,720.2694 C1409.5,785.4194 1409.5,907.3894 1409.5,972.4994 " fill="none" id="GroqMultiAgentService-to-ConsensusService" style="stroke:#1F2937;stroke-width:1;stroke-dasharray:7.0,7.0;"/><polygon fill="#1F2937" points="1409.5,978.4994,1413.5,969.4994,1409.5,973.4994,1405.5,969.4994,1409.5,978.4994" style="stroke:#1F2937;stroke-width:1;"/><text fill="#000000" font-family="sans-serif" font-size="13" lengthAdjust="spacing" textLength="33.2363" x="1375.5" y="845.8845">utilise</text></g><!--link GroqMultiAgentService to ReponseAgentIA--><g id="link_GroqMultiAgentService_ReponseAgentIA"><path codeLine="209" d="M1238.5,720.1594 C1238.5,791.8294 1238.5,934.6094 1238.5,934.6094 C1238.5,934.6094 1229.44,934.6094 1209.74,934.6094 " fill="none" id="GroqMultiAgentService-to-ReponseAgentIA" style="stroke:#1F2937;stroke-width:1;stroke-dasharray:7.0,7.0;"/><polygon fill="#1F2937" points="1203.74,934.6094,1212.74,938.6094,1208.74,934.6094,1212.74,930.6094,1203.74,934.6094" style="stroke:#1F2937;stroke-width:1;"/><text fill="#000000" font-family="sans-serif" font-size="13" lengthAdjust="spacing" textLength="39.749" x="1198.5" y="841.2545">produit</text></g><!--link MLDecisionService to ExplanationFactor--><g id="link_MLDecisionService_ExplanationFactor"><path codeLine="210" d="M911.5,720.2694 C911.5,775.2594 911.5,869.0094 911.5,937.9394 " fill="none" id="MLDecisionService-to-ExplanationFactor" style="stroke:#1F2937;stroke-width:1;stroke-dasharray:7.0,7.0;"/><polygon fill="#1F2937" points="911.5,943.9394,915.5,934.9394,911.5,938.9394,907.5,934.9394,911.5,943.9394" style="stroke:#1F2937;stroke-width:1;"/><text fill="#000000" font-family="sans-serif" font-size="13" lengthAdjust="spacing" textLength="49.1372" x="861.5" y="828.5945">alimente</text></g><!--link ValidationService to ValidationAction--><g id="link_ValidationService_ValidationAction"><path codeLine="211" d="M1783.5,432.1694 C1783.5,547.2594 1783.5,815.4994 1783.5,943.9794 " fill="none" id="ValidationService-to-ValidationAction" style="stroke:#1F2937;stroke-width:1;stroke-dasharray:7.0,7.0;"/><polygon fill="#1F2937" points="1783.5,949.9794,1787.5,940.9794,1783.5,944.9794,1779.5,940.9794,1783.5,949.9794" style="stroke:#1F2937;stroke-width:1;"/><text fill="#000000" font-family="sans-serif" font-size="13" lengthAdjust="spacing" textLength="39.749" x="1743.5" y="687.5745">produit</text></g><!--link ValidationService to Decision--><g id="link_ValidationService_Decision"><path codeLine="212" d="M1650.25,432.3394 C1650.25,497.1494 1650.25,598.6094 1650.25,598.6094 C1650.25,598.6094 799.66,598.6094 489.74,598.6094 " fill="none" id="ValidationService-to-Decision" style="stroke:#1F2937;stroke-width:1;stroke-dasharray:7.0,7.0;"/><polygon fill="#1F2937" points="483.74,598.6094,492.74,602.6094,488.74,598.6094,492.74,594.6094,483.74,598.6094" style="stroke:#1F2937;stroke-width:1;"/><text fill="#000000" font-family="sans-serif" font-size="13" lengthAdjust="spacing" textLength="62.8545" x="1087.13" y="595.1045">met &#195;&#160; jour</text></g><!--link AuditService to DecisionHistory--><g id="link_AuditService_DecisionHistory"><path codeLine="213" d="M191,426.3394 C191,532.7194 191,788.3394 191,925.4994 " fill="none" id="AuditService-to-DecisionHistory" style="stroke:#1F2937;stroke-width:1;stroke-dasharray:7.0,7.0;"/><polygon fill="#1F2937" points="191,931.4994,195,922.4994,191,926.4994,187,922.4994,191,931.4994" style="stroke:#1F2937;stroke-width:1;"/><text fill="#000000" font-family="sans-serif" font-size="13" lengthAdjust="spacing" textLength="46.249" x="144" y="675.4145">agr&#195;&#168;ge</text></g><!--link AuditService to Decision--><g id="link_AuditService_Decision"><path codeLine="214" d="M335.17,426.2294 C335.17,444.7794 335.17,461.4294 335.17,485.4894 " fill="none" id="AuditService-to-Decision" style="stroke:#1F2937;stroke-width:1;stroke-dasharray:7.0,7.0;"/><polygon fill="#1F2937" points="335.17,491.4894,339.17,482.4894,335.17,486.4894,331.17,482.4894,335.17,491.4894" style="stroke:#1F2937;stroke-width:1;"/><text fill="#000000" font-family="sans-serif" font-size="13" lengthAdjust="spacing" textLength="91.2285" x="243.17" y="455.3545">v&#195;&#169;rifie hashes</text></g><!--link Administrateur to AuditService--><g id="link_Administrateur_AuditService"><path codeLine="215" d="M888.63,69.6094 C760.57,69.6094 452.75,69.6094 452.75,69.6094 C452.75,69.6094 452.75,240.2594 452.75,326.8594 " fill="none" id="Administrateur-to-AuditService" style="stroke:#1F2937;stroke-width:1;stroke-dasharray:7.0,7.0;"/><polygon fill="#1F2937" points="452.75,332.8594,456.75,323.8594,452.75,327.8594,448.75,323.8594,452.75,332.8594" style="stroke:#1F2937;stroke-width:1;"/><text fill="#000000" font-family="sans-serif" font-size="13" lengthAdjust="spacing" textLength="33.2363" x="505.06" y="66.1045">utilise</text></g><!--link Administrateur to DecisionService--><g id="link_Administrateur_DecisionService"><path codeLine="216" d="M919,93.6794 C919,145.0294 919,260.1194 919,327.0694 " fill="none" id="Administrateur-to-DecisionService" style="stroke:#1F2937;stroke-width:1;stroke-dasharray:7.0,7.0;"/><polygon fill="#1F2937" points="919,333.0694,923,324.0694,919,328.0694,915,324.0694,919,333.0694" style="stroke:#1F2937;stroke-width:1;"/><text fill="#000000" font-family="sans-serif" font-size="13" lengthAdjust="spacing" textLength="33.2363" x="885" y="209.8645">utilise</text></g><!--link Validateur to ValidationService--><g id="link_Validateur_ValidationService"><path codeLine="217" d="M1784.5,93.6794 C1784.5,143.5394 1784.5,253.1294 1784.5,321.0894 " fill="none" id="Validateur-to-ValidationService" style="stroke:#1F2937;stroke-width:1;stroke-dasharray:7.0,7.0;"/><polygon fill="#1F2937" points="1784.5,327.0894,1788.5,318.0894,1784.5,322.0894,1780.5,318.0894,1784.5,327.0894" style="stroke:#1F2937;stroke-width:1;"/><text fill="#000000" font-family="sans-serif" font-size="13" lengthAdjust="spacing" textLength="33.2363" x="1750.5" y="206.8845">utilise</text></g><!--link Utilisateur to DecisionService--><g id="link_Utilisateur_DecisionService"><path codeLine="218" d="M1023.25,267.9394 C1023.25,289.3894 1023.25,307.0294 1023.25,327.0094 " fill="none" id="Utilisateur-to-DecisionService" style="stroke:#1F2937;stroke-width:1;stroke-dasharray:7.0,7.0;"/><polygon fill="#1F2937" points="1023.25,333.0094,1027.25,324.0094,1023.25,328.0094,1019.25,324.0094,1023.25,333.0094" style="stroke:#1F2937;stroke-width:1;"/><text fill="#000000" font-family="sans-serif" font-size="13" lengthAdjust="spacing" textLength="33.2363" x="989.25" y="296.9645">utilise</text></g><!--link Decision to GMN49--><g id="link_Decision_GMN49"><path d="M454.3,868.6594 C454.3,946.3894 454.3,1018.6094 454.3,1018.6094 C454.3,1018.6094 477.65,1018.6094 507.21,1018.6094 " fill="none" id="Decision-GMN49" style="stroke:#1F2937;stroke-width:1;stroke-dasharray:7.0,7.0;"/></g><!--SRC=[dHZRRjiszDrVGMGFSxh6QzfTMYCDeCJ9aYqPWhZjEoqTssmaKYKff-usODY-Oy2mbtN0lcBzatx93ab99YdRMPOYZNHkFFTpA7N3U4abBOYQqqpSCZuZKvehwAaMa-PKgKHhoIQLXlDKy35x1-IHHv8p3dfP0X5IpuM7u2831INvogUMbDyOu9UFUl4nv8SU8KSqlPb9KV7iMEH2aazEJym_Wn4o0rb3zqyVFtloDK8JASLj33mLN7zF2q0iexcXQYpOZh6sxU_N4jpRuzvFlgObwaTdi47NfwV9wN6iwxClaYT7JnkXUfa3cOWyCt8rq_WsOdI6ib6h39mhG94FVtpyvU-FF_z6NaZwuTT__gGJbZEDJt-HywJN-vGyRt_8IuquHJLKKf7-t119fesQgJ1YyOn2P0X-dzipfA6OMZBWAUnwidek59v4Q-fdB1kIbo_FH-QPYs98nkWtFZElK52M-u12w15S6JFEg9hx62bo699h_F-4LuM1P7Z6iGIgcU13SY5IceyGz88LO1paj4coWd6cj6mKQZ6lQCwo3ZIfChQ2HTnxUpyU-lRrF1aTN2kfWmaZC1Be18xEDKvDcK9hkauTGOsn7itgjtFFinhDLfeMPUmAn9LI5ANslOdLgE6jXj3t6UGcmpl0Lo2LTR8N3YW5Lm4fdguhNRka9ZUGHlScRbCCMIL1VQj2aQgQpT04o1g6IE4foqpAZLCXyToHg2QvjKuoTNC12mWI2KsUkBndtPFmyAg0OsC0LvMApd70c0VUbZdbrh2ng6GAuMcmOA9ISTAcbSGoqJ5uKYcCk58O8nhZb1NUaOGLoVKrAElr3dPU5PIlSzl2HKF8awZIzlQiVZHFgnoaaTVV3JIVcwIKoGBIAmafeEjrlpa1AHU2PJKTdu5qaUvt0zwGjWLsilBZAKrHCvVIK_li9pIFCX5DgS9yczFobGEkae4Ls6Q3L3TZOqZECTzHpoRtRUD65Qu0dSsrBq65qMqLltOPdvX0d2TEQ-d3FDrjjBw3PQUI3D4T5OUPky1CbpwiAVWhAKgX03gLGR4mqEqvbH2uWxC5qEgQgJUXxrm5nFdDqhPmmw9kIjdtGLFE6njFt6bHSfBgjeaj8cZGp70fSD0XUT4-DoSwdP85vNfJZwb9i2xL9fB6fsULxR-XIt7qSKsP3C1tMzgSuJg4izFbas-TWnYxXX67WQtBVTo6KidAE3YLp3jDlTjjKZCZ8JjQ-ZgqmBWnD9X4tsdb6Kv68PVEpBbx2QgWZc14xuBfjqqRe8s1ud2xdQ04EHMoY4tqm5qZNOI30bWWm7JakFFZl96GqoP7x-EfyHBdMG5Dkr3rAptVl19DCH5mvL2uA7HQHTWFtL2-x22CswT3N2HnLwBSA1Fi6zUrBRZk5LMkcIbxjnsgO9lpzxYT_HroiBT7TXuD1WzskWMDJRxTXFoboF0D1eTtyK6yQ4LylYf3CZFRg8JLWXLHn-av96QeewdGwxLxbE5viBAeEvM616AOsiWUpOOXgGU3if3DV56_699w-j_9iBAjhhiJCzDYnkqXQngWnuEq8LkBMf6twm3qLkczbRDD-oWJno0N3AqbVMMlDgLW72ETsvjALjttuj4wquab1mVAFHqUklB3OEPBXE6b0JEdx_wSrjleDU28L7ftrQwQRSkmYWbsLYRxfcWtaA1RvhXDu6z_C1XuH5Uu3RI4RMkulBXJtz8ec6vMzFBYob54cZ1rUL4BnI79SehBWDdk9gkEu7JuHeetbwO7s3JTxhTtqEZhShfT1X_MhQVvYmSPkObrDbD7UCUjztJGsFpzFTQJ4LOGoWW1AvtRhNsZkjZRIxoLzo-mCWv2COSek1NWksnIiJmRtx2oXAmbwBS6TNdMB3UR_LVYJbTXlxRfyz1ZsPvq4bw3lZSNLWsRilzns8B1xNsOkli0BXvtHUKeklgiV1mCPqEQTAuyDgIxuHuxnPAO6-GnSWaUfMRD45v1xE3OgEWCsWN34ZOrRr_MUGuPhi7S8Yo5wcCJQyWTF2AsLn79z79S5GMLotv37IDyJyVDmimxhyLMTaB2Mh9kfzbElxuhRETPbm8hZlKI3L-dclyBKsVQOdbb5TEzhgM6VDrin_mkx0ZhbgzXMJCjcpFMCtYXA40J75E_azUY-GgqrbFj1ASpCzlUps0piLcKtASvh6moHoVZg8zs9aCV25YvSWtbvfJmrhVG5LrIVo_RBhJ7XJRVBhKM1H7JbX9BujXETYS4DKpjz5ym6diAIVl1fay-9_6Alpj0gf7t8MtAS0m1UTw9gAb54dmsGN7Xrv913tX6ZE8TzJifPJxHueFzYZe-IwwCPZZyt5fjb4ggjE90CEVgBx6MIfd7abeFW7VUlm00]--></g></svg>