<svg xmlns="http://www.w3.org/2000/svg" xmlns:xlink="http://www.w3.org/1999/xlink" contentStyleType="text/css" height="2030px" preserveAspectRatio="none" style="width:820px;height:2030px;background:#FFFFFF;" version="1.1" viewBox="0 0 820 2030" width="820px" zoomAndPan="magnify"><title>S&#195;&#169;quence &#226;&#8364;&#8221; Validation humaine d'une d&#195;&#169;cision</title><defs/><g><text fill="#000000" font-family="sans-serif" font-size="14" font-weight="bold" lengthAdjust="spacing" textLength="351.4629" x="235.6514" y="29.5332">S&#195;&#169;quence &#226;&#8364;&#8221; Validation humaine d'une d&#195;&#169;cision</text><rect fill="#FFFFFF" height="167.1094" style="stroke:#181818;stroke-width:1;" width="10" x="517.7437" y="200.2734"/><rect fill="#FFFFFF" height="183.4609" style="stroke:#181818;stroke-width:1;" width="10" x="517.7437" y="474.7891"/><rect fill="#FFFFFF" height="30.3516" style="stroke:#181818;stroke-width:1;" width="10" x="757.6348" y="306.6797"/><rect fill="#FFFFFF" height="30.3516" style="stroke:#181818;stroke-width:1;" width="10" x="757.6348" y="581.1953"/><rect fill="#FFFFFF" height="30.3516" style="stroke:#181818;stroke-width:1;" width="10" x="757.6348" y="1108.3828"/><rect fill="#FFFFFF" height="30.3516" style="stroke:#181818;stroke-width:1;" width="10" x="757.6348" y="1482.7891"/><rect fill="#FFFFFF" height="30.3516" style="stroke:#181818;stroke-width:1;" width="10" x="757.6348" y="1576.1953"/><rect fill="#FFFFFF" height="30.3516" style="stroke:#181818;stroke-width:1;" width="10" x="757.6348" y="1669.6016"/><rect fill="#FFFFFF" height="30.3516" style="stroke:#181818;stroke-width:1;" width="10" x="757.6348" y="1746.6563"/><rect fill="none" height="252.6719" style="stroke:#000000;stroke-width:1.5;" width="394.647" x="210.8618" y="766.6563"/><rect fill="none" height="708.3281" style="stroke:#000000;stroke-width:1.5;" width="803.7656" x="10" y="1153.7344"/><line style="stroke:#181818;stroke-width:0.5;stroke-dasharray:5.0,5.0;" x1="54" x2="54" y1="121.2188" y2="1948.1172"/><line style="stroke:#181818;stroke-width:0.5;stroke-dasharray:5.0,5.0;" x1="281.8618" x2="281.8618" y1="121.2188" y2="1948.1172"/><line style="stroke:#181818;stroke-width:0.5;stroke-dasharray:5.0,5.0;" x1="521.9785" x2="521.9785" y1="121.2188" y2="1948.1172"/><line style="stroke:#181818;stroke-width:0.5;stroke-dasharray:5.0,5.0;" x1="762.5039" x2="762.5039" y1="121.2188" y2="1948.1172"/><text fill="#000000" font-family="sans-serif" font-size="14" lengthAdjust="spacing" textLength="63.041" x="20" y="118.1426">Validateur</text><ellipse cx="54.5205" cy="52.1094" fill="#E2E2F0" rx="8" ry="8" style="stroke:#181818;stroke-width:0.5;"/><path d="M54.5205,60.1094 L54.5205,87.1094 M41.5205,68.1094 L67.5205,68.1094 M54.5205,87.1094 L41.5205,102.1094 M54.5205,87.1094 L67.5205,102.1094 " fill="none" style="stroke:#181818;stroke-width:0.5;"/><text fill="#000000" font-family="sans-serif" font-size="14" lengthAdjust="spacing" textLength="63.041" x="20" y="1961.6504">Validateur</text><ellipse cx="54.5205" cy="1973.2266" fill="#E2E2F0" rx="8" ry="8" style="stroke:#181818;stroke-width:0.5;"/><path d="M54.5205,1981.2266 L54.5205,2008.2266 M41.5205,1989.2266 L67.5205,1989.2266 M54.5205,2008.2266 L41.5205,2023.2266 M54.5205,2008.2266 L67.5205,2023.2266 " fill="none" style="stroke:#181818;stroke-width:0.5;"/><rect fill="#E2E2F0" height="31.6094" rx="2.5" ry="2.5" style="stroke:#181818;stroke-width:0.5;" width="122.1787" x="220.8618" y="88.6094"/><text fill="#000000" font-family="sans-serif" font-size="14" lengthAdjust="spacing" textLength="108.1787" x="227.8618" y="110.1426">Frontend Angular</text><rect fill="#E2E2F0" height="31.6094" rx="2.5" ry="2.5" style="stroke:#181818;stroke-width:0.5;" width="122.1787" x="220.8618" y="1947.1172"/><text fill="#000000" font-family="sans-serif" font-size="14" lengthAdjust="spacing" textLength="108.1787" x="227.8618" y="1968.6504">Frontend Angular</text><rect fill="#E2E2F0" height="31.6094" rx="2.5" ry="2.5" style="stroke:#181818;stroke-width:0.5;" width="145.5303" x="449.9785" y="88.6094"/><text fill="#000000" font-family="sans-serif" font-size="14" lengthAdjust="spacing" textLength="131.5303" x="456.9785" y="110.1426">Backend Spring Boot</text><rect fill="#E2E2F0" height="31.6094" rx="2.5" ry="2.5" style="stroke:#181818;stroke-width:0.5;" width="145.5303" x="449.9785" y="1947.1172"/><text fill="#000000" font-family="sans-serif" font-size="14" lengthAdjust="spacing" textLength="131.5303" x="456.9785" y="1968.6504">Backend Spring Boot</text><text fill="#000000" font-family="sans-serif" font-size="14" lengthAdjust="spacing" textLength="76.2617" x="721.5039" y="118.1426">PostgreSQL</text><path d="M744.6348,67.6094 C744.6348,57.6094 762.6348,57.6094 762.6348,57.6094 C762.6348,57.6094 780.6348,57.6094 780.6348,67.6094 L780.6348,93.6094 C780.6348,103.6094 762.6348,103.6094 762.6348,103.6094 C762.6348,103.6094 744.6348,103.6094 744.6348,93.6094 L744.6348,67.6094 " fill="#E2E2F0" style="stroke:#181818;stroke-width:1.5;"/><path d="M744.6348,67.6094 C744.6348,77.6094 762.6348,77.6094 762.6348,77.6094 C762.6348,77.6094 780.6348,77.6094 780.6348,67.6094 " fill="none" style="stroke:#181818;stroke-width:1.5;"/><text fill="#000000" font-family="sans-serif" font-size="14" lengthAdjust="spacing" textLength="76.2617" x="721.5039" y="1961.6504">PostgreSQL</text><path d="M744.6348,1974.7266 C744.6348,1964.7266 762.6348,1964.7266 762.6348,1964.7266 C762.6348,1964.7266 780.6348,1964.7266 780.6348,1974.7266 L780.6348,2000.7266 C780.6348,2010.7266 762.6348,2010.7266 762.6348,2010.7266 C762.6348,2010.7266 744.6348,2010.7266 744.6348,2000.7266 L744.6348,1974.7266 " fill="#E2E2F0" style="stroke:#181818;stroke-width:1.5;"/><path d="M744.6348,1974.7266 C744.6348,1984.7266 762.6348,1984.7266 762.6348,1984.7266 C762.6348,1984.7266 780.6348,1984.7266 780.6348,1974.7266 " fill="none" style="stroke:#181818;stroke-width:1.5;"/><rect fill="#FFFFFF" height="167.1094" style="stroke:#181818;stroke-width:1;" width="10" x="517.7437" y="200.2734"/><rect fill="#FFFFFF" height="183.4609" style="stroke:#181818;stroke-width:1;" width="10" x="517.7437" y="474.7891"/><rect fill="#FFFFFF" height="30.3516" style="stroke:#181818;stroke-width:1;" width="10" x="757.6348" y="306.6797"/><rect fill="#FFFFFF" height="30.3516" style="stroke:#181818;stroke-width:1;" width="10" x="757.6348" y="581.1953"/><rect fill="#FFFFFF" height="30.3516" style="stroke:#181818;stroke-width:1;" width="10" x="757.6348" y="1108.3828"/><rect fill="#FFFFFF" height="30.3516" style="stroke:#181818;stroke-width:1;" width="10" x="757.6348" y="1482.7891"/><rect fill="#FFFFFF" height="30.3516" style="stroke:#181818;stroke-width:1;" width="10" x="757.6348" y="1576.1953"/><rect fill="#FFFFFF" height="30.3516" style="stroke:#181818;stroke-width:1;" width="10" x="757.6348" y="1669.6016"/><rect fill="#FFFFFF" height="30.3516" style="stroke:#181818;stroke-width:1;" width="10" x="757.6348" y="1746.6563"/><polygon fill="#181818" points="269.9512,149.5703,279.9512,153.5703,269.9512,157.5703,273.9512,153.5703" style="stroke:#181818;stroke-width:1;"/><line style="stroke:#181818;stroke-width:1;" x1="54.5205" x2="275.9512" y1="153.5703" y2="153.5703"/><text fill="#000000" font-family="sans-serif" font-size="13" font-weight="bold" lengthAdjust="spacing" textLength="7.23" x="89.6418" y="148.7139">1</text><text fill="#000000" font-family="sans-serif" font-size="13" lengthAdjust="spacing" textLength="145.958" x="100.8718" y="148.7139">Ouvrir la file de validation</text><polygon fill="#181818" points="505.7437,196.2734,515.7437,200.2734,505.7437,204.2734,509.7437,200.2734" style="stroke:#181818;stroke-width:1;"/><line style="stroke:#181818;stroke-width:1;" x1="281.9512" x2="511.7437" y1="200.2734" y2="200.2734"/><text fill="#000000" font-family="sans-serif" font-size="13" font-weight="bold" lengthAdjust="spacing" textLength="7.23" x="314.3757" y="187.2412">2</text><text fill="#000000" font-family="sans-serif" font-size="13" lengthAdjust="spacing" textLength="159.7134" x="325.6057" y="179.0654">GET /api/validation/pending</text><text fill="#000000" font-family="sans-serif" font-size="13" lengthAdjust="spacing" textLength="35.3691" x="387.7778" y="195.417">(JWT)</text><line style="stroke:#181818;stroke-width:1;" x1="527.7437" x2="569.7437" y1="246.9766" y2="246.9766"/><line style="stroke:#181818;stroke-width:1;" x1="569.7437" x2="569.7437" y1="246.9766" y2="259.9766"/><line style="stroke:#181818;stroke-width:1;" x1="528.7437" x2="569.7437" y1="259.9766" y2="259.9766"/><polygon fill="#181818" points="538.7437,255.9766,528.7437,259.9766,538.7437,263.9766,534.7437,259.9766" style="stroke:#181818;stroke-width:1;"/><text fill="#000000" font-family="sans-serif" font-size="13" font-weight="bold" lengthAdjust="spacing" textLength="7.23" x="534.7437" y="233.9443">3</text><text fill="#000000" font-family="sans-serif" font-size="13" lengthAdjust="spacing" textLength="83.2559" x="571.8784" y="225.7686">V&#195;&#169;rifier r&#195;&#180;le</text><text fill="#000000" font-family="sans-serif" font-size="13" lengthAdjust="spacing" textLength="135.0654" x="545.9736" y="242.1201">(VALIDATOR / ADMIN)</text><polygon fill="#181818" points="745.6348,302.6797,755.6348,306.6797,745.6348,310.6797,749.6348,306.6797" style="stroke:#181818;stroke-width:1;"/><line style="stroke:#181818;stroke-width:1;" x1="527.7437" x2="751.6348" y1="306.6797" y2="306.6797"/><text fill="#000000" font-family="sans-serif" font-size="13" font-weight="bold" lengthAdjust="spacing" textLength="7.23" x="545.5125" y="293.6475">4</text><text fill="#000000" font-family="sans-serif" font-size="13" lengthAdjust="spacing" textLength="104.0381" x="596.2852" y="285.4717">SELECT Decision</text><text fill="#000000" font-family="sans-serif" font-size="13" lengthAdjust="spacing" textLength="183.1235" x="556.7424" y="301.8232">WHERE statut = EN_ATTENTE</text><polygon fill="#181818" points="538.7437,333.0313,528.7437,337.0313,538.7437,341.0313,534.7437,337.0313" style="stroke:#181818;stroke-width:1;"/><line style="stroke:#181818;stroke-width:1;stroke-dasharray:2.0,2.0;" x1="532.7437" x2="761.6348" y1="337.0313" y2="337.0313"/><text fill="#000000" font-family="sans-serif" font-size="13" font-weight="bold" lengthAdjust="spacing" textLength="7.23" x="579.1445" y="332.1748">5</text><text fill="#000000" font-family="sans-serif" font-size="13" lengthAdjust="spacing" textLength="120.8594" x="590.3745" y="332.1748">Liste des d&#195;&#169;cisions</text><polygon fill="#181818" points="292.9512,363.3828,282.9512,367.3828,292.9512,371.3828,288.9512,367.3828" style="stroke:#181818;stroke-width:1;"/><line style="stroke:#181818;stroke-width:1;stroke-dasharray:2.0,2.0;" x1="286.9512" x2="521.7437" y1="367.3828" y2="367.3828"/><text fill="#000000" font-family="sans-serif" font-size="13" font-weight="bold" lengthAdjust="spacing" textLength="7.23" x="327.3557" y="362.5264">6</text><text fill="#000000" font-family="sans-serif" font-size="13" lengthAdjust="spacing" textLength="138.7534" x="338.5857" y="362.5264">DecisionPageResponse</text><polygon fill="#181818" points="65.5205,393.7344,55.5205,397.7344,65.5205,401.7344,61.5205,397.7344" style="stroke:#181818;stroke-width:1;"/><line style="stroke:#181818;stroke-width:1;stroke-dasharray:2.0,2.0;" x1="59.5205" x2="280.9512" y1="397.7344" y2="397.7344"/><text fill="#000000" font-family="sans-serif" font-size="13" font-weight="bold" lengthAdjust="spacing" textLength="7.23" x="79.5427" y="392.8779">7</text><text fill="#000000" font-family="sans-serif" font-size="13" lengthAdjust="spacing" textLength="166.1563" x="90.7727" y="392.8779">Afficher la file EN_ATTENTE</text><polygon fill="#181818" points="269.9512,424.0859,279.9512,428.0859,269.9512,432.0859,273.9512,428.0859" style="stroke:#181818;stroke-width:1;"/><line style="stroke:#181818;stroke-width:1;" x1="54.5205" x2="275.9512" y1="428.0859" y2="428.0859"/><text fill="#000000" font-family="sans-serif" font-size="13" font-weight="bold" lengthAdjust="spacing" textLength="7.23" x="101.1121" y="423.2295">8</text><text fill="#000000" font-family="sans-serif" font-size="13" lengthAdjust="spacing" textLength="123.0176" x="112.342" y="423.2295">Ouvrir une d&#195;&#169;cision</text><polygon fill="#181818" points="505.7437,470.7891,515.7437,474.7891,505.7437,478.7891,509.7437,474.7891" style="stroke:#181818;stroke-width:1;"/><line style="stroke:#181818;stroke-width:1;" x1="281.9512" x2="511.7437" y1="474.7891" y2="474.7891"/><text fill="#000000" font-family="sans-serif" font-size="13" font-weight="bold" lengthAdjust="spacing" textLength="7.23" x="299.2048" y="461.7568">9</text><text fill="#000000" font-family="sans-serif" font-size="13" lengthAdjust="spacing" textLength="190.0552" x="310.4348" y="453.5811">GET /api/decisions/{id}/validation</text><text fill="#000000" font-family="sans-serif" font-size="13" lengthAdjust="spacing" textLength="35.3691" x="387.7778" y="469.9326">(JWT)</text><line style="stroke:#181818;stroke-width:1;" x1="527.7437" x2="569.7437" y1="505.1406" y2="505.1406"/><line style="stroke:#181818;stroke-width:1;" x1="569.7437" x2="569.7437" y1="505.1406" y2="518.1406"/><line style="stroke:#181818;stroke-width:1;" x1="528.7437" x2="569.7437" y1="518.1406" y2="518.1406"/><polygon fill="#181818" points="538.7437,514.1406,528.7437,518.1406,538.7437,522.1406,534.7437,518.1406" style="stroke:#181818;stroke-width:1;"/><text fill="#000000" font-family="sans-serif" font-size="13" font-weight="bold" lengthAdjust="spacing" textLength="14.46" x="534.7437" y="500.2842">10</text><text fill="#000000" font-family="sans-serif" font-size="13" lengthAdjust="spacing" textLength="143.2349" x="553.2036" y="500.2842">V&#195;&#169;rifier r&#195;&#180;le validateur</text><polygon fill="#181818" points="745.6348,577.1953,755.6348,581.1953,745.6348,585.1953,749.6348,581.1953" style="stroke:#181818;stroke-width:1;"/><line style="stroke:#181818;stroke-width:1;" x1="527.7437" x2="751.6348" y1="581.1953" y2="581.1953"/><text fill="#000000" font-family="sans-serif" font-size="13" font-weight="bold" lengthAdjust="spacing" textLength="14.46" x="551.8125" y="559.9873">11</text><text fill="#000000" font-family="sans-serif" font-size="13" lengthAdjust="spacing" textLength="111.6362" x="596.1011" y="543.6357">Charger Decision +</text><text fill="#000000" font-family="sans-serif" font-size="13" lengthAdjust="spacing" textLength="163.2935" x="570.2725" y="559.9873">ML, SHAP, agents, sources,</text><text fill="#000000" font-family="sans-serif" font-size="13" lengthAdjust="spacing" textLength="125.0171" x="589.4106" y="576.3389">historique, validations</text><polygon fill="#181818" points="538.7437,607.5469,528.7437,611.5469,538.7437,615.5469,534.7437,611.5469" style="stroke:#181818;stroke-width:1;"/><line style="stroke:#181818;stroke-width:1;stroke-dasharray:2.0,2.0;" x1="532.7437" x2="761.6348" y1="611.5469" y2="611.5469"/><text fill="#000000" font-family="sans-serif" font-size="13" font-weight="bold" lengthAdjust="spacing" textLength="14.46" x="589.3611" y="606.6904">12</text><text fill="#000000" font-family="sans-serif" font-size="13" lengthAdjust="spacing" textLength="93.1963" x="607.821" y="606.6904">Dossier complet</text><polygon fill="#181818" points="292.9512,654.25,282.9512,658.25,292.9512,662.25,288.9512,658.25" style="stroke:#181818;stroke-width:1;"/><line style="stroke:#181818;stroke-width:1;stroke-dasharray:2.0,2.0;" x1="286.9512" x2="521.7437" y1="658.25" y2="658.25"/><text fill="#000000" font-family="sans-serif" font-size="13" font-weight="bold" lengthAdjust="spacing" textLength="14.46" x="303.5076" y="645.2178">13</text><text fill="#000000" font-family="sans-serif" font-size="13" lengthAdjust="spacing" textLength="108.3926" x="357.3811" y="637.042">DecisionResponse</text><text fill="#000000" font-family="sans-serif" font-size="13" lengthAdjust="spacing" textLength="179.2197" x="321.9675" y="653.3936">(+ m&#195;&#169;tadonn&#195;&#169;es validation)</text><polygon fill="#181818" points="65.5205,700.9531,55.5205,704.9531,65.5205,708.9531,61.5205,704.9531" style="stroke:#181818;stroke-width:1;"/><line style="stroke:#181818;stroke-width:1;stroke-dasharray:2.0,2.0;" x1="59.5205" x2="280.9512" y1="704.9531" y2="704.9531"/><text fill="#000000" font-family="sans-serif" font-size="13" font-weight="bold" lengthAdjust="spacing" textLength="14.46" x="66.5205" y="691.9209">14</text><text fill="#000000" font-family="sans-serif" font-size="13" lengthAdjust="spacing" textLength="103.3208" x="125.8054" y="683.7451">Afficher le dossier</text><text fill="#000000" font-family="sans-serif" font-size="13" lengthAdjust="spacing" textLength="184.9707" x="84.9805" y="700.0967">(ML, SHAP, agents, consensus)</text><polygon fill="#181818" points="269.9512,747.6563,279.9512,751.6563,269.9512,755.6563,273.9512,751.6563" style="stroke:#181818;stroke-width:1;"/><line style="stroke:#181818;stroke-width:1;" x1="54.5205" x2="275.9512" y1="751.6563" y2="751.6563"/><text fill="#000000" font-family="sans-serif" font-size="13" font-weight="bold" lengthAdjust="spacing" textLength="14.46" x="80.2378" y="738.624">15</text><text fill="#000000" font-family="sans-serif" font-size="13" lengthAdjust="spacing" textLength="157.5361" x="98.6978" y="730.4482">Choisir une action humaine</text><text fill="#000000" font-family="sans-serif" font-size="13" lengthAdjust="spacing" textLength="151.3789" x="101.7764" y="746.7998">(+ commentaire optionnel)</text><path d="M210.8618,766.6563 L271.0327,766.6563 L271.0327,775.0078 L261.0327,785.0078 L210.8618,785.0078 L210.8618,766.6563 " fill="#EEEEEE" style="stroke:#000000;stroke-width:1.5;"/><rect fill="none" height="252.6719" style="stroke:#000000;stroke-width:1.5;" width="394.647" x="210.8618" y="766.6563"/><text fill="#000000" font-family="sans-serif" font-size="13" font-weight="bold" lengthAdjust="spacing" textLength="15.1709" x="225.8618" y="781.1514">alt</text><text fill="#000000" font-family="sans-serif" font-size="11" font-weight="bold" lengthAdjust="spacing" textLength="62.9438" x="286.0327" y="780.0752">[Approuver]</text><polygon fill="#181818" points="510.7437,819.7109,520.7437,823.7109,510.7437,827.7109,514.7437,823.7109" style="stroke:#181818;stroke-width:1;"/><line style="stroke:#181818;stroke-width:1;" x1="281.9512" x2="516.7437" y1="823.7109" y2="823.7109"/><text fill="#000000" font-family="sans-serif" font-size="13" font-weight="bold" lengthAdjust="spacing" textLength="14.46" x="297.728" y="810.6787">16</text><text fill="#000000" font-family="sans-serif" font-size="13" lengthAdjust="spacing" textLength="190.7788" x="316.188" y="802.5029">POST /api/decisions/{id}/approve</text><text fill="#000000" font-family="sans-serif" font-size="13" lengthAdjust="spacing" textLength="114.1753" x="354.4897" y="818.8545">(ValidationRequest)</text><line style="stroke:#000000;stroke-width:1;stroke-dasharray:2.0,2.0;" x1="210.8618" x2="605.5088" y1="832.7109" y2="832.7109"/><text fill="#000000" font-family="sans-serif" font-size="11" font-weight="bold" lengthAdjust="spacing" textLength="44.623" x="215.8618" y="844.1299">[Rejeter]</text><polygon fill="#181818" points="510.7437,882.25,520.7437,886.25,510.7437,890.25,514.7437,886.25" style="stroke:#181818;stroke-width:1;"/><line style="stroke:#181818;stroke-width:1;" x1="281.9512" x2="516.7437" y1="886.25" y2="886.25"/><text fill="#000000" font-family="sans-serif" font-size="13" font-weight="bold" lengthAdjust="spacing" textLength="14.46" x="305.323" y="873.2178">17</text><text fill="#000000" font-family="sans-serif" font-size="13" lengthAdjust="spacing" textLength="175.5889" x="323.783" y="865.042">POST /api/decisions/{id}/reject</text><text fill="#000000" font-family="sans-serif" font-size="13" lengthAdjust="spacing" textLength="114.1753" x="354.4897" y="881.3936">(ValidationRequest)</text><line style="stroke:#000000;stroke-width:1;stroke-dasharray:2.0,2.0;" x1="210.8618" x2="605.5088" y1="895.25" y2="895.25"/><text fill="#000000" font-family="sans-serif" font-size="11" font-weight="bold" lengthAdjust="spacing" textLength="205.5088" x="215.8618" y="906.6689">[Modifier (d&#195;&#169;cision humaine requise)]</text><polygon fill="#181818" points="510.7437,944.7891,520.7437,948.7891,510.7437,952.7891,514.7437,948.7891" style="stroke:#181818;stroke-width:1;"/><line style="stroke:#181818;stroke-width:1;" x1="281.9512" x2="516.7437" y1="948.7891" y2="948.7891"/><text fill="#000000" font-family="sans-serif" font-size="13" font-weight="bold" lengthAdjust="spacing" textLength="14.46" x="293.9512" y="935.7568">18</text><text fill="#000000" font-family="sans-serif" font-size="13" lengthAdjust="spacing" textLength="182.0889" x="320.533" y="927.5811">POST /api/decisions/{id}/modify</text><text fill="#000000" font-family="sans-serif" font-size="13" lengthAdjust="spacing" textLength="198.3325" x="312.4111" y="943.9326">(decisionHumaine + commentaire)</text><line style="stroke:#000000;stroke-width:1;stroke-dasharray:2.0,2.0;" x1="210.8618" x2="605.5088" y1="957.7891" y2="957.7891"/><text fill="#000000" font-family="sans-serif" font-size="11" font-weight="bold" lengthAdjust="spacing" textLength="157.0884" x="215.8618" y="969.208">[Review (reste EN_ATTENTE)]</text><polygon fill="#181818" points="510.7437,1007.3281,520.7437,1011.3281,510.7437,1015.3281,514.7437,1011.3281" style="stroke:#181818;stroke-width:1;"/><line style="stroke:#181818;stroke-width:1;" x1="281.9512" x2="516.7437" y1="1011.3281" y2="1011.3281"/><text fill="#000000" font-family="sans-serif" font-size="13" font-weight="bold" lengthAdjust="spacing" textLength="14.46" x="302.4348" y="998.2959">19</text><text fill="#000000" font-family="sans-serif" font-size="13" lengthAdjust="spacing" textLength="181.3652" x="320.8948" y="990.1201">POST /api/decisions/{id}/review</text><text fill="#000000" font-family="sans-serif" font-size="13" lengthAdjust="spacing" textLength="114.1753" x="354.4897" y="1006.4717">(ValidationRequest)</text><line style="stroke:#181818;stroke-width:1;" x1="522.7437" x2="564.7437" y1="1065.0313" y2="1065.0313"/><line style="stroke:#181818;stroke-width:1;" x1="564.7437" x2="564.7437" y1="1065.0313" y2="1078.0313"/><line style="stroke:#181818;stroke-width:1;" x1="523.7437" x2="564.7437" y1="1078.0313" y2="1078.0313"/><polygon fill="#181818" points="533.7437,1074.0313,523.7437,1078.0313,533.7437,1082.0313,529.7437,1078.0313" style="stroke:#181818;stroke-width:1;"/><text fill="#000000" font-family="sans-serif" font-size="13" font-weight="bold" lengthAdjust="spacing" textLength="14.46" x="529.7437" y="1051.999">20</text><text fill="#000000" font-family="sans-serif" font-size="13" lengthAdjust="spacing" textLength="124.7822" x="553.3452" y="1043.8232">V&#195;&#169;rifier JWT + r&#195;&#180;le</text><text fill="#000000" font-family="sans-serif" font-size="13" lengthAdjust="spacing" textLength="135.0654" x="548.2036" y="1060.1748">(VALIDATOR / ADMIN)</text><polygon fill="#181818" points="745.6348,1104.3828,755.6348,1108.3828,745.6348,1112.3828,749.6348,1108.3828" style="stroke:#181818;stroke-width:1;"/><line style="stroke:#181818;stroke-width:1;" x1="522.7437" x2="751.6348" y1="1108.3828" y2="1108.3828"/><text fill="#000000" font-family="sans-serif" font-size="13" font-weight="bold" lengthAdjust="spacing" textLength="14.46" x="536.6584" y="1103.5264">21</text><text fill="#000000" font-family="sans-serif" font-size="13" lengthAdjust="spacing" textLength="188.6016" x="555.1184" y="1103.5264">Charger Decision pour validation</text><polygon fill="#181818" points="533.7437,1134.7344,523.7437,1138.7344,533.7437,1142.7344,529.7437,1138.7344" style="stroke:#181818;stroke-width:1;"/><line style="stroke:#181818;stroke-width:1;stroke-dasharray:2.0,2.0;" x1="527.7437" x2="761.6348" y1="1138.7344" y2="1138.7344"/><text fill="#000000" font-family="sans-serif" font-size="13" font-weight="bold" lengthAdjust="spacing" textLength="14.46" x="608.532" y="1133.8779">22</text><text fill="#000000" font-family="sans-serif" font-size="13" lengthAdjust="spacing" textLength="49.8545" x="626.9919" y="1133.8779">Decision</text><path d="M10,1153.7344 L70.1709,1153.7344 L70.1709,1162.0859 L60.1709,1172.0859 L10,1172.0859 L10,1153.7344 " fill="#EEEEEE" style="stroke:#000000;stroke-width:1.5;"/><rect fill="none" height="708.3281" style="stroke:#000000;stroke-width:1.5;" width="803.7656" x="10" y="1153.7344"/><text fill="#000000" font-family="sans-serif" font-size="13" font-weight="bold" lengthAdjust="spacing" textLength="15.1709" x="25" y="1168.2295">alt</text><text fill="#000000" font-family="sans-serif" font-size="11" font-weight="bold" lengthAdjust="spacing" textLength="139.5464" x="85.1709" y="1167.1533">[Statut &#226;&#8240;&#160; EN_ATTENTE]</text><polygon fill="#181818" points="292.9512,1206.7891,282.9512,1210.7891,292.9512,1214.7891,288.9512,1210.7891" style="stroke:#181818;stroke-width:1;"/><line style="stroke:#181818;stroke-width:1;stroke-dasharray:2.0,2.0;" x1="286.9512" x2="521.7437" y1="1210.7891" y2="1210.7891"/><text fill="#000000" font-family="sans-serif" font-size="13" font-weight="bold" lengthAdjust="spacing" textLength="14.46" x="315.822" y="1197.7568">23</text><text fill="#000000" font-family="sans-serif" font-size="13" lengthAdjust="spacing" textLength="136.5762" x="343.2893" y="1189.5811">Erreur 400 / IllegalState</text><text fill="#000000" font-family="sans-serif" font-size="13" lengthAdjust="spacing" textLength="154.5908" x="334.282" y="1205.9326">(seules les EN_ATTENTE)</text><polygon fill="#181818" points="65.5205,1237.1406,55.5205,1241.1406,65.5205,1245.1406,61.5205,1241.1406" style="stroke:#181818;stroke-width:1;"/><line style="stroke:#181818;stroke-width:1;stroke-dasharray:2.0,2.0;" x1="59.5205" x2="280.9512" y1="1241.1406" y2="1241.1406"/><text fill="#000000" font-family="sans-serif" font-size="13" font-weight="bold" lengthAdjust="spacing" textLength="14.46" x="115.1404" y="1236.2842">24</text><text fill="#000000" font-family="sans-serif" font-size="13" lengthAdjust="spacing" textLength="87.731" x="133.6003" y="1236.2842">Afficher l'erreur</text><line style="stroke:#000000;stroke-width:1;stroke-dasharray:2.0,2.0;" x1="10" x2="813.7656" y1="1250.1406" y2="1250.1406"/><text fill="#000000" font-family="sans-serif" font-size="11" font-weight="bold" lengthAdjust="spacing" textLength="123.1431" x="15" y="1261.5596">[Statut = EN_ATTENTE]</text><line style="stroke:#181818;stroke-width:1;" x1="522.7437" x2="564.7437" y1="1320.0313" y2="1320.0313"/><line style="stroke:#181818;stroke-width:1;" x1="564.7437" x2="564.7437" y1="1320.0313" y2="1333.0313"/><line style="stroke:#181818;stroke-width:1;" x1="523.7437" x2="564.7437" y1="1333.0313" y2="1333.0313"/><polygon fill="#181818" points="533.7437,1329.0313,523.7437,1333.0313,533.7437,1337.0313,529.7437,1333.0313" style="stroke:#181818;stroke-width:1;"/><text fill="#000000" font-family="sans-serif" font-size="13" font-weight="bold" lengthAdjust="spacing" textLength="14.46" x="529.7437" y="1298.8232">25</text><text fill="#000000" font-family="sans-serif" font-size="13" lengthAdjust="spacing" textLength="113.4326" x="572.7437" y="1282.4717">Mettre &#195;&#160; jour statut</text><text fill="#000000" font-family="sans-serif" font-size="13" lengthAdjust="spacing" textLength="161.8145" x="548.5527" y="1298.8232">(APPROUVEE / REJETEE /</text><text fill="#000000" font-family="sans-serif" font-size="13" lengthAdjust="spacing" textLength="162.5127" x="548.2036" y="1315.1748">MODIFIEE / EN_ATTENTE)</text><line style="stroke:#181818;stroke-width:1;" x1="522.7437" x2="564.7437" y1="1379.7344" y2="1379.7344"/><line style="stroke:#181818;stroke-width:1;" x1="564.7437" x2="564.7437" y1="1379.7344" y2="1392.7344"/><line style="stroke:#181818;stroke-width:1;" x1="523.7437" x2="564.7437" y1="1392.7344" y2="1392.7344"/><polygon fill="#181818" points="533.7437,1388.7344,523.7437,1392.7344,533.7437,1396.7344,529.7437,1392.7344" style="stroke:#181818;stroke-width:1;"/><text fill="#000000" font-family="sans-serif" font-size="13" font-weight="bold" lengthAdjust="spacing" textLength="14.46" x="529.7437" y="1366.7021">26</text><text fill="#000000" font-family="sans-serif" font-size="13" lengthAdjust="spacing" textLength="100.8071" x="548.2036" y="1358.5264">humanDecision +</text><text fill="#000000" font-family="sans-serif" font-size="13" lengthAdjust="spacing" textLength="81.6436" x="557.7854" y="1374.8779">validatorEmail</text><line style="stroke:#181818;stroke-width:1;" x1="522.7437" x2="564.7437" y1="1439.4375" y2="1439.4375"/><line style="stroke:#181818;stroke-width:1;" x1="564.7437" x2="564.7437" y1="1439.4375" y2="1452.4375"/><line style="stroke:#181818;stroke-width:1;" x1="523.7437" x2="564.7437" y1="1452.4375" y2="1452.4375"/><polygon fill="#181818" points="533.7437,1448.4375,523.7437,1452.4375,533.7437,1456.4375,529.7437,1452.4375" style="stroke:#181818;stroke-width:1;"/><text fill="#000000" font-family="sans-serif" font-size="13" font-weight="bold" lengthAdjust="spacing" textLength="14.46" x="529.7437" y="1426.4053">27</text><text fill="#000000" font-family="sans-serif" font-size="13" lengthAdjust="spacing" textLength="106.9453" x="571.3186" y="1418.2295">Recalculer hashes</text><text fill="#000000" font-family="sans-serif" font-size="13" lengthAdjust="spacing" textLength="153.1753" x="548.2036" y="1434.5811">(refreshHashComponents)</text><polygon fill="#181818" points="745.6348,1478.7891,755.6348,1482.7891,745.6348,1486.7891,749.6348,1482.7891" style="stroke:#181818;stroke-width:1;"/><line style="stroke:#181818;stroke-width:1;" x1="522.7437" x2="751.6348" y1="1482.7891" y2="1482.7891"/><text fill="#000000" font-family="sans-serif" font-size="13" font-weight="bold" lengthAdjust="spacing" textLength="14.46" x="577.8611" y="1477.9326">28</text><text fill="#000000" font-family="sans-serif" font-size="13" lengthAdjust="spacing" textLength="106.1963" x="596.321" y="1477.9326">UPDATE Decision</text><polygon fill="#181818" points="533.7437,1509.1406,523.7437,1513.1406,533.7437,1517.1406,529.7437,1513.1406" style="stroke:#181818;stroke-width:1;"/><line style="stroke:#181818;stroke-width:1;stroke-dasharray:2.0,2.0;" x1="527.7437" x2="761.6348" y1="1513.1406" y2="1513.1406"/><text fill="#000000" font-family="sans-serif" font-size="13" font-weight="bold" lengthAdjust="spacing" textLength="14.46" x="624.0679" y="1508.2842">29</text><text fill="#000000" font-family="sans-serif" font-size="13" lengthAdjust="spacing" textLength="18.7827" x="642.5278" y="1508.2842">OK</text><polygon fill="#181818" points="745.6348,1572.1953,755.6348,1576.1953,745.6348,1580.1953,749.6348,1576.1953" style="stroke:#181818;stroke-width:1;"/><line style="stroke:#181818;stroke-width:1;" x1="522.7437" x2="751.6348" y1="1576.1953" y2="1576.1953"/><text fill="#000000" font-family="sans-serif" font-size="13" font-weight="bold" lengthAdjust="spacing" textLength="14.46" x="532.2437" y="1554.9873">30</text><text fill="#000000" font-family="sans-serif" font-size="13" lengthAdjust="spacing" textLength="144.5107" x="577.1638" y="1538.6357">INSERT ValidationAction</text><text fill="#000000" font-family="sans-serif" font-size="13" lengthAdjust="spacing" textLength="184.2471" x="557.2957" y="1554.9873">(typeAction, statutAvant/Apr&#195;&#168;s,</text><text fill="#000000" font-family="sans-serif" font-size="13" lengthAdjust="spacing" textLength="197.4312" x="550.7036" y="1571.3389">d&#195;&#169;cisionHumaine, commentaire)</text><polygon fill="#181818" points="533.7437,1602.5469,523.7437,1606.5469,533.7437,1610.5469,529.7437,1606.5469" style="stroke:#181818;stroke-width:1;"/><line style="stroke:#181818;stroke-width:1;stroke-dasharray:2.0,2.0;" x1="527.7437" x2="761.6348" y1="1606.5469" y2="1606.5469"/><text fill="#000000" font-family="sans-serif" font-size="13" font-weight="bold" lengthAdjust="spacing" textLength="14.46" x="586.8452" y="1601.6904">31</text><text fill="#000000" font-family="sans-serif" font-size="13" lengthAdjust="spacing" textLength="93.228" x="605.3052" y="1601.6904">ValidationAction</text><polygon fill="#181818" points="745.6348,1665.6016,755.6348,1669.6016,745.6348,1673.6016,749.6348,1669.6016" style="stroke:#181818;stroke-width:1;"/><line style="stroke:#181818;stroke-width:1;" x1="522.7437" x2="751.6348" y1="1669.6016" y2="1669.6016"/><text fill="#000000" font-family="sans-serif" font-size="13" font-weight="bold" lengthAdjust="spacing" textLength="14.46" x="549.3347" y="1648.3936">32</text><text fill="#000000" font-family="sans-serif" font-size="13" lengthAdjust="spacing" textLength="141.5845" x="578.627" y="1632.042">INSERT DecisionHistory</text><text fill="#000000" font-family="sans-serif" font-size="13" lengthAdjust="spacing" textLength="163.249" x="567.7947" y="1648.3936">(APPROVED / REJECTED /</text><text fill="#000000" font-family="sans-serif" font-size="13" lengthAdjust="spacing" textLength="148.0591" x="575.3896" y="1664.7451">MODIFIED / REVIEWED)</text><polygon fill="#181818" points="533.7437,1695.9531,523.7437,1699.9531,533.7437,1703.9531,529.7437,1699.9531" style="stroke:#181818;stroke-width:1;"/><line style="stroke:#181818;stroke-width:1;stroke-dasharray:2.0,2.0;" x1="527.7437" x2="761.6348" y1="1699.9531" y2="1699.9531"/><text fill="#000000" font-family="sans-serif" font-size="13" font-weight="bold" lengthAdjust="spacing" textLength="14.46" x="624.0679" y="1695.0967">33</text><text fill="#000000" font-family="sans-serif" font-size="13" lengthAdjust="spacing" textLength="18.7827" x="642.5278" y="1695.0967">OK</text><polygon fill="#181818" points="745.6348,1742.6563,755.6348,1746.6563,745.6348,1750.6563,749.6348,1746.6563" style="stroke:#181818;stroke-width:1;"/><line style="stroke:#181818;stroke-width:1;" x1="522.7437" x2="751.6348" y1="1746.6563" y2="1746.6563"/><text fill="#000000" font-family="sans-serif" font-size="13" font-weight="bold" lengthAdjust="spacing" textLength="14.46" x="557.9707" y="1733.624">34</text><text fill="#000000" font-family="sans-serif" font-size="13" lengthAdjust="spacing" textLength="117.4189" x="590.7097" y="1725.4482">Recharger dossier +</text><text fill="#000000" font-family="sans-serif" font-size="13" lengthAdjust="spacing" textLength="145.9771" x="576.4307" y="1741.7998">historique des validations</text><polygon fill="#181818" points="533.7437,1773.0078,523.7437,1777.0078,533.7437,1781.0078,529.7437,1777.0078" style="stroke:#181818;stroke-width:1;"/><line style="stroke:#181818;stroke-width:1;stroke-dasharray:2.0,2.0;" x1="527.7437" x2="761.6348" y1="1777.0078" y2="1777.0078"/><text fill="#000000" font-family="sans-serif" font-size="13" font-weight="bold" lengthAdjust="spacing" textLength="14.46" x="581.3386" y="1772.1514">35</text><text fill="#000000" font-family="sans-serif" font-size="13" lengthAdjust="spacing" textLength="104.2412" x="599.7986" y="1772.1514">Donn&#195;&#169;es &#195;&#160; jour</text><polygon fill="#181818" points="292.9512,1803.3594,282.9512,1807.3594,292.9512,1811.3594,288.9512,1807.3594" style="stroke:#181818;stroke-width:1;"/><line style="stroke:#181818;stroke-width:1;stroke-dasharray:2.0,2.0;" x1="286.9512" x2="521.7437" y1="1807.3594" y2="1807.3594"/><text fill="#000000" font-family="sans-serif" font-size="13" font-weight="bold" lengthAdjust="spacing" textLength="14.46" x="302.7998" y="1802.5029">36</text><text fill="#000000" font-family="sans-serif" font-size="13" lengthAdjust="spacing" textLength="180.6353" x="321.2598" y="1802.5029">DecisionResponse mise &#195;&#160; jour</text><polygon fill="#181818" points="65.5205,1850.0625,55.5205,1854.0625,65.5205,1858.0625,61.5205,1854.0625" style="stroke:#181818;stroke-width:1;"/><line style="stroke:#181818;stroke-width:1;stroke-dasharray:2.0,2.0;" x1="59.5205" x2="280.9512" y1="1854.0625" y2="1854.0625"/><text fill="#000000" font-family="sans-serif" font-size="13" font-weight="bold" lengthAdjust="spacing" textLength="14.46" x="85.6555" y="1841.0303">37</text><text fill="#000000" font-family="sans-serif" font-size="13" lengthAdjust="spacing" textLength="146.7007" x="104.1155" y="1832.8545">Afficher le nouveau statut</text><text fill="#000000" font-family="sans-serif" font-size="13" lengthAdjust="spacing" textLength="133.6943" x="110.6187" y="1849.2061">et la trace de validation</text><path d="M19,1874.0625 L19,1933.0625 L797,1933.0625 L797,1884.0625 L787,1874.0625 L19,1874.0625 " fill="#F8FAFC" style="stroke:#94A3B8;stroke-width:0.5;"/><path d="M787,1874.0625 L787,1884.0625 L797,1884.0625 L787,1874.0625 " fill="#F8FAFC" style="stroke:#94A3B8;stroke-width:0.5;"/><text fill="#000000" font-family="sans-serif" font-size="13" lengthAdjust="spacing" textLength="132.4312" x="262.8792" y="1892.5576">La d&#195;&#169;cision finale est</text><text fill="#000000" font-family="sans-serif" font-size="13" font-weight="bold" lengthAdjust="spacing" textLength="53.4536" x="398.9221" y="1892.5576">humaine</text><text fill="#000000" font-family="sans-serif" font-size="13" lengthAdjust="spacing" textLength="3.6118" x="452.3757" y="1892.5576">.</text><text fill="#000000" font-family="sans-serif" font-size="13" lengthAdjust="spacing" textLength="252.9097" x="262.8792" y="1908.9092">ML, SHAP et agents Groq restent des aides</text><text fill="#000000" font-family="sans-serif" font-size="13" lengthAdjust="spacing" textLength="282.0073" x="262.8792" y="1925.2607">consult&#195;&#169;es dans le dossier ; ils ne valident pas.</text><!--SRC=[fLRDZXf74BxFKvGs1ozhR2p51yTH8WtGUB5X8O3PoqfHUwQ0jeVkSNSFrYgAP2NF4SdAAP5oo25FOB-9doJLyyCqxBB1oW4qCrs_NrLzrJopIcRhLwW3yqR8b6k-1hFYiNedv18MF37ed-3R36M4GpI6Bp5Cn592XDBkw4jbiSsZDqkjCXbtLA8qVDLxqWjxdNqffMFKfSGtZyElsq-2m0gR84m__Vhnpy8RVFhzyoz_VNx_6ynv8c9kXPAmojPSI8JuNkR-dNGa39q40OyisJifXJ7J9y1DfQjqGFwjY4JAfOMJdbOKlemXbCiiuOLiZ-qAkMoSp3JL3fQsKZQNQxE0JF9Nt22SZ9MnIutJ7mRvMRST15kVyE1xCWfFOPHjjD2GS5W8oZ96s6np2aY2vDfExXcRGOkdebKVjr8AWTnVoTFdbxE6IrDiA3yNHRlMd3iej5W8rA3f-Py4IMCU3lhTS3QQG0l2xh1_qIXrkctIcR81wyoWYmM4L_Bod4qO6CjjPk4xO1S_XhCPkvYnsYlbHxeFAhS3OQpBn_YrC46Cle9pMI5HEHjJ8qtGf2IDlZXbrIl4QnIVGhXOY6Y5DO9UQ8VXtc-Hsu2EotXCwoSH_-pX_kLuLpMbrlDHxgouNf9KbJdSlvB3GHEcv-6u2GI3jAO9HcKwGjEyaYk2L6b1Gz3qkiGSB45N6UEYYDGwJT0UWNs5EwLu7zOk4KkZBwLxeahMJXjVKXd2keY4pDxCBt8EfSbCuxQ2TLQA8YigvXpMavx7IAcjoGmN6a6bxbXYGePuOY5CKoAS3L4HW5VWyMXwUuMvaz_amx7DS-88pjX6W4HyCC7NQ8-sfqawidUO6wguQ9DJhnUtHAP9LXXi7EbjxOnTaxVg-tbfPmUaRI8RWU_WLACRqdfa6aUdvlGFf2RZu9ZPe1cYs8vbf1kpaj9O-5nvS0XAXRtkppjaMl0PhPFtVt_yu5C7W3yUJ6iQNNZyw175rayINFB4wRgm3MO9ZORxtSJnu4ZSmznaKOtfBRHQ153cC4HhgS49gW_mskLT435v3yVZoUZbd34ARCAUivbx8XOPTVkzVlvrDoZFgEipwLFFfegKKUCaky8JZ7WIKQOQLjoiq91lZGlgdzKvlNU8OPHqyqopLodcTNivffgokWe0VXK0_5ADNj27lJBj6EjVJDbavctzC2e9sLwdMBmqIt323MtgLfYw1ll3iQStO-LeD7SduwxGzbqU5sYLzNbEtDTLlUQiMvQhCtEFsteLd-TzTicwZVy75HMid9YIUrs5wmMIBsP_Xzpbh5jlW6qB7d9_QAF0chZia7gR_TUy85qFYSfvjcrzj6xbMysZ_LjJJa3kDWd4vhess2mo6t1_zTEbGN8oJzG5PsSbzvwTFIJ1QbK1kIgM5JpJwYtaf4ctG0SX5_HFicw9POajKOgvDDxQWsz190Pa6QNJJRbvw0BDRxt1lm00]--></g></svg>