<svg xmlns="http://www.w3.org/2000/svg" xmlns:xlink="http://www.w3.org/1999/xlink" contentStyleType="text/css" height="1541px" preserveAspectRatio="none" style="width:1172px;height:1541px;background:#FFFFFF;" version="1.1" viewBox="0 0 1172 1541" width="1172px" zoomAndPan="magnify"><title>S&#195;&#169;quence &#226;&#8364;&#8221; Cr&#195;&#169;ation d'une d&#195;&#169;cision (analyse cr&#195;&#169;dit)</title><defs/><g><text fill="#000000" font-family="sans-serif" font-size="14" font-weight="bold" lengthAdjust="spacing" textLength="411.7764" x="381.3408" y="29.5332">S&#195;&#169;quence &#226;&#8364;&#8221; Cr&#195;&#169;ation d'une d&#195;&#169;cision (analyse cr&#195;&#169;dit)</text><rect fill="#FFFFFF" height="1109.3828" style="stroke:#181818;stroke-width:1;" width="10" x="537.6318" y="216.625"/><rect fill="#FFFFFF" height="46.7031" style="stroke:#181818;stroke-width:1;" width="10" x="890.8691" y="443.4375"/><rect fill="#FFFFFF" height="210.2969" style="stroke:#181818;stroke-width:1;" width="10" x="1002.4067" y="707.9531"/><rect fill="#FFFFFF" height="30.3516" style="stroke:#181818;stroke-width:1;" width="10" x="1089.3271" y="366.3828"/><rect fill="#FFFFFF" height="30.3516" style="stroke:#181818;stroke-width:1;" width="10" x="1089.3271" y="596.5469"/><rect fill="#FFFFFF" height="30.3516" style="stroke:#181818;stroke-width:1;" width="10" x="1089.3271" y="1248.9531"/><rect fill="none" height="501.6484" style="stroke:#000000;stroke-width:1.5;" width="725.5913" x="439.8667" y="641.8984"/><rect fill="none" height="251" style="stroke:#000000;stroke-width:1.5;" width="705.5913" x="449.8667" y="667.25"/><rect fill="none" height="188.2969" style="stroke:#000000;stroke-width:1.5;" width="685.5913" x="459.8667" y="722.9531"/><line style="stroke:#181818;stroke-width:0.5;stroke-dasharray:5.0,5.0;" x1="40" x2="40" y1="121.2188" y2="1459.7656"/><line style="stroke:#181818;stroke-width:0.5;stroke-dasharray:5.0,5.0;" x1="310.1118" x2="310.1118" y1="121.2188" y2="1459.7656"/><line style="stroke:#181818;stroke-width:0.5;stroke-dasharray:5.0,5.0;" x1="541.8667" x2="541.8667" y1="121.2188" y2="1459.7656"/><line style="stroke:#181818;stroke-width:0.5;stroke-dasharray:5.0,5.0;" x1="895.1211" x2="895.1211" y1="121.2188" y2="1459.7656"/><line style="stroke:#181818;stroke-width:0.5;stroke-dasharray:5.0,5.0;" x1="1006.6172" x2="1006.6172" y1="121.2188" y2="1459.7656"/><line style="stroke:#181818;stroke-width:0.5;stroke-dasharray:5.0,5.0;" x1="1094.1963" x2="1094.1963" y1="121.2188" y2="1459.7656"/><text fill="#000000" font-family="sans-serif" font-size="14" lengthAdjust="spacing" textLength="62.2412" x="6" y="118.1426">Utilisateur</text><ellipse cx="40.1206" cy="52.1094" fill="#E2E2F0" rx="8" ry="8" style="stroke:#181818;stroke-width:0.5;"/><path d="M40.1206,60.1094 L40.1206,87.1094 M27.1206,68.1094 L53.1206,68.1094 M40.1206,87.1094 L27.1206,102.1094 M40.1206,87.1094 L53.1206,102.1094 " fill="none" style="stroke:#181818;stroke-width:0.5;"/><text fill="#000000" font-family="sans-serif" font-size="14" lengthAdjust="spacing" textLength="62.2412" x="6" y="1473.2988">Utilisateur</text><ellipse cx="40.1206" cy="1484.875" fill="#E2E2F0" rx="8" ry="8" style="stroke:#181818;stroke-width:0.5;"/><path d="M40.1206,1492.875 L40.1206,1519.875 M27.1206,1500.875 L53.1206,1500.875 M40.1206,1519.875 L27.1206,1534.875 M40.1206,1519.875 L53.1206,1534.875 " fill="none" style="stroke:#181818;stroke-width:0.5;"/><rect fill="#E2E2F0" height="31.6094" rx="2.5" ry="2.5" style="stroke:#181818;stroke-width:0.5;" width="122.1787" x="249.1118" y="88.6094"/><text fill="#000000" font-family="sans-serif" font-size="14" lengthAdjust="spacing" textLength="108.1787" x="256.1118" y="110.1426">Frontend Angular</text><rect fill="#E2E2F0" height="31.6094" rx="2.5" ry="2.5" style="stroke:#181818;stroke-width:0.5;" width="122.1787" x="249.1118" y="1458.7656"/><text fill="#000000" font-family="sans-serif" font-size="14" lengthAdjust="spacing" textLength="108.1787" x="256.1118" y="1480.2988">Frontend Angular</text><rect fill="#E2E2F0" height="31.6094" rx="2.5" ry="2.5" style="stroke:#181818;stroke-width:0.5;" width="145.5303" x="469.8667" y="88.6094"/><text fill="#000000" font-family="sans-serif" font-size="14" lengthAdjust="spacing" textLength="131.5303" x="476.8667" y="110.1426">Backend Spring Boot</text><rect fill="#E2E2F0" height="31.6094" rx="2.5" ry="2.5" style="stroke:#181818;stroke-width:0.5;" width="145.5303" x="469.8667" y="1458.7656"/><text fill="#000000" font-family="sans-serif" font-size="14" lengthAdjust="spacing" textLength="131.5303" x="476.8667" y="1480.2988">Backend Spring Boot</text><rect fill="#E2E2F0" height="31.6094" rx="2.5" ry="2.5" style="stroke:#181818;stroke-width:0.5;" width="131.4961" x="830.1211" y="88.6094"/><text fill="#000000" font-family="sans-serif" font-size="14" lengthAdjust="spacing" textLength="117.4961" x="837.1211" y="110.1426">Service ML Python</text><rect fill="#E2E2F0" height="31.6094" rx="2.5" ry="2.5" style="stroke:#181818;stroke-width:0.5;" width="131.4961" x="830.1211" y="1458.7656"/><text fill="#000000" font-family="sans-serif" font-size="14" lengthAdjust="spacing" textLength="117.4961" x="837.1211" y="1480.2988">Service ML Python</text><rect fill="#E2E2F0" height="31.6094" rx="2.5" ry="2.5" style="stroke:#181818;stroke-width:0.5;" width="71.5791" x="971.6172" y="88.6094"/><text fill="#000000" font-family="sans-serif" font-size="14" lengthAdjust="spacing" textLength="57.5791" x="978.6172" y="110.1426">API Groq</text><rect fill="#E2E2F0" height="31.6094" rx="2.5" ry="2.5" style="stroke:#181818;stroke-width:0.5;" width="71.5791" x="971.6172" y="1458.7656"/><text fill="#000000" font-family="sans-serif" font-size="14" lengthAdjust="spacing" textLength="57.5791" x="978.6172" y="1480.2988">API Groq</text><text fill="#000000" font-family="sans-serif" font-size="14" lengthAdjust="spacing" textLength="76.2617" x="1053.1963" y="118.1426">PostgreSQL</text><path d="M1076.3271,67.6094 C1076.3271,57.6094 1094.3271,57.6094 1094.3271,57.6094 C1094.3271,57.6094 1112.3271,57.6094 1112.3271,67.6094 L1112.3271,93.6094 C1112.3271,103.6094 1094.3271,103.6094 1094.3271,103.6094 C1094.3271,103.6094 1076.3271,103.6094 1076.3271,93.6094 L1076.3271,67.6094 " fill="#E2E2F0" style="stroke:#181818;stroke-width:1.5;"/><path d="M1076.3271,67.6094 C1076.3271,77.6094 1094.3271,77.6094 1094.3271,77.6094 C1094.3271,77.6094 1112.3271,77.6094 1112.3271,67.6094 " fill="none" style="stroke:#181818;stroke-width:1.5;"/><text fill="#000000" font-family="sans-serif" font-size="14" lengthAdjust="spacing" textLength="76.2617" x="1053.1963" y="1473.2988">PostgreSQL</text><path d="M1076.3271,1486.375 C1076.3271,1476.375 1094.3271,1476.375 1094.3271,1476.375 C1094.3271,1476.375 1112.3271,1476.375 1112.3271,1486.375 L1112.3271,1512.375 C1112.3271,1522.375 1094.3271,1522.375 1094.3271,1522.375 C1094.3271,1522.375 1076.3271,1522.375 1076.3271,1512.375 L1076.3271,1486.375 " fill="#E2E2F0" style="stroke:#181818;stroke-width:1.5;"/><path d="M1076.3271,1486.375 C1076.3271,1496.375 1094.3271,1496.375 1094.3271,1496.375 C1094.3271,1496.375 1112.3271,1496.375 1112.3271,1486.375 " fill="none" style="stroke:#181818;stroke-width:1.5;"/><rect fill="#FFFFFF" height="1109.3828" style="stroke:#181818;stroke-width:1;" width="10" x="537.6318" y="216.625"/><rect fill="#FFFFFF" height="46.7031" style="stroke:#181818;stroke-width:1;" width="10" x="890.8691" y="443.4375"/><rect fill="#FFFFFF" height="210.2969" style="stroke:#181818;stroke-width:1;" width="10" x="1002.4067" y="707.9531"/><rect fill="#FFFFFF" height="30.3516" style="stroke:#181818;stroke-width:1;" width="10" x="1089.3271" y="366.3828"/><rect fill="#FFFFFF" height="30.3516" style="stroke:#181818;stroke-width:1;" width="10" x="1089.3271" y="596.5469"/><rect fill="#FFFFFF" height="30.3516" style="stroke:#181818;stroke-width:1;" width="10" x="1089.3271" y="1248.9531"/><polygon fill="#181818" points="298.2012,165.9219,308.2012,169.9219,298.2012,173.9219,302.2012,169.9219" style="stroke:#181818;stroke-width:1;"/><line style="stroke:#181818;stroke-width:1;" x1="40.1206" x2="304.2012" y1="169.9219" y2="169.9219"/><text fill="#000000" font-family="sans-serif" font-size="13" font-weight="bold" lengthAdjust="spacing" textLength="7.23" x="91.8696" y="156.8896">1</text><text fill="#000000" font-family="sans-serif" font-size="13" lengthAdjust="spacing" textLength="155.3525" x="103.0996" y="148.7139">Saisir description, contexte</text><text fill="#000000" font-family="sans-serif" font-size="13" lengthAdjust="spacing" textLength="107.8467" x="126.8525" y="165.0654">et features cr&#195;&#169;dit</text><polygon fill="#181818" points="525.6318,212.625,535.6318,216.625,525.6318,220.625,529.6318,216.625" style="stroke:#181818;stroke-width:1;"/><line style="stroke:#181818;stroke-width:1;" x1="310.2012" x2="531.6318" y1="216.625" y2="216.625"/><text fill="#000000" font-family="sans-serif" font-size="13" font-weight="bold" lengthAdjust="spacing" textLength="7.23" x="326.0098" y="203.5928">2</text><text fill="#000000" font-family="sans-serif" font-size="13" lengthAdjust="spacing" textLength="166.1943" x="346.4343" y="195.417">POST /api/decisions/analyze</text><text fill="#000000" font-family="sans-serif" font-size="13" lengthAdjust="spacing" textLength="184.5835" x="337.2397" y="211.7686">(JWT + CreditFeaturesRequest)</text><line style="stroke:#181818;stroke-width:1;" x1="547.6318" x2="589.6318" y1="263.3281" y2="263.3281"/><line style="stroke:#181818;stroke-width:1;" x1="589.6318" x2="589.6318" y1="263.3281" y2="276.3281"/><line style="stroke:#181818;stroke-width:1;" x1="548.6318" x2="589.6318" y1="276.3281" y2="276.3281"/><polygon fill="#181818" points="558.6318,272.3281,548.6318,276.3281,558.6318,280.3281,554.6318,276.3281" style="stroke:#181818;stroke-width:1;"/><text fill="#000000" font-family="sans-serif" font-size="13" font-weight="bold" lengthAdjust="spacing" textLength="7.23" x="554.6318" y="250.2959">3</text><text fill="#000000" font-family="sans-serif" font-size="13" lengthAdjust="spacing" textLength="134.5322" x="565.8618" y="242.1201">V&#195;&#169;rifier JWT et r&#195;&#180;les</text><text fill="#000000" font-family="sans-serif" font-size="13" lengthAdjust="spacing" textLength="97.5" x="584.3779" y="258.4717">(USER / ADMIN)</text><line style="stroke:#181818;stroke-width:1;" x1="547.6318" x2="589.6318" y1="306.6797" y2="306.6797"/><line style="stroke:#181818;stroke-width:1;" x1="589.6318" x2="589.6318" y1="306.6797" y2="319.6797"/><line style="stroke:#181818;stroke-width:1;" x1="548.6318" x2="589.6318" y1="319.6797" y2="319.6797"/><polygon fill="#181818" points="558.6318,315.6797,548.6318,319.6797,558.6318,323.6797,554.6318,319.6797" style="stroke:#181818;stroke-width:1;"/><text fill="#000000" font-family="sans-serif" font-size="13" font-weight="bold" lengthAdjust="spacing" textLength="7.23" x="554.6318" y="301.8232">4</text><text fill="#000000" font-family="sans-serif" font-size="13" lengthAdjust="spacing" textLength="157.7012" x="565.8618" y="301.8232">Valider les features cr&#195;&#169;dit</text><polygon fill="#181818" points="1077.3271,362.3828,1087.3271,366.3828,1077.3271,370.3828,1081.3271,366.3828" style="stroke:#181818;stroke-width:1;"/><line style="stroke:#181818;stroke-width:1;" x1="547.6318" x2="1083.3271" y1="366.3828" y2="366.3828"/><text fill="#000000" font-family="sans-serif" font-size="13" font-weight="bold" lengthAdjust="spacing" textLength="7.23" x="680.8491" y="353.3506">5</text><text fill="#000000" font-family="sans-serif" font-size="13" lengthAdjust="spacing" textLength="188.5381" x="729.8254" y="345.1748">INSERT Decision (BROUILLON)</text><text fill="#000000" font-family="sans-serif" font-size="13" lengthAdjust="spacing" textLength="264.0308" x="692.0791" y="361.5264">+ DecisionHistory CREATED / ML_STARTED</text><polygon fill="#181818" points="558.6318,392.7344,548.6318,396.7344,558.6318,400.7344,554.6318,396.7344" style="stroke:#181818;stroke-width:1;"/><line style="stroke:#181818;stroke-width:1;stroke-dasharray:2.0,2.0;" x1="552.6318" x2="1093.3271" y1="396.7344" y2="396.7344"/><text fill="#000000" font-family="sans-serif" font-size="13" font-weight="bold" lengthAdjust="spacing" textLength="7.23" x="756.7471" y="391.8779">6</text><text fill="#000000" font-family="sans-serif" font-size="13" lengthAdjust="spacing" textLength="117.2349" x="767.9771" y="391.8779">Decision persist&#195;&#169;e</text><polygon fill="#181818" points="878.8691,439.4375,888.8691,443.4375,878.8691,447.4375,882.8691,443.4375" style="stroke:#181818;stroke-width:1;"/><line style="stroke:#181818;stroke-width:1;" x1="547.6318" x2="884.8691" y1="443.4375" y2="443.4375"/><text fill="#000000" font-family="sans-serif" font-size="13" font-weight="bold" lengthAdjust="spacing" textLength="7.23" x="636.1306" y="430.4053">7</text><text fill="#000000" font-family="sans-serif" font-size="13" lengthAdjust="spacing" textLength="81.6372" x="684.0469" y="422.2295">POST /predict</text><text fill="#000000" font-family="sans-serif" font-size="13" lengthAdjust="spacing" textLength="155.0098" x="647.3606" y="438.5811">(includeExplanation = true)</text><polygon fill="#181818" points="558.6318,486.1406,548.6318,490.1406,558.6318,494.1406,554.6318,490.1406" style="stroke:#181818;stroke-width:1;"/><line style="stroke:#181818;stroke-width:1;stroke-dasharray:2.0,2.0;" x1="552.6318" x2="894.8691" y1="490.1406" y2="490.1406"/><text fill="#000000" font-family="sans-serif" font-size="13" font-weight="bold" lengthAdjust="spacing" textLength="7.23" x="644.2483" y="477.1084">8</text><text fill="#000000" font-family="sans-serif" font-size="13" lengthAdjust="spacing" textLength="135.313" x="659.709" y="468.9326">Pr&#195;&#169;diction, confiance,</text><text fill="#000000" font-family="sans-serif" font-size="13" lengthAdjust="spacing" textLength="143.7744" x="655.4783" y="485.2842">riskLevel, facteurs SHAP</text><line style="stroke:#181818;stroke-width:1;" x1="547.6318" x2="589.6318" y1="536.8438" y2="536.8438"/><line style="stroke:#181818;stroke-width:1;" x1="589.6318" x2="589.6318" y1="536.8438" y2="549.8438"/><line style="stroke:#181818;stroke-width:1;" x1="548.6318" x2="589.6318" y1="549.8438" y2="549.8438"/><polygon fill="#181818" points="558.6318,545.8438,548.6318,549.8438,558.6318,553.8438,554.6318,549.8438" style="stroke:#181818;stroke-width:1;"/><text fill="#000000" font-family="sans-serif" font-size="13" font-weight="bold" lengthAdjust="spacing" textLength="7.23" x="554.6318" y="523.8115">9</text><text fill="#000000" font-family="sans-serif" font-size="13" lengthAdjust="spacing" textLength="97.5444" x="582.3943" y="515.6357">applyPrediction()</text><text fill="#000000" font-family="sans-serif" font-size="13" lengthAdjust="spacing" textLength="130.6094" x="565.8618" y="531.9873">&#226;&#8224;&#8217; ExplanationFactor[]</text><polygon fill="#181818" points="1077.3271,592.5469,1087.3271,596.5469,1077.3271,600.5469,1081.3271,596.5469" style="stroke:#181818;stroke-width:1;"/><line style="stroke:#181818;stroke-width:1;" x1="547.6318" x2="1083.3271" y1="596.5469" y2="596.5469"/><text fill="#000000" font-family="sans-serif" font-size="13" font-weight="bold" lengthAdjust="spacing" textLength="14.46" x="726.165" y="583.5146">10</text><text fill="#000000" font-family="sans-serif" font-size="13" lengthAdjust="spacing" textLength="132.0693" x="761.6748" y="575.3389">Sources par d&#195;&#169;faut +</text><text fill="#000000" font-family="sans-serif" font-size="13" lengthAdjust="spacing" textLength="166.1689" x="744.625" y="591.6904">historique ML_COMPLETED</text><polygon fill="#181818" points="558.6318,622.8984,548.6318,626.8984,558.6318,630.8984,554.6318,626.8984" style="stroke:#181818;stroke-width:1;"/><line style="stroke:#181818;stroke-width:1;stroke-dasharray:2.0,2.0;" x1="552.6318" x2="1093.3271" y1="626.8984" y2="626.8984"/><text fill="#000000" font-family="sans-serif" font-size="13" font-weight="bold" lengthAdjust="spacing" textLength="14.46" x="802.3582" y="622.042">11</text><text fill="#000000" font-family="sans-serif" font-size="13" lengthAdjust="spacing" textLength="18.7827" x="820.8181" y="622.042">OK</text><path d="M439.8667,641.8984 L500.0376,641.8984 L500.0376,650.25 L490.0376,660.25 L439.8667,660.25 L439.8667,641.8984 " fill="#EEEEEE" style="stroke:#000000;stroke-width:1.5;"/><rect fill="none" height="501.6484" style="stroke:#000000;stroke-width:1.5;" width="725.5913" x="439.8667" y="641.8984"/><text fill="#000000" font-family="sans-serif" font-size="13" font-weight="bold" lengthAdjust="spacing" textLength="15.1709" x="454.8667" y="656.3936">alt</text><text fill="#000000" font-family="sans-serif" font-size="11" font-weight="bold" lengthAdjust="spacing" textLength="247.9727" x="515.0376" y="655.3174">[includeOpenRouter = true et Groq configur&#195;&#169;]</text><path d="M449.8667,667.25 L522.3013,667.25 L522.3013,675.6016 L512.3013,685.6016 L449.8667,685.6016 L449.8667,667.25 " fill="#EEEEEE" style="stroke:#000000;stroke-width:1.5;"/><rect fill="none" height="251" style="stroke:#000000;stroke-width:1.5;" width="705.5913" x="449.8667" y="667.25"/><text fill="#000000" font-family="sans-serif" font-size="13" font-weight="bold" lengthAdjust="spacing" textLength="27.4346" x="464.8667" y="681.7451">loop</text><text fill="#000000" font-family="sans-serif" font-size="11" font-weight="bold" lengthAdjust="spacing" textLength="264.1934" x="537.3013" y="680.6689">[Pour chaque agent Groq (3 agents s&#195;&#169;quentiels)]</text><polygon fill="#181818" points="990.4067,703.9531,1000.4067,707.9531,990.4067,711.9531,994.4067,707.9531" style="stroke:#181818;stroke-width:1;"/><line style="stroke:#181818;stroke-width:1;" x1="547.6318" x2="996.4067" y1="707.9531" y2="707.9531"/><text fill="#000000" font-family="sans-serif" font-size="13" font-weight="bold" lengthAdjust="spacing" textLength="14.46" x="694.248" y="703.0967">12</text><text fill="#000000" font-family="sans-serif" font-size="13" lengthAdjust="spacing" textLength="143.0825" x="712.708" y="703.0967">Chat completion agent N</text><path d="M459.8667,722.9531 L520.0376,722.9531 L520.0376,731.3047 L510.0376,741.3047 L459.8667,741.3047 L459.8667,722.9531 " fill="#EEEEEE" style="stroke:#000000;stroke-width:1.5;"/><rect fill="none" height="188.2969" style="stroke:#000000;stroke-width:1.5;" width="685.5913" x="459.8667" y="722.9531"/><text fill="#000000" font-family="sans-serif" font-size="13" font-weight="bold" lengthAdjust="spacing" textLength="15.1709" x="474.8667" y="737.4482">alt</text><text fill="#000000" font-family="sans-serif" font-size="11" font-weight="bold" lengthAdjust="spacing" textLength="97.9526" x="535.0376" y="736.3721">[R&#195;&#169;ponse valide]</text><polygon fill="#181818" points="558.6318,776.0078,548.6318,780.0078,558.6318,784.0078,554.6318,780.0078" style="stroke:#181818;stroke-width:1;"/><line style="stroke:#181818;stroke-width:1;stroke-dasharray:2.0,2.0;" x1="552.6318" x2="1001.4067" y1="780.0078" y2="780.0078"/><text fill="#000000" font-family="sans-serif" font-size="13" font-weight="bold" lengthAdjust="spacing" textLength="14.46" x="681.6035" y="766.9756">13</text><text fill="#000000" font-family="sans-serif" font-size="13" lengthAdjust="spacing" textLength="168.3716" x="700.0635" y="758.7998">Recommandation, confiance,</text><text fill="#000000" font-family="sans-serif" font-size="13" lengthAdjust="spacing" textLength="61.4263" x="753.5361" y="775.1514">explication</text><polygon fill="#181818" points="1082.3271,806.3594,1092.3271,810.3594,1082.3271,814.3594,1086.3271,810.3594" style="stroke:#181818;stroke-width:1;"/><line style="stroke:#181818;stroke-width:1;" x1="547.6318" x2="1088.3271" y1="810.3594" y2="810.3594"/><text fill="#000000" font-family="sans-serif" font-size="13" font-weight="bold" lengthAdjust="spacing" textLength="14.46" x="699.4023" y="805.5029">14</text><text fill="#000000" font-family="sans-serif" font-size="13" lengthAdjust="spacing" textLength="224.6943" x="717.8623" y="805.5029">INSERT ReponseAgentIA (SUCCESS)</text><line style="stroke:#000000;stroke-width:1;stroke-dasharray:2.0,2.0;" x1="459.8667" x2="1145.458" y1="819.3594" y2="819.3594"/><text fill="#000000" font-family="sans-serif" font-size="11" font-weight="bold" lengthAdjust="spacing" textLength="144.853" x="464.8667" y="830.7783">[Erreur / timeout / rate-limit]</text><polygon fill="#181818" points="558.6318,852.5469,548.6318,856.5469,558.6318,860.5469,554.6318,856.5469" style="stroke:#181818;stroke-width:1;"/><line style="stroke:#181818;stroke-width:1;stroke-dasharray:2.0,2.0;" x1="552.6318" x2="1001.4067" y1="856.5469" y2="856.5469"/><text fill="#000000" font-family="sans-serif" font-size="13" font-weight="bold" lengthAdjust="spacing" textLength="14.46" x="713.7703" y="851.6904">15</text><text fill="#000000" font-family="sans-serif" font-size="13" lengthAdjust="spacing" textLength="104.0381" x="732.2302" y="851.6904">Erreur fournisseur</text><polygon fill="#181818" points="1082.3271,899.25,1092.3271,903.25,1082.3271,907.25,1086.3271,903.25" style="stroke:#181818;stroke-width:1;"/><line style="stroke:#181818;stroke-width:1;" x1="547.6318" x2="1088.3271" y1="903.25" y2="903.25"/><text fill="#000000" font-family="sans-serif" font-size="13" font-weight="bold" lengthAdjust="spacing" textLength="14.46" x="734.47" y="890.2178">16</text><text fill="#000000" font-family="sans-serif" font-size="13" lengthAdjust="spacing" textLength="149.5762" x="755.4214" y="882.042">INSERT ReponseAgentIA</text><text fill="#000000" font-family="sans-serif" font-size="13" lengthAdjust="spacing" textLength="154.5591" x="752.9299" y="898.3936">(FAILURE / TIMEOUT / ...)</text><line style="stroke:#181818;stroke-width:1;" x1="547.6318" x2="589.6318" y1="963.9531" y2="963.9531"/><line style="stroke:#181818;stroke-width:1;" x1="589.6318" x2="589.6318" y1="963.9531" y2="976.9531"/><line style="stroke:#181818;stroke-width:1;" x1="548.6318" x2="589.6318" y1="976.9531" y2="976.9531"/><polygon fill="#181818" points="558.6318,972.9531,548.6318,976.9531,558.6318,980.9531,554.6318,976.9531" style="stroke:#181818;stroke-width:1;"/><text fill="#000000" font-family="sans-serif" font-size="13" font-weight="bold" lengthAdjust="spacing" textLength="14.46" x="554.6318" y="950.9209">17</text><text fill="#000000" font-family="sans-serif" font-size="13" lengthAdjust="spacing" textLength="187.8652" x="586.0981" y="942.7451">Calculer consensus multi-agents</text><text fill="#000000" font-family="sans-serif" font-size="13" lengthAdjust="spacing" textLength="213.8779" x="573.0918" y="959.0967">(consensusJson, resumeConsensus)</text><polygon fill="#181818" points="1082.3271,1003.3047,1092.3271,1007.3047,1082.3271,1011.3047,1086.3271,1007.3047" style="stroke:#181818;stroke-width:1;"/><line style="stroke:#181818;stroke-width:1;" x1="547.6318" x2="1088.3271" y1="1007.3047" y2="1007.3047"/><text fill="#000000" font-family="sans-serif" font-size="13" font-weight="bold" lengthAdjust="spacing" textLength="14.46" x="692.9087" y="1002.4482">18</text><text fill="#000000" font-family="sans-serif" font-size="13" lengthAdjust="spacing" textLength="237.6816" x="711.3687" y="1002.4482">Historique CONSENSUS_CALCULATED</text><line style="stroke:#000000;stroke-width:1;stroke-dasharray:2.0,2.0;" x1="439.8667" x2="1165.458" y1="1016.3047" y2="1016.3047"/><text fill="#000000" font-family="sans-serif" font-size="11" font-weight="bold" lengthAdjust="spacing" textLength="309.6704" x="444.8667" y="1027.7236">[Groq indisponible ou non configur&#195;&#169; (mode d&#195;&#169;grad&#195;&#169;)]</text><line style="stroke:#181818;stroke-width:1;" x1="547.6318" x2="589.6318" y1="1069.8438" y2="1069.8438"/><line style="stroke:#181818;stroke-width:1;" x1="589.6318" x2="589.6318" y1="1069.8438" y2="1082.8438"/><line style="stroke:#181818;stroke-width:1;" x1="548.6318" x2="589.6318" y1="1082.8438" y2="1082.8438"/><polygon fill="#181818" points="558.6318,1078.8438,548.6318,1082.8438,558.6318,1086.8438,554.6318,1082.8438" style="stroke:#181818;stroke-width:1;"/><text fill="#000000" font-family="sans-serif" font-size="13" font-weight="bold" lengthAdjust="spacing" textLength="14.46" x="554.6318" y="1056.8115">19</text><text fill="#000000" font-family="sans-serif" font-size="13" lengthAdjust="spacing" textLength="152.4834" x="573.0918" y="1048.6357">Consensus &#194;&#171; skipped &#194;&#187;</text><text fill="#000000" font-family="sans-serif" font-size="13" lengthAdjust="spacing" textLength="114.3721" x="592.1475" y="1064.9873">ou agents ignor&#195;&#169;s</text><path d="M552,1095.8438 L552,1137.8438 L770,1137.8438 L770,1105.8438 L760,1095.8438 L552,1095.8438 " fill="#F8FAFC" style="stroke:#94A3B8;stroke-width:0.5;"/><path d="M760,1095.8438 L760,1105.8438 L770,1105.8438 L760,1095.8438 " fill="#F8FAFC" style="stroke:#94A3B8;stroke-width:0.5;"/><text fill="#000000" font-family="sans-serif" font-size="13" lengthAdjust="spacing" textLength="197.6343" x="558" y="1114.3389">La d&#195;&#169;cision ML est conserv&#195;&#169;e.</text><text fill="#000000" font-family="sans-serif" font-size="13" lengthAdjust="spacing" textLength="192.4165" x="558" y="1130.6904">Groq ne bloque pas la cr&#195;&#169;ation.</text><line style="stroke:#181818;stroke-width:1;" x1="547.6318" x2="589.6318" y1="1205.6016" y2="1205.6016"/><line style="stroke:#181818;stroke-width:1;" x1="589.6318" x2="589.6318" y1="1205.6016" y2="1218.6016"/><line style="stroke:#181818;stroke-width:1;" x1="548.6318" x2="589.6318" y1="1218.6016" y2="1218.6016"/><polygon fill="#181818" points="558.6318,1214.6016,548.6318,1218.6016,558.6318,1222.6016,554.6318,1218.6016" style="stroke:#181818;stroke-width:1;"/><text fill="#000000" font-family="sans-serif" font-size="13" font-weight="bold" lengthAdjust="spacing" textLength="14.46" x="554.6318" y="1184.3936">20</text><text fill="#000000" font-family="sans-serif" font-size="13" lengthAdjust="spacing" textLength="140.6958" x="653.1326" y="1168.042">Statut &#226;&#8224;&#8217; EN_ATTENTE</text><text fill="#000000" font-family="sans-serif" font-size="13" lengthAdjust="spacing" textLength="201.0493" x="622.9558" y="1184.3936">Hashes m&#195;&#169;tier / sources / agents</text><text fill="#000000" font-family="sans-serif" font-size="13" lengthAdjust="spacing" textLength="300.7773" x="573.0918" y="1200.7451">Cha&#195;&#174;nage SHA-256 (previousHash / currentHash)</text><polygon fill="#181818" points="1077.3271,1244.9531,1087.3271,1248.9531,1077.3271,1252.9531,1081.3271,1248.9531" style="stroke:#181818;stroke-width:1;"/><line style="stroke:#181818;stroke-width:1;" x1="547.6318" x2="1083.3271" y1="1248.9531" y2="1248.9531"/><text fill="#000000" font-family="sans-serif" font-size="13" font-weight="bold" lengthAdjust="spacing" textLength="14.46" x="725.0859" y="1244.0967">21</text><text fill="#000000" font-family="sans-serif" font-size="13" lengthAdjust="spacing" textLength="168.3271" x="743.5459" y="1244.0967">UPDATE Decision compl&#195;&#168;te</text><polygon fill="#181818" points="558.6318,1275.3047,548.6318,1279.3047,558.6318,1283.3047,554.6318,1279.3047" style="stroke:#181818;stroke-width:1;"/><line style="stroke:#181818;stroke-width:1;stroke-dasharray:2.0,2.0;" x1="552.6318" x2="1093.3271" y1="1279.3047" y2="1279.3047"/><text fill="#000000" font-family="sans-serif" font-size="13" font-weight="bold" lengthAdjust="spacing" textLength="14.46" x="741.9221" y="1274.4482">22</text><text fill="#000000" font-family="sans-serif" font-size="13" lengthAdjust="spacing" textLength="139.6548" x="760.3821" y="1274.4482">Decision sauvegard&#195;&#169;e</text><polygon fill="#181818" points="321.2012,1322.0078,311.2012,1326.0078,321.2012,1330.0078,317.2012,1326.0078" style="stroke:#181818;stroke-width:1;"/><line style="stroke:#181818;stroke-width:1;stroke-dasharray:2.0,2.0;" x1="315.2012" x2="541.6318" y1="1326.0078" y2="1326.0078"/><text fill="#000000" font-family="sans-serif" font-size="13" font-weight="bold" lengthAdjust="spacing" textLength="14.46" x="324.7012" y="1312.9756">23</text><text fill="#000000" font-family="sans-serif" font-size="13" lengthAdjust="spacing" textLength="108.3926" x="381.4502" y="1304.7998">DecisionResponse</text><text fill="#000000" font-family="sans-serif" font-size="13" lengthAdjust="spacing" textLength="184.9707" x="343.1611" y="1321.1514">(ML, SHAP, agents, consensus)</text><polygon fill="#181818" points="51.1206,1368.7109,41.1206,1372.7109,51.1206,1376.7109,47.1206,1372.7109" style="stroke:#181818;stroke-width:1;"/><line style="stroke:#181818;stroke-width:1;stroke-dasharray:2.0,2.0;" x1="45.1206" x2="309.2012" y1="1372.7109" y2="1372.7109"/><text fill="#000000" font-family="sans-serif" font-size="13" font-weight="bold" lengthAdjust="spacing" textLength="14.46" x="52.1206" y="1359.6787">24</text><text fill="#000000" font-family="sans-serif" font-size="13" lengthAdjust="spacing" textLength="140.353" x="114.2144" y="1351.5029">Afficher pr&#195;&#169;diction ML,</text><text fill="#000000" font-family="sans-serif" font-size="13" lengthAdjust="spacing" textLength="227.6206" x="70.5806" y="1367.8545">facteurs SHAP, agents IA et consensus</text><path d="M5,1385.7109 L5,1444.7109 L1129,1444.7109 L1129,1395.7109 L1119,1385.7109 L5,1385.7109 " fill="#F8FAFC" style="stroke:#94A3B8;stroke-width:0.5;"/><path d="M1119,1385.7109 L1119,1395.7109 L1129,1395.7109 L1119,1385.7109 " fill="#F8FAFC" style="stroke:#94A3B8;stroke-width:0.5;"/><text fill="#000000" font-family="sans-serif" font-size="13" lengthAdjust="spacing" textLength="350.4414" x="387.5083" y="1404.2061">La validation humaine (approuver / rejeter / modifier / review)</text><text fill="#000000" font-family="sans-serif" font-size="13" lengthAdjust="spacing" textLength="52.749" x="387.5083" y="1420.5576">intervient</text><text fill="#000000" font-family="sans-serif" font-size="13" font-weight="bold" lengthAdjust="spacing" textLength="41.1772" x="443.8691" y="1420.5576">apr&#195;&#168;s</text><text fill="#000000" font-family="sans-serif" font-size="13" lengthAdjust="spacing" textLength="200.897" x="488.6582" y="1420.5576">cette analyse, via ValidationAction.</text><text fill="#000000" font-family="sans-serif" font-size="13" lengthAdjust="spacing" textLength="324.6572" x="387.5083" y="1436.9092">Les agents Groq ne prennent jamais la d&#195;&#169;cision finale.</text><!--SRC=[ZLRBZjis5DthAowcYzeJpmpGf4KwG0l86hlZL7xKijj5fmWu4cqpaKc5f9nCLq7w5LqKABfAqQAhxhhB_4c-f8UKRCkJzB6o95uUddlkkPTcfLMoN5zp7PYdGXPCipMP5SlKSo6Nj62vuSqL_gpaCkL3RWnRyZ0NIqafb_PWlrIMTrdwTAbLARD8vKhJ1_s7_R0VtOrIEkEwZlZqGNY_-p08hB0vf-JsXpU_LgVHxIzlN_t-zkLF56dtbLcX96KVbf9JvZwamhWlBIPPVcCufJui4xOT12or03-QMv4BmomlzH4nGtC3oY1YHIeA9YqTzRL27ZAZK2xBd5LX_TvXa4lBnII5TlfqbR8-hdidBk5w8y1y6DFangwKz573-30gd0pe2wsU-KNt46JCick658ucojYbvibNiL-zw0Q1uqmdduCKdLF2aBIcZ9jKYy8fqg7KPV32yYl9BIquiwNcPgz6W8tOtdNR9-DaHcUi46SPh-GpPrw-xx6xzUYR6Ts3sXox-ZNErDNUG58eAZPGqYKTTFUGNxjZj5W8i7G0uE1E_ZFd1f3pf3UbCmelXeDH-s0RomLCG0Xx7-SwzAABqC4883EwuDk2TwVZ-I2EnwFsbRot-tuf36f-Gz6q5yvw5pXr63zEPk4KBtlsK1IW9riQEz22QmC0TpuFCjwChxcWg5i12oTHQf6Va6bUPhpteiYXetVePsHroHk2eVxOkpjoKYUPxggt40n-xrn9BSpJc6zuta4FfiwrXfBBSD8a1BIcZgmeyfj9nGTuBKY2lddvyzkNFrA3LTytnBVVDNLDLAbJg0vpLWsrOAMbUrTovPKKABoJC1eF9t7ltqGSVtbNCPPRggKP5rnELObPKIlZ7E9SNsM-BBqS0L6kL44JSA9qnTpP63Mo3ctThzuCcUs0i8BdferzH5LEFl2SeXMpW5uNEVVbg516Fd37qNUT_mAYKmTPe1KuRRmh_GfLWBiafnoWQoOpzcxTE8GMgL-ezxvhtodtHuIEpY2aLZAFebwIL1aW5KuzhL5n-DQADOTYUD8WUvABDJhYVPpg7Gk89eKnUFwVnyEv_N0GpwSz738R37lZEMnDfwUdDH-P-Tz6MMl9gfM60IEMfsMEwgOENvhIqBhChJYf2eQJTWkFZ1CEZLwkURJzs0uEw5xklHUDGNsKp9F7KHX7yzXrTU2LyYe8cGc3fCGrxWrLucQH1vQYrbfbzLMnrCp_jkzmtr6-VVNcDy8jLHGySoz_NKb0rfx3TQSyfC5sTu6H5ikL9RLmmz3f5BE3AmdjZfbPAQ8tVgQS1hlouVwwpfNBiC28prazzhnzJYk9_Ic1qxhPwud5dBIqx-_Hut0swurclIjvoSmAlRnsIDRDuZCoTN-VqROKw0si_o7nxkRAoKSVVq8j3BEDKALn28XDIvXAMlVMRawB-UG21TWFJDzYG7iDelyvNGqhDtp9TFQFytLxmMstJBdnXeL_Xd77Jy5EdKTdRxLs4yfTJFqAoj-PvnGk5Y9TuR5epboK1prxC62tq8JEv7QF7mI-t6e338VPSNnzkVsag0R-gbmpWQAsC8lntsVZnTVy2RV-2IwiRaVtSIFuSsT2uVuyuGMZwVYOUNglpV4n_bLPd5V_e-dGHh3gflGdXUdM8Z7AMZFUMWfbbDBXFM6WuttLjEH201Ckt9dhRm00]--></g></svg>