<svg xmlns="http://www.w3.org/2000/svg" xmlns:xlink="http://www.w3.org/1999/xlink" contentStyleType="text/css" height="1894px" preserveAspectRatio="none" style="width:1132px;height:1894px;background:#FFFFFF;" version="1.1" viewBox="0 0 1132 1894" width="1132px" zoomAndPan="magnify"><title>Cas d'utilisation &#226;&#8364;&#8221; Tra&#195;&#167;abilit&#195;&#169; IA</title><defs/><g><text fill="#000000" font-family="sans-serif" font-size="14" font-weight="bold" lengthAdjust="spacing" textLength="248.582" x="434.709" y="24.5332">Cas d'utilisation &#226;&#8364;&#8221; Tra&#195;&#167;abilit&#195;&#169; IA</text><!--cluster Application Tra??abilit?? IA--><g id="cluster_Application Tra&#195;&#167;abilit&#195;&#169; IA"><rect fill="#FFFFFF" height="1661" rx="2.5" ry="2.5" style="stroke:#6B7280;stroke-width:1;" width="825" x="301" y="136.1094"/><text fill="#000000" font-family="sans-serif" font-size="14" font-weight="bold" lengthAdjust="spacing" textLength="190.7773" x="618.1113" y="152.6426">Application Tra&#195;&#167;abilit&#195;&#169; IA</text></g><g id="elem_UC_Login"><ellipse cx="429.4372" cy="780.2968" fill="#FFFFFF" rx="58.9372" ry="14.1874" style="stroke:#4B5563;stroke-width:0.5;"/><text fill="#000000" font-family="Arial" font-size="12" lengthAdjust="spacing" textLength="76.0664" x="391.404" y="782.6533">Login / Logout</text></g><g id="elem_UC_Dashboard"><ellipse cx="429.2847" cy="832.8663" fill="#FFFFFF" rx="79.2847" ry="18.2569" style="stroke:#4B5563;stroke-width:0.5;"/><text fill="#000000" font-family="Arial" font-size="12" lengthAdjust="spacing" textLength="124.0781" x="367.2457" y="835.2228">Consulter le dashboard</text></g><g id="elem_UC_Create"><ellipse cx="429.4447" cy="890.0983" fill="#FFFFFF" rx="77.9447" ry="17.9889" style="stroke:#4B5563;stroke-width:0.5;"/><text fill="#000000" font-family="Arial" font-size="12" lengthAdjust="spacing" textLength="121.0664" x="368.9115" y="892.4548">Cr&#195;&#169;er une d&#195;&#169;cision</text></g><g id="elem_UC_List"><ellipse cx="429.5438" cy="947.2181" fill="#FFFFFF" rx="83.5438" ry="19.1088" style="stroke:#4B5563;stroke-width:0.5;"/><text fill="#000000" font-family="Arial" font-size="12" lengthAdjust="spacing" textLength="133.5645" x="362.7616" y="949.5746">Consulter les d&#195;&#169;cisions</text></g><g id="elem_UC_Detail"><ellipse cx="429.6092" cy="1011.0312" fill="#FFFFFF" rx="112.6092" ry="24.9218" style="stroke:#4B5563;stroke-width:0.5;"/><text fill="#000000" font-family="Arial" font-size="12" lengthAdjust="spacing" textLength="196.0781" x="331.5701" y="1013.3877">Consulter le d&#195;&#169;tail d'une d&#195;&#169;cision</text></g><g id="elem_UC_Update"><ellipse cx="429.5575" cy="1074.3209" fill="#FFFFFF" rx="79.0575" ry="18.2115" style="stroke:#4B5563;stroke-width:0.5;"/><text fill="#000000" font-family="Arial" font-size="12" lengthAdjust="spacing" textLength="123.5684" x="367.7733" y="1076.6773">Modifier une d&#195;&#169;cision</text></g><g id="elem_UC_Schema"><ellipse cx="429.2777" cy="1133.8649" fill="#FFFFFF" rx="96.7777" ry="21.7555" style="stroke:#4B5563;stroke-width:0.5;"/><text fill="#000000" font-family="Arial" font-size="12" lengthAdjust="spacing" textLength="162.4043" x="348.0756" y="1136.2214">Consulter le sch&#195;&#169;ma cr&#195;&#169;dit</text></g><g id="elem_UC_AddSource"><ellipse cx="429.5831" cy="1192.326" fill="#FFFFFF" rx="69.0831" ry="16.2166" style="stroke:#4B5563;stroke-width:0.5;"/><text fill="#000000" font-family="Arial" font-size="12" lengthAdjust="spacing" textLength="100.7285" x="379.2189" y="1194.6824">Ajouter une source</text></g><g id="elem_UC_ListSources"><ellipse cx="429.4337" cy="1246.0961" fill="#FFFFFF" rx="75.4337" ry="17.4867" style="stroke:#4B5563;stroke-width:0.5;"/><text fill="#000000" font-family="Arial" font-size="12" lengthAdjust="spacing" textLength="115.3828" x="371.7423" y="1248.4526">Consulter les sources</text></g><g id="elem_UC_DelSource"><ellipse cx="429.6138" cy="616.3321" fill="#FFFFFF" rx="76.6138" ry="17.7228" style="stroke:#4B5563;stroke-width:0.5;"/><text fill="#000000" font-family="Arial" font-size="12" lengthAdjust="spacing" textLength="118.0605" x="370.5835" y="618.6886">Supprimer une source</text></g><g id="elem_UC_History"><ellipse cx="429.3111" cy="671.2716" fill="#FFFFFF" rx="73.8111" ry="17.1622" style="stroke:#4B5563;stroke-width:0.5;"/><text fill="#000000" font-family="Arial" font-size="12" lengthAdjust="spacing" textLength="111.6797" x="373.4713" y="673.628">Consulter l'historique</text></g><g id="elem_UC_Submit"><ellipse cx="429.2795" cy="726.8653" fill="#FFFFFF" rx="79.2795" ry="18.2559" style="stroke:#4B5563;stroke-width:0.5;"/><text fill="#000000" font-family="Arial" font-size="12" lengthAdjust="spacing" textLength="124.0664" x="367.2463" y="729.2217">Soumettre &#195;&#160; validation</text></g><g id="elem_UC_ML"><ellipse cx="719.2348" cy="486.0563" fill="#FFFFFF" rx="90.2348" ry="20.447" style="stroke:#4B5563;stroke-width:0.5;"/><text fill="#000000" font-family="Arial" font-size="12" lengthAdjust="spacing" textLength="148.248" x="645.1108" y="488.4128">Obtenir une pr&#195;&#169;diction ML</text></g><g id="elem_UC_SHAP"><ellipse cx="1002.7848" cy="485.8663" fill="#FFFFFF" rx="106.7848" ry="23.757" style="stroke:#4B5563;stroke-width:0.5;"/><text fill="#000000" font-family="Arial" font-size="12" lengthAdjust="spacing" textLength="183.7676" x="910.901" y="488.2228">G&#195;&#169;n&#195;&#169;rer une explication SHAP</text></g><g id="elem_UC_Agents"><ellipse cx="719.0775" cy="1354.9249" fill="#FFFFFF" rx="79.5775" ry="18.3155" style="stroke:#4B5563;stroke-width:0.5;"/><text fill="#000000" font-family="Arial" font-size="12" lengthAdjust="spacing" textLength="124.7344" x="656.7104" y="1357.2813">Interroger les agents IA</text></g><g id="elem_UC_Consensus"><ellipse cx="718.8189" cy="834.2732" fill="#FFFFFF" rx="76.3189" ry="17.6638" style="stroke:#4B5563;stroke-width:0.5;"/><text fill="#000000" font-family="Arial" font-size="12" lengthAdjust="spacing" textLength="117.3926" x="660.1226" y="836.6296">Calculer le consensus</text></g><g id="elem_UC_Pending"><ellipse cx="429.6167" cy="437.0327" fill="#FFFFFF" rx="92.6167" ry="20.9233" style="stroke:#4B5563;stroke-width:0.5;"/><text fill="#000000" font-family="Arial" font-size="12" lengthAdjust="spacing" textLength="153.4219" x="352.9057" y="439.3892">Consulter la file de validation</text></g><g id="elem_UC_Approve"><ellipse cx="429.261" cy="497.9616" fill="#FFFFFF" rx="84.761" ry="19.3522" style="stroke:#4B5563;stroke-width:0.5;"/><text fill="#000000" font-family="Arial" font-size="12" lengthAdjust="spacing" textLength="136.2539" x="361.134" y="500.318">Approuver une d&#195;&#169;cision</text></g><g id="elem_UC_Reject"><ellipse cx="429.2823" cy="189.9658" fill="#FFFFFF" rx="77.2823" ry="17.8565" style="stroke:#4B5563;stroke-width:0.5;"/><text fill="#000000" font-family="Arial" font-size="12" lengthAdjust="spacing" textLength="119.5723" x="369.4962" y="192.3223">Rejeter une d&#195;&#169;cision</text></g><g id="elem_UC_Modify"><ellipse cx="429.7069" cy="250.3508" fill="#FFFFFF" rx="96.7069" ry="21.7414" style="stroke:#4B5563;stroke-width:0.5;"/><text fill="#000000" font-family="Arial" font-size="12" lengthAdjust="spacing" textLength="162.252" x="348.5809" y="252.7072">Modifier la d&#195;&#169;cision humaine</text></g><g id="elem_UC_Review"><ellipse cx="429.577" cy="310.3248" fill="#FFFFFF" rx="81.577" ry="18.7154" style="stroke:#4B5563;stroke-width:0.5;"/><text fill="#000000" font-family="Arial" font-size="12" lengthAdjust="spacing" textLength="129.1992" x="364.9774" y="312.6812">Review d'une d&#195;&#169;cision</text></g><g id="elem_UC_ValHistory"><ellipse cx="429.6385" cy="372.2371" fill="#FFFFFF" rx="106.1385" ry="23.6277" style="stroke:#4B5563;stroke-width:0.5;"/><text fill="#000000" font-family="Arial" font-size="12" lengthAdjust="spacing" textLength="182.3965" x="338.4402" y="374.5935">Consulter l'historique de validation</text></g><g id="elem_UC_Compare"><ellipse cx="429.2876" cy="557.8669" fill="#FFFFFF" rx="86.7876" ry="19.7575" style="stroke:#4B5563;stroke-width:0.5;"/><text fill="#000000" font-family="Arial" font-size="12" lengthAdjust="spacing" textLength="140.7129" x="358.9311" y="560.2233">Comparer les mod&#195;&#168;les IA</text></g><g id="elem_UC_Audit"><ellipse cx="429.2905" cy="1299.0675" fill="#FFFFFF" rx="62.7905" ry="14.9581" style="stroke:#4B5563;stroke-width:0.5;"/><text fill="#000000" font-family="Arial" font-size="12" lengthAdjust="spacing" textLength="85.6699" x="386.4555" y="1301.4239">Consulter l'audit</text></g><g id="elem_UC_AuditDetail"><ellipse cx="429.4065" cy="1357.0907" fill="#FFFFFF" rx="102.9065" ry="22.9813" style="stroke:#4B5563;stroke-width:0.5;"/><text fill="#000000" font-family="Arial" font-size="12" lengthAdjust="spacing" textLength="175.5234" x="341.6448" y="1359.4471">Consulter l'audit d'une d&#195;&#169;cision</text></g><g id="elem_UC_Integrity"><ellipse cx="429.2538" cy="1417.9601" fill="#FFFFFF" rx="77.2538" ry="17.8508" style="stroke:#4B5563;stroke-width:0.5;"/><text fill="#000000" font-family="Arial" font-size="12" lengthAdjust="spacing" textLength="119.5078" x="369.4999" y="1420.3166">V&#195;&#169;rifier l'int&#195;&#169;grit&#195;&#169;</text></g><g id="elem_UC_Users"><ellipse cx="429.5653" cy="1474.0224" fill="#FFFFFF" rx="77.5653" ry="17.9131" style="stroke:#4B5563;stroke-width:0.5;"/><text fill="#000000" font-family="Arial" font-size="12" lengthAdjust="spacing" textLength="120.2109" x="369.4598" y="1476.3789">G&#195;&#169;rer les utilisateurs</text></g><g id="elem_UC_CreateUser"><ellipse cx="429.2548" cy="1529.2603" fill="#FFFFFF" rx="73.7548" ry="17.151" style="stroke:#4B5563;stroke-width:0.5;"/><text fill="#000000" font-family="Arial" font-size="12" lengthAdjust="spacing" textLength="111.5508" x="373.4794" y="1531.6168">Cr&#195;&#169;er un utilisateur</text></g><g id="elem_UC_UpdateUser"><ellipse cx="429.3496" cy="1583.9793" fill="#FFFFFF" rx="74.8496" ry="17.3699" style="stroke:#4B5563;stroke-width:0.5;"/><text fill="#000000" font-family="Arial" font-size="12" lengthAdjust="spacing" textLength="114.0527" x="372.3233" y="1586.3357">Modifier un utilisateur</text></g><g id="elem_UC_DeleteUser"><ellipse cx="429.4681" cy="1640.103" fill="#FFFFFF" rx="80.4681" ry="18.4936" style="stroke:#4B5563;stroke-width:0.5;"/><text fill="#000000" font-family="Arial" font-size="12" lengthAdjust="spacing" textLength="126.7266" x="366.1049" y="1642.4594">Supprimer un utilisateur</text></g><g id="elem_UC_GroqStatus"><ellipse cx="429.4681" cy="1697.103" fill="#FFFFFF" rx="80.4681" ry="18.4936" style="stroke:#4B5563;stroke-width:0.5;"/><text fill="#000000" font-family="Arial" font-size="12" lengthAdjust="spacing" textLength="126.7266" x="366.1049" y="1699.4594">Consulter le statut Groq</text></g><g id="elem_UC_RetryAgents"><ellipse cx="429.5107" cy="1757.9115" fill="#FFFFFF" rx="99.5107" ry="22.3021" style="stroke:#4B5563;stroke-width:0.5;"/><text fill="#000000" font-family="Arial" font-size="12" lengthAdjust="spacing" textLength="168.2695" x="345.376" y="1760.268">Relancer les agents en &#195;&#169;chec</text></g><!--entity User--><g id="elem_User"><ellipse cx="239.8977" cy="903.6094" fill="#F1F1F1" rx="16" ry="16" style="stroke:#111827;stroke-width:0.5;"/><path d="M239.8977,923.6094 C243.8977,923.6094 246.8977,923.6094 250.8977,919.6094 C258.8977,919.6094 266.8977,927.6094 266.8977,935.6094 L266.8977,939.6094 C266.8977,943.6094 262.8977,947.6094 258.8977,947.6094 L220.8977,947.6094 C216.8977,947.6094 212.8977,943.6094 212.8977,939.6094 L212.8977,935.6094 C212.8977,927.6094 220.8977,919.6094 228.8977,919.6094 C232.8977,923.6094 235.8977,923.6094 239.8977,923.6094 " fill="#F1F1F1" style="stroke:#111827;stroke-width:0.5;"/><text fill="#000000" font-family="Arial" font-size="13" lengthAdjust="spacing" textLength="57.7954" x="211" y="960.3032">Utilisateur</text></g><!--entity Validator--><g id="elem_Validator"><ellipse cx="150.269" cy="415.6094" fill="#F1F1F1" rx="16" ry="16" style="stroke:#111827;stroke-width:0.5;"/><path d="M150.269,435.6094 C154.269,435.6094 157.269,435.6094 161.269,431.6094 C169.269,431.6094 177.269,439.6094 177.269,447.6094 L177.269,451.6094 C177.269,455.6094 173.269,459.6094 169.269,459.6094 L131.269,459.6094 C127.269,459.6094 123.269,455.6094 123.269,451.6094 L123.269,447.6094 C123.269,439.6094 131.269,431.6094 139.269,431.6094 C143.269,435.6094 146.269,435.6094 150.269,435.6094 " fill="#F1F1F1" style="stroke:#111827;stroke-width:0.5;"/><text fill="#000000" font-family="Arial" font-size="13" lengthAdjust="spacing" textLength="58.5381" x="121" y="472.3032">Validateur</text></g><!--entity Auditor--><g id="elem_Auditor"><ellipse cx="150.5" cy="1306.6094" fill="#F1F1F1" rx="16" ry="16" style="stroke:#111827;stroke-width:0.5;"/><path d="M150.5,1326.6094 C154.5,1326.6094 157.5,1326.6094 161.5,1322.6094 C169.5,1322.6094 177.5,1330.6094 177.5,1338.6094 L177.5,1342.6094 C177.5,1346.6094 173.5,1350.6094 169.5,1350.6094 L131.5,1350.6094 C127.5,1350.6094 123.5,1346.6094 123.5,1342.6094 L123.5,1338.6094 C123.5,1330.6094 131.5,1322.6094 139.5,1322.6094 C143.5,1326.6094 146.5,1326.6094 150.5,1326.6094 " fill="#F1F1F1" style="stroke:#111827;stroke-width:0.5;"/><text fill="#000000" font-family="Arial" font-size="13" lengthAdjust="spacing" textLength="48.4199" x="126.29" y="1363.3032">Auditeur</text></g><!--entity Admin--><g id="elem_Admin"><ellipse cx="47.9041" cy="1538.6094" fill="#F1F1F1" rx="16" ry="16" style="stroke:#111827;stroke-width:0.5;"/><path d="M47.9041,1558.6094 C51.9041,1558.6094 54.9041,1558.6094 58.9041,1554.6094 C66.9041,1554.6094 74.9041,1562.6094 74.9041,1570.6094 L74.9041,1574.6094 C74.9041,1578.6094 70.9041,1582.6094 66.9041,1582.6094 L28.9041,1582.6094 C24.9041,1582.6094 20.9041,1578.6094 20.9041,1574.6094 L20.9041,1570.6094 C20.9041,1562.6094 28.9041,1554.6094 36.9041,1554.6094 C40.9041,1558.6094 43.9041,1558.6094 47.9041,1558.6094 " fill="#F1F1F1" style="stroke:#111827;stroke-width:0.5;"/><text fill="#000000" font-family="Arial" font-size="13" lengthAdjust="spacing" textLength="83.8081" x="6" y="1595.3032">Administrateur</text></g><!--entity ML--><g id="elem_ML"><ellipse cx="429.5095" cy="60.6094" fill="#F1F1F1" rx="16" ry="16" style="stroke:#111827;stroke-width:0.5;"/><path d="M429.5095,80.6094 C433.5095,80.6094 436.5095,80.6094 440.5095,76.6094 C448.5095,76.6094 456.5095,84.6094 456.5095,92.6094 L456.5095,96.6094 C456.5095,100.6094 452.5095,104.6094 448.5095,104.6094 L410.5095,104.6094 C406.5095,104.6094 402.5095,100.6094 402.5095,96.6094 L402.5095,92.6094 C402.5095,84.6094 410.5095,76.6094 418.5095,76.6094 C422.5095,80.6094 425.5095,80.6094 429.5095,80.6094 " fill="#F1F1F1" style="stroke:#111827;stroke-width:0.5;"/><text fill="#000000" font-family="Arial" font-size="13" lengthAdjust="spacing" textLength="65.019" x="397" y="117.3032">Service ML</text></g><!--entity Groq--><g id="elem_Groq"><ellipse cx="429.4399" cy="1829.6094" fill="#F1F1F1" rx="16" ry="16" style="stroke:#111827;stroke-width:0.5;"/><path d="M429.4399,1849.6094 C433.4399,1849.6094 436.4399,1849.6094 440.4399,1845.6094 C448.4399,1845.6094 456.4399,1853.6094 456.4399,1861.6094 L456.4399,1865.6094 C456.4399,1869.6094 452.4399,1873.6094 448.4399,1873.6094 L410.4399,1873.6094 C406.4399,1873.6094 402.4399,1869.6094 402.4399,1865.6094 L402.4399,1861.6094 C402.4399,1853.6094 410.4399,1845.6094 418.4399,1845.6094 C422.4399,1849.6094 425.4399,1849.6094 429.4399,1849.6094 " fill="#F1F1F1" style="stroke:#111827;stroke-width:0.5;"/><text fill="#000000" font-family="Arial" font-size="13" lengthAdjust="spacing" textLength="88.8799" x="385" y="1886.3032">Agents IA Groq</text></g><!--link Validator to User--><g id="link_Validator_User"><path d="M158.37,475.3994 C174.72,566.6294 212.6624,778.2321 228.9924,869.2821 " fill="none" id="Validator-to-User" style="stroke:#181818;stroke-width:1;"/><polygon fill="none" points="232.17,886.9994,234.8981,868.2229,223.0866,870.3413,232.17,886.9994" style="stroke:#181818;stroke-width:1;"/></g><!--link Auditor to User--><g id="link_Auditor_User"><path d="M159.81,1289.8294 C176.53,1212.8094 210.2524,1057.5299 226.9224,980.7199 " fill="none" id="Auditor-to-User" style="stroke:#181818;stroke-width:1;"/><polygon fill="none" points="230.74,963.1294,221.0589,979.4473,232.7859,981.9924,230.74,963.1294" style="stroke:#181818;stroke-width:1;"/></g><!--link Admin to Validator--><g id="link_Admin_Validator"><path d="M52.4,1522.0994 C67.77,1350.3594 129.0456,665.6377 144.4656,493.3277 " fill="none" id="Admin-to-Validator" style="stroke:#181818;stroke-width:1;"/><polygon fill="none" points="146.07,475.3994,138.4895,492.7929,150.4417,493.8625,146.07,475.3994" style="stroke:#181818;stroke-width:1;"/></g><!--link Admin to Auditor--><g id="link_Admin_Auditor"><path d="M65.48,1522.0594 C84.14,1478.9994 107.1942,1425.7659 125.8542,1382.6959 " fill="none" id="Admin-to-Auditor" style="stroke:#181818;stroke-width:1;"/><polygon fill="none" points="133.01,1366.1794,120.3487,1380.3106,131.3598,1385.0811,133.01,1366.1794" style="stroke:#181818;stroke-width:1;"/></g><!--link User to UC_Login--><g id="link_User_UC_Login"><path d="M247.47,887.0694 C254.15,859.7894 267.37,824.4194 293,804.1094 C314.72,786.8994 338.5976,780.819 364.7576,778.809 " fill="none" id="User-to-UC_Login" style="stroke:#181818;stroke-width:1;"/><polygon fill="#181818" points="370.74,778.3494,361.46,775.0506,365.7547,778.7324,362.0729,783.0271,370.74,778.3494" style="stroke:#181818;stroke-width:1;"/></g><!--link User to UC_Dashboard--><g id="link_User_UC_Dashboard"><path d="M265.55,887.0394 C273.29,877.6294 282.58,868.4394 293,862.1094 C311.51,850.8694 327.8686,845.1363 348.9286,840.8863 " fill="none" id="User-to-UC_Dashboard" style="stroke:#181818;stroke-width:1;"/><polygon fill="#181818" points="354.81,839.6994,345.1966,837.5588,349.9088,840.6885,346.7791,845.4007,354.81,839.6994" style="stroke:#181818;stroke-width:1;"/></g><!--link User to UC_Create--><g id="link_User_UC_Create"><path d="M269.07,919.8694 C295.22,914.9894 329.1819,908.6504 362.5019,902.4304 " fill="none" id="User-to-UC_Create" style="stroke:#181818;stroke-width:1;"/><polygon fill="#181818" points="368.4,901.3294,358.8188,899.0488,363.4849,902.2469,360.2868,906.913,368.4,901.3294" style="stroke:#181818;stroke-width:1;"/></g><!--link User to UC_List--><g id="link_User_UC_List"><path d="M269.07,928.3994 C291.75,931.0594 318.7811,934.2283 348.8711,937.7683 " fill="none" id="User-to-UC_List" style="stroke:#181818;stroke-width:1;"/><polygon fill="#181818" points="354.83,938.4694,346.359,933.4452,349.8642,937.8852,345.4243,941.3904,354.83,938.4694" style="stroke:#181818;stroke-width:1;"/></g><!--link User to UC_Detail--><g id="link_User_UC_Detail"><path d="M269,957.7594 C276.23,964.6294 284.41,971.2594 293,976.1094 C307.7,984.4194 318.6552,989.0915 335.1952,993.9715 " fill="none" id="User-to-UC_Detail" style="stroke:#181818;stroke-width:1;"/><polygon fill="#181818" points="340.95,995.6694,333.4498,989.286,336.1544,994.2545,331.1859,996.959,340.95,995.6694" style="stroke:#181818;stroke-width:1;"/></g><!--link User to UC_Update--><g id="link_User_UC_Update"><path d="M247.71,963.2294 C254.5,990.3494 267.75,1025.5094 293,1046.1094 C309.47,1059.5494 324.8612,1065.8894 345.6512,1069.9494 " fill="none" id="User-to-UC_Update" style="stroke:#181818;stroke-width:1;"/><polygon fill="#181818" points="351.54,1071.0994,343.4735,1065.4485,346.6327,1070.141,341.9402,1073.3002,351.54,1071.0994" style="stroke:#181818;stroke-width:1;"/></g><!--link User to UC_Schema--><g id="link_User_UC_Schema"><path d="M241.55,963.2594 C244.26,1003.4994 254.87,1065.9794 293,1102.1094 C305.46,1113.9094 315.6849,1119.8992 332.2549,1124.8892 " fill="none" id="User-to-UC_Schema" style="stroke:#181818;stroke-width:1;"/><polygon fill="#181818" points="338,1126.6194,330.5357,1120.1941,333.2124,1125.1776,328.2289,1127.8543,338,1126.6194" style="stroke:#181818;stroke-width:1;"/></g><!--link User to UC_AddSource--><g id="link_User_UC_AddSource"><path d="M244.2,963.5594 C250.06,1024.2894 264.61,1138.3594 293,1166.1094 C310.82,1183.5194 330.5605,1190.3836 354.8005,1193.2136 " fill="none" id="User-to-UC_AddSource" style="stroke:#181818;stroke-width:1;"/><polygon fill="#181818" points="360.76,1193.9094,352.2846,1188.8927,355.7937,1193.3296,351.3569,1196.8387,360.76,1193.9094" style="stroke:#181818;stroke-width:1;"/></g><!--link User to UC_ListSources--><g id="link_User_UC_ListSources"><path d="M242.58,963.1194 C246.34,1033.9794 258.25,1182.3694 293,1218.1094 C308.82,1234.3894 325.5119,1241.4713 347.7319,1245.1813 " fill="none" id="User-to-UC_ListSources" style="stroke:#181818;stroke-width:1;"/><polygon fill="#181818" points="353.65,1246.1694,345.4316,1240.7418,348.7183,1245.3459,344.1141,1248.6326,353.65,1246.1694" style="stroke:#181818;stroke-width:1;"/></g><!--link User to UC_DelSource--><g id="link_User_UC_DelSource"><path d="M249.03,886.8194 C258.31,841.9594 273.75,765.3094 285,699.1094 C287.07,686.9294 284.53,653.0994 293,644.1094 C308.49,627.6794 324.9535,620.537 347.0735,616.807 " fill="none" id="User-to-UC_DelSource" style="stroke:#181818;stroke-width:1;"/><polygon fill="#181818" points="352.99,615.8094,343.4502,613.3616,348.0596,616.6408,344.7804,621.2502,352.99,615.8094" style="stroke:#181818;stroke-width:1;"/></g><!--link User to UC_History--><g id="link_User_UC_History"><path d="M249.47,886.9394 C263.76,822.7094 291.29,699.7694 293,698.1094 C309.51,682.0594 326.7708,675.1682 349.2908,671.6782 " fill="none" id="User-to-UC_History" style="stroke:#181818;stroke-width:1;"/><polygon fill="#181818" points="355.22,670.7594,345.7136,668.1849,350.279,671.5251,346.9387,676.0905,355.22,670.7594" style="stroke:#181818;stroke-width:1;"/></g><!--link User to UC_Submit--><g id="link_User_UC_Submit"><path d="M242.05,887.0694 C245.25,848.4494 256.33,789.6994 293,756.1094 C308.7,741.7294 323.858,735.0137 344.668,730.8237 " fill="none" id="User-to-UC_Submit" style="stroke:#181818;stroke-width:1;"/><polygon fill="#181818" points="350.55,729.6394,340.9375,727.4945,345.6484,730.6263,342.5166,735.3371,350.55,729.6394" style="stroke:#181818;stroke-width:1;"/></g><!--link Validator to UC_Pending--><g id="link_Validator_UC_Pending"><path d="M180.1,437.1094 C216.8,437.1094 276.23,437.1094 330.73,437.1094 " fill="none" id="Validator-to-UC_Pending" style="stroke:#181818;stroke-width:1;"/><polygon fill="#181818" points="336.73,437.1094,327.73,433.1094,331.73,437.1094,327.73,441.1094,336.73,437.1094" style="stroke:#181818;stroke-width:1;"/></g><!--link Validator to UC_Approve--><g id="link_Validator_UC_Approve"><path d="M180.1,443.4094 C224.06,453.0894 303.3703,470.5595 361.6103,483.3795 " fill="none" id="Validator-to-UC_Approve" style="stroke:#181818;stroke-width:1;"/><polygon fill="#181818" points="367.47,484.6694,359.5403,478.8281,362.5869,483.5945,357.8205,486.6411,367.47,484.6694" style="stroke:#181818;stroke-width:1;"/></g><!--link Validator to UC_Reject--><g id="link_Validator_UC_Reject"><path d="M163.72,398.7494 C182.39,347.2794 223.38,257.7694 293,218.1094 C312.2,207.1694 329.2061,201.6027 350.6661,197.5127 " fill="none" id="Validator-to-UC_Reject" style="stroke:#181818;stroke-width:1;"/><polygon fill="#181818" points="356.56,196.3894,346.9703,194.1451,351.6484,197.3255,348.468,202.0036,356.56,196.3894" style="stroke:#181818;stroke-width:1;"/></g><!--link Validator to UC_Modify--><g id="link_Validator_UC_Modify"><path d="M174.68,398.9394 C199.2,362.2094 241.44,308.3594 293,281.1094 C309.64,272.3094 322.8923,267.4271 341.3823,262.8971 " fill="none" id="Validator-to-UC_Modify" style="stroke:#181818;stroke-width:1;"/><polygon fill="#181818" points="347.21,261.4694,337.5167,259.7259,342.3536,262.6592,339.4204,267.4961,347.21,261.4694" style="stroke:#181818;stroke-width:1;"/></g><!--link Validator to UC_Review--><g id="link_Validator_UC_Review"><path d="M180.42,415.6394 C185.27,412.0894 190.26,408.4794 195,405.1094 C202.03,400.1094 203.88,398.9894 211,394.1094 C247.41,369.1594 252.38,355.3594 293,338.1094 C313.45,329.4294 330.9313,324.5097 352.4313,320.3097 " fill="none" id="Validator-to-UC_Review" style="stroke:#181818;stroke-width:1;"/><polygon fill="#181818" points="358.32,319.1594,348.7201,316.9591,353.4128,320.118,350.2539,324.8107,358.32,319.1594" style="stroke:#181818;stroke-width:1;"/></g><!--link Validator to UC_ValHistory--><g id="link_Validator_UC_ValHistory"><path d="M180.32,425.8394 C185.18,424.1394 190.2,422.4894 195,421.1094 C244.27,406.9594 294.5756,396.1602 339.4856,387.6202 " fill="none" id="Validator-to-UC_ValHistory" style="stroke:#181818;stroke-width:1;"/><polygon fill="#181818" points="345.38,386.4994,335.7912,384.2511,340.468,387.4334,337.2857,392.1103,345.38,386.4994" style="stroke:#181818;stroke-width:1;"/></g><!--link Validator to UC_Compare--><g id="link_Validator_UC_Compare"><path d="M180.22,459.5694 C207.71,480.0094 251.09,509.5994 293,527.1094 C313.37,535.6194 330.6304,540.7192 351.9304,545.4092 " fill="none" id="Validator-to-UC_Compare" style="stroke:#181818;stroke-width:1;"/><polygon fill="#181818" points="357.79,546.6994,349.8607,540.8576,352.907,545.6242,348.1404,548.6705,357.79,546.6994" style="stroke:#181818;stroke-width:1;"/></g><!--link Auditor to UC_Audit--><g id="link_Auditor_UC_Audit"><path d="M178.06,1325.3294 C222.41,1320.6894 306.5227,1311.8848 365.6827,1305.6848 " fill="none" id="Auditor-to-UC_Audit" style="stroke:#181818;stroke-width:1;"/><polygon fill="#181818" points="371.65,1305.0594,362.2821,1302.0192,366.6772,1305.5805,363.1159,1309.9757,371.65,1305.0594" style="stroke:#181818;stroke-width:1;"/></g><!--link Auditor to UC_AuditDetail--><g id="link_Auditor_UC_AuditDetail"><path d="M178.06,1330.8894 C214.15,1334.6694 274.5526,1340.9951 329.9026,1346.7851 " fill="none" id="Auditor-to-UC_AuditDetail" style="stroke:#181818;stroke-width:1;"/><polygon fill="#181818" points="335.87,1347.4094,327.335,1342.4947,330.8971,1346.8892,326.5027,1350.4513,335.87,1347.4094" style="stroke:#181818;stroke-width:1;"/></g><!--link Auditor to UC_Integrity--><g id="link_Auditor_UC_Integrity"><path d="M178.24,1341.8394 C206.21,1355.7294 251.73,1376.9594 293,1390.1094 C316.23,1397.5094 336.4496,1402.2976 359.5096,1406.7676 " fill="none" id="Auditor-to-UC_Integrity" style="stroke:#181818;stroke-width:1;"/><polygon fill="#181818" points="365.4,1407.9094,357.3257,1402.2698,360.4914,1406.9579,355.8033,1410.1236,365.4,1407.9094" style="stroke:#181818;stroke-width:1;"/></g><!--link Auditor to UC_Compare--><g id="link_Auditor_UC_Compare"><path d="M153.09,1290.0294 C159.67,1152.6894 189.4,685.8194 293,588.1094 C307.02,574.8894 319.6819,568.4254 338.4819,563.8254 " fill="none" id="Auditor-to-UC_Compare" style="stroke:#181818;stroke-width:1;"/><polygon fill="#181818" points="344.31,562.3994,334.6172,560.653,339.4533,563.5877,336.5186,568.4238,344.31,562.3994" style="stroke:#181818;stroke-width:1;"/></g><!--link Admin to UC_Users--><g id="link_Admin_UC_Users"><path d="M90.28,1537.9094 C100.09,1533.5694 110.71,1529.5894 121,1527.1094 C203.15,1507.2894 293.4305,1492.7891 356.0605,1483.8291 " fill="none" id="Admin-to-UC_Users" style="stroke:#181818;stroke-width:1;"/><polygon fill="#181818" points="362,1482.9794,352.5242,1480.2943,357.0504,1483.6875,353.6572,1488.2136,362,1482.9794" style="stroke:#181818;stroke-width:1;"/></g><!--link Admin to UC_CreateUser--><g id="link_Admin_UC_CreateUser"><path d="M90.16,1550.5494 C95.14,1549.6094 100.17,1548.7694 105,1548.1094 C190.57,1536.4994 283.8421,1532.1399 349.6021,1530.3799 " fill="none" id="Admin-to-UC_CreateUser" style="stroke:#181818;stroke-width:1;"/><polygon fill="#181818" points="355.6,1530.2194,346.4962,1526.4616,350.6018,1530.3531,346.7102,1534.4587,355.6,1530.2194" style="stroke:#181818;stroke-width:1;"/></g><!--link Admin to UC_UpdateUser--><g id="link_Admin_UC_UpdateUser"><path d="M90.34,1562.7194 C154.31,1566.7694 272.122,1574.2207 350.872,1579.2007 " fill="none" id="Admin-to-UC_UpdateUser" style="stroke:#181818;stroke-width:1;"/><polygon fill="#181818" points="356.86,1579.5794,348.1304,1575.0193,351.87,1579.2638,347.6255,1583.0034,356.86,1579.5794" style="stroke:#181818;stroke-width:1;"/></g><!--link Admin to UC_DeleteUser--><g id="link_Admin_UC_DeleteUser"><path d="M90.34,1568.8194 C157.86,1583.0594 286.1789,1610.1123 363.6789,1626.4423 " fill="none" id="Admin-to-UC_DeleteUser" style="stroke:#181818;stroke-width:1;"/><polygon fill="#181818" points="369.55,1627.6794,361.5681,1621.9097,364.6574,1626.6485,359.9186,1629.7378,369.55,1627.6794" style="stroke:#181818;stroke-width:1;"/></g><!--link Admin to UC_GroqStatus--><g id="link_Admin_UC_GroqStatus"><path d="M90.06,1579.0894 C100.16,1583.7094 110.96,1588.6194 121,1593.1094 C197.13,1627.1494 213.61,1642.5894 293,1668.1094 C315.9,1675.4694 335.7095,1680.3178 358.5095,1684.9378 " fill="none" id="Admin-to-UC_GroqStatus" style="stroke:#181818;stroke-width:1;"/><polygon fill="#181818" points="364.39,1686.1294,356.3636,1680.4217,359.4896,1685.1364,354.7749,1688.2623,364.39,1686.1294" style="stroke:#181818;stroke-width:1;"/></g><!--link Admin to UC_RetryAgents--><g id="link_Admin_UC_RetryAgents"><path d="M87.65,1598.3994 C98.08,1607.9294 109.65,1617.7894 121,1626.1094 C192.16,1678.2194 211.11,1692.3494 293,1725.1094 C311.88,1732.6594 327.133,1737.3791 346.933,1742.2391 " fill="none" id="Admin-to-UC_RetryAgents" style="stroke:#181818;stroke-width:1;"/><polygon fill="#181818" points="352.76,1743.6694,344.973,1737.6393,347.9041,1742.4775,343.0659,1745.4087,352.76,1743.6694" style="stroke:#181818;stroke-width:1;"/></g><!--link ML to UC_ML--><g id="link_ML_UC_ML"><path d="M462.02,95.0594 C487.98,107.4694 523.44,128.8194 542,159.1094 C568.24,201.9294 538,224.6194 557,271.1094 C590.25,352.4794 657.5933,426.3408 693.0233,461.8708 " fill="none" id="ML-to-UC_ML" style="stroke:#181818;stroke-width:1;"/><polygon fill="#181818" points="697.26,466.1194,693.7374,456.922,693.7295,462.5789,688.0726,462.5709,697.26,466.1194" style="stroke:#181818;stroke-width:1;"/></g><!--link ML to UC_SHAP--><g id="link_ML_UC_SHAP"><path d="M462.3,103.8994 C484.65,119.2594 515.22,140.3494 542,159.1094 C703.49,272.2694 890.4843,406.1026 965.1643,459.6626 " fill="none" id="ML-to-UC_SHAP" style="stroke:#181818;stroke-width:1;"/><polygon fill="#181818" points="970.04,463.1594,965.0577,454.6637,965.9769,460.2454,960.3953,461.1646,970.04,463.1594" style="stroke:#181818;stroke-width:1;"/></g><!--link Groq to UC_Agents--><g id="link_Groq_UC_Agents"><path d="M474.09,1837.2694 C496.88,1828.1294 523.75,1814.0994 542,1794.1094 C661.84,1662.7994 703.9208,1445.5354 714.3408,1379.7854 " fill="none" id="Groq-to-UC_Agents" style="stroke:#181818;stroke-width:1;"/><polygon fill="#181818" points="715.28,1373.8594,709.9206,1382.1223,714.4974,1378.7977,717.822,1383.3745,715.28,1373.8594" style="stroke:#181818;stroke-width:1;"/></g><!--link UC_Create to UC_ML--><g id="link_UC_Create_UC_ML"><path d="M499.56,882.0894 C514.77,877.7494 529.92,871.1394 542,861.1094 C549.58,854.8094 670.7808,589.6987 706.1408,512.1487 " fill="none" id="UC_Create-to-UC_ML" style="stroke:#181818;stroke-width:1;stroke-dasharray:7.0,7.0;"/><polygon fill="#181818" points="708.63,506.6894,701.2566,513.2188,706.5556,511.2388,708.5357,516.5378,708.63,506.6894" style="stroke:#181818;stroke-width:1;"/><text fill="#000000" font-family="sans-serif" font-size="13" lengthAdjust="spacing" textLength="55.6563" x="558" y="711.6045">&#171;include&#187;</text></g><!--link UC_Create to UC_SHAP--><g id="link_UC_Create_UC_SHAP"><path d="M502.41,896.6094 C597.86,903.7994 760.07,910.5894 809,879.1094 C943.88,792.3294 986.6017,587.5471 997.7817,516.1571 " fill="none" id="UC_Create-to-UC_SHAP" style="stroke:#181818;stroke-width:1;stroke-dasharray:7.0,7.0;"/><polygon fill="#181818" points="998.71,510.2294,993.3657,518.5021,997.9364,515.1692,1001.2694,519.7399,998.71,510.2294" style="stroke:#181818;stroke-width:1;"/><text fill="#000000" font-family="sans-serif" font-size="13" lengthAdjust="spacing" textLength="55.6563" x="691.5" y="875.6045">&#171;include&#187;</text></g><!--link UC_Create to UC_Agents--><g id="link_UC_Create_UC_Agents"><path d="M501.11,897.3094 C515.9,901.5394 530.49,908.0794 542,918.1094 C676.09,1035.0094 708.7651,1262.741 715.7351,1330.391 " fill="none" id="UC_Create-to-UC_Agents" style="stroke:#181818;stroke-width:1;stroke-dasharray:7.0,7.0;"/><polygon fill="#181818" points="716.35,1336.3594,719.4065,1326.9968,715.8376,1331.3857,711.4487,1327.8167,716.35,1336.3594" style="stroke:#181818;stroke-width:1;"/><text fill="#000000" font-family="sans-serif" font-size="13" lengthAdjust="spacing" textLength="55.6563" x="558" y="932.6045">&#171;include&#187;</text></g><!--link UC_Create to UC_Consensus--><g id="link_UC_Create_UC_Consensus"><path d="M489.72,878.5694 C539.69,868.8394 604.9107,856.1368 654.4407,846.4868 " fill="none" id="UC_Create-to-UC_Consensus" style="stroke:#181818;stroke-width:1;stroke-dasharray:7.0,7.0;"/><polygon fill="#181818" points="660.33,845.3394,650.7312,843.1343,655.4223,846.2956,652.261,850.9867,660.33,845.3394" style="stroke:#181818;stroke-width:1;"/><text fill="#000000" font-family="sans-serif" font-size="13" lengthAdjust="spacing" textLength="55.6563" x="558" y="852.6045">&#171;include&#187;</text></g><!--link UC_ML to UC_SHAP--><g id="link_UC_ML_UC_SHAP"><path d="M809.23,486.1094 C836.74,486.1094 861.3,486.1094 889.84,486.1094 " fill="none" id="UC_ML-to-UC_SHAP" style="stroke:#181818;stroke-width:1;stroke-dasharray:7.0,7.0;"/><polygon fill="#181818" points="895.84,486.1094,886.84,482.1094,890.84,486.1094,886.84,490.1094,895.84,486.1094" style="stroke:#181818;stroke-width:1;"/><text fill="#000000" font-family="sans-serif" font-size="13" lengthAdjust="spacing" textLength="55.6563" x="825" y="482.6045">&#171;include&#187;</text></g><!--SRC=[bLVBRjms5DthAuZ9mkd2gHzveGW668-HnC2u3Qewsu8ZSMOOIwJ2nxZJDa3GVaU189icGB-Y-PDyIIzV4ZcIRDGBcpht7jxB-o9TaPL2YYD1rnk5IYf8eIXdcRochC42rqXkSCblA5kZ5QuaYIGDBgxnckHgLn5aY9YjgrW15ueB9yOtHF8w5Z9U4aaQT78KWGApQmEU7cKHgYKfi2JejmoXCp2w5bopSiuhBj2zv_R7IBWeYV3emxD7ZnwV0lgSC_KzhWcQ2Oeh3-JqLuAEJx9t-yuw4_56nyV7Jq-UtBxHQR9H6ud_u-_ZioSdJu_2hZPaIrwLYPc7O2PJL85iZYKg3xIY5PNO90nz-VZrZt- -llyB_IJmbp___HilGQPWzHbTpBBCdMvovHb4Ymc2FQua4K7s6bUqx4J-axVocIvfAxKVaQoiAQDIYOvleI3FYTZIWg3BXPLTBbhYcZ0bmKNqGl2tLcWMMTQQHuU7lq-TezveZ1WZxhlpDmA3crcNbCciQIfQkAWD1MjYynPgRhBWQzZjMmH_kLOkQlEVBHghpJcJkb948B1HOhbPSYpAe7uUW8GYZ4LWQ0OKiowe1Ay2QIu8X7FCY8mfilKBaZ3kbY4eJ2jJEyCspucHnpjSyfAkwBYNLqrvYvT85Xl3gJ4gx74X7u6P5njIuvWvUmCXzgOarw8WGNTMbha5niFX24aa74N6d5mtZQ3re95pKjrgv603Ut91t-gMyj8YkyG2rpLHIX04v_s0jgukeuZbUbdJ94i_B1LXrBdK-33PEHmQ1bZGCn7ZXL5YvfVmHo6_T6MTlvozQgt1EcPUC3YBu6iVDHmQi8sq1P88uAhGbKjd0T4W490spFC0ZCGCenKrfKS60l6Ai18kbgG283jSRyVBpIfiampzIDuGDSumua8DbZHu5n7GHjUOiZQtLcsNMjfISZFUFKv-T_KCXmCcs40vpNaDzuhFLisDrKzcsMNCQuoPnJhgEJiGRzKSFvtbzWV4Qrk5Fg07bDavkXPkdWQkgJg3xNf578wckwkfBIupu-N8o8m9wSIqDyFm11iYkG6sJuhdn10BPWNfizBHfx3IghlOW6NMkO5bMbOLPaNQa8GXcu4DARhgKcBdsnDU0WTmnHsYw4P7zub26vSD1UULtnYDpFW8YsbtRSL8TpF5gBzw4ggvMHAcguGOydT13FaX7qFTBD_VFyphr4mre1qQ9J7bvgeFJFUSiL68tnFJUFZq1672z0H-aFHmFoS6zEqqwE5Hd_TaePVz8SARonwXU_vCkrOU0drczaHT2-u9zcqcRpbqNpPk5ApCv78b5LvOqwv94oZgmrIrQxK4ZvefmQDsIV2u4uBNXPqSIEwa6JoVuA5kFBrSj5bQH1_sKZIxjt5BDhjWHQNXtnF_Pd6NgksbS3Rqu87V5Ns7dZsZZZ2TzZMCgRjq_2lu3gtsgkqhWXlZvlu3]--></g></svg>