<?xml version="1.0" encoding="UTF-8"?>
<svg xmlns="http://www.w3.org/2000/svg" width="1440" height="920" viewBox="0 0 1440 920">
  <defs>
    <style>
      @import url('https://fonts.googleapis.com/css2?family=DM+Sans:wght@400;500;600;700;800&amp;family=JetBrains+Mono:wght@500;700&amp;display=swap');
      .t { font-family: 'DM Sans', 'Segoe UI', sans-serif; }
      .m { font-family: 'JetBrains Mono', Consolas, monospace; }
      .title { fill: #0f172a; font-size: 26px; font-weight: 800; }
      .subtitle { fill: #64748b; font-size: 13px; font-weight: 500; }
      .zoneH { fill: #ffffff; font-size: 12px; font-weight: 700; letter-spacing: 0.4px; }
      .cardH { fill: #0f172a; font-size: 12.5px; font-weight: 700; }
      .cardS { fill: #64748b; font-size: 10.5px; font-weight: 500; }
      .chip { fill: #ffffff; font-size: 10px; font-weight: 700; }
      .flowLbl { fill: #475569; font-size: 10px; font-weight: 600; }
      .stepN { fill: #ffffff; font-size: 11px; font-weight: 800; text-anchor: middle; }
      .platH { fill: #0f172a; font-size: 12px; font-weight: 700; }
      .platS { fill: #64748b; font-size: 10px; font-weight: 500; }
      .legH { fill: #0f172a; font-size: 13px; font-weight: 700; }
      .legT { fill: #475569; font-size: 11px; font-weight: 500; }
      .mono { fill: #334155; font-size: 10px; font-weight: 500; }
      .flow { fill: none; stroke: #64748b; stroke-width: 2; marker-end: url(#arrow); }
      .flowDash { fill: none; stroke: #94a3b8; stroke-width: 1.8; stroke-dasharray: 6 4; marker-end: url(#arrowMuted); }
      .flowAudit { fill: none; stroke: #d97706; stroke-width: 2.2; marker-end: url(#arrowAudit); }
    </style>

    <marker id="arrow" viewBox="0 0 10 10" refX="9" refY="5" markerWidth="7" markerHeight="7" orient="auto">
      <path d="M0,0 L10,5 L0,10 z" fill="#64748b"/>
    </marker>
    <marker id="arrowMuted" viewBox="0 0 10 10" refX="9" refY="5" markerWidth="7" markerHeight="7" orient="auto">
      <path d="M0,0 L10,5 L0,10 z" fill="#94a3b8"/>
    </marker>
    <marker id="arrowAudit" viewBox="0 0 10 10" refX="9" refY="5" markerWidth="7" markerHeight="7" orient="auto">
      <path d="M0,0 L10,5 L0,10 z" fill="#d97706"/>
    </marker>

    <filter id="shadow" x="-20%" y="-20%" width="140%" height="140%">
      <feDropShadow dx="0" dy="2" stdDeviation="3" flood-color="#0f172a" flood-opacity="0.12"/>
    </filter>
    <filter id="glow" x="-40%" y="-40%" width="180%" height="180%">
      <feDropShadow dx="0" dy="1" stdDeviation="2" flood-color="#d97706" flood-opacity="0.35"/>
    </filter>

    <linearGradient id="gBar" x1="0" y1="0" x2="1" y2="0">
      <stop offset="0" stop-color="#0f766e"/><stop offset="1" stop-color="#1d4ed8"/>
    </linearGradient>
    <linearGradient id="gUsers" x1="0" y1="0" x2="0" y2="1">
      <stop offset="0" stop-color="#6366f1"/><stop offset="1" stop-color="#4338ca"/>
    </linearGradient>
    <linearGradient id="gFront" x1="0" y1="0" x2="0" y2="1">
      <stop offset="0" stop-color="#e11d48"/><stop offset="1" stop-color="#9f1239"/>
    </linearGradient>
    <linearGradient id="gBack" x1="0" y1="0" x2="0" y2="1">
      <stop offset="0" stop-color="#2563eb"/><stop offset="1" stop-color="#1e40af"/>
    </linearGradient>
    <linearGradient id="gIA" x1="0" y1="0" x2="0" y2="1">
      <stop offset="0" stop-color="#f59e0b"/><stop offset="1" stop-color="#b45309"/>
    </linearGradient>
    <linearGradient id="gData" x1="0" y1="0" x2="0" y2="1">
      <stop offset="0" stop-color="#0891b2"/><stop offset="1" stop-color="#0e7490"/>
    </linearGradient>
    <linearGradient id="gCons" x1="0" y1="0" x2="0" y2="1">
      <stop offset="0" stop-color="#059669"/><stop offset="1" stop-color="#047857"/>
    </linearGradient>
    <linearGradient id="gAudit" x1="0" y1="0" x2="1" y2="0">
      <stop offset="0" stop-color="#f59e0b"/><stop offset="1" stop-color="#ea580c"/>
    </linearGradient>
    <linearGradient id="gStep" x1="0" y1="0" x2="0" y2="1">
      <stop offset="0" stop-color="#14b8a6"/><stop offset="1" stop-color="#0f766e"/>
    </linearGradient>
  </defs>

  <!-- Background -->
  <rect width="1440" height="920" fill="#f1f5f9"/>
  <rect x="0" y="0" width="1440" height="6" fill="url(#gBar)"/>

  <!-- Title -->
  <text class="t title" x="40" y="48">Architecture — Traçabilité des Décisions IA</text>
  <text class="t subtitle" x="40" y="70">Angular 21 · Spring Boot 3 · Flask / scikit-learn · PostgreSQL 16 · Docker Compose</text>
  <rect x="1120" y="36" width="280" height="36" rx="8" fill="#ecfdf5" stroke="#a7f3d0"/>
  <text class="t" x="1260" y="58" text-anchor="middle" font-size="12" font-weight="700" fill="#047857">Focus : intégrité · audit · confiance</text>

  <!-- ========== ZONES ========== -->
  <!-- Users -->
  <rect x="28" y="96" width="168" height="448" rx="14" fill="#eef2ff" stroke="#c7d2fe"/>
  <path d="M42 96 H182 A14 14 0 0 1 196 110 V132 H28 V110 A14 14 0 0 1 42 96 Z" fill="url(#gUsers)"/>
  <text class="t zoneH" x="112" y="120" text-anchor="middle">Utilisateurs</text>

  <!-- Frontend -->
  <rect x="212" y="96" width="200" height="448" rx="14" fill="#fff1f2" stroke="#fecdd3"/>
  <path d="M226 96 H396 A14 14 0 0 1 412 110 V132 H212 V110 A14 14 0 0 1 226 96 Z" fill="url(#gFront)"/>
  <text class="t zoneH" x="312" y="120" text-anchor="middle">Présentation</text>

  <!-- Backend -->
  <rect x="428" y="96" width="268" height="448" rx="14" fill="#eff6ff" stroke="#bfdbfe"/>
  <path d="M442 96 H680 A14 14 0 0 1 696 110 V132 H428 V110 A14 14 0 0 1 442 96 Z" fill="url(#gBack)"/>
  <text class="t zoneH" x="562" y="120" text-anchor="middle">API Métier · Spring Boot</text>

  <!-- ML -->
  <rect x="712" y="96" width="220" height="448" rx="14" fill="#fffbeb" stroke="#fde68a"/>
  <path d="M726 96 H916 A14 14 0 0 1 932 110 V132 H712 V110 A14 14 0 0 1 726 96 Z" fill="url(#gIA)"/>
  <text class="t zoneH" x="822" y="120" text-anchor="middle">Service IA</text>

  <!-- Data -->
  <rect x="948" y="96" width="200" height="448" rx="14" fill="#ecfeff" stroke="#a5f3fc"/>
  <path d="M962 96 H1132 A14 14 0 0 1 1148 110 V132 H948 V110 A14 14 0 0 1 962 96 Z" fill="url(#gData)"/>
  <text class="t zoneH" x="1048" y="120" text-anchor="middle">Persistance</text>

  <!-- Consultation -->
  <rect x="1164" y="96" width="248" height="448" rx="14" fill="#ecfdf5" stroke="#a7f3d0"/>
  <path d="M1178 96 H1396 A14 14 0 0 1 1412 110 V132 H1164 V110 A14 14 0 0 1 1178 96 Z" fill="url(#gCons)"/>
  <text class="t zoneH" x="1288" y="120" text-anchor="middle">Consultation</text>

  <!-- ========== USERS ========== -->
  <g filter="url(#shadow)">
    <rect x="44" y="152" width="136" height="72" rx="10" fill="#ffffff" stroke="#e2e8f0"/>
    <circle cx="68" cy="176" r="12" fill="#6366f1"/>
    <text class="t cardH" x="88" y="172">Administrateur</text>
    <text class="t cardS" x="88" y="188">Supervision</text>
    <text class="t cardS" x="88" y="204">accès complet</text>

    <rect x="44" y="240" width="136" height="72" rx="10" fill="#ffffff" stroke="#e2e8f0"/>
    <circle cx="68" cy="264" r="12" fill="#059669"/>
    <text class="t cardH" x="88" y="260">Validateur</text>
    <text class="t cardS" x="88" y="276">Approuve / rejette</text>
    <text class="t cardS" x="88" y="292">décisions IA</text>

    <rect x="44" y="328" width="136" height="72" rx="10" fill="#ffffff" stroke="#e2e8f0"/>
    <circle cx="68" cy="352" r="12" fill="#0ea5e9"/>
    <text class="t cardH" x="88" y="348">Utilisateur</text>
    <text class="t cardS" x="88" y="364">Soumet dossiers</text>
    <text class="t cardS" x="88" y="380">&amp; demandes</text>
  </g>
  <rect x="44" y="420" width="136" height="96" rx="10" fill="#e0e7ff" stroke="#a5b4fc"/>
  <text class="t cardH" x="112" y="444" text-anchor="middle">Rôles JWT</text>
  <text class="m mono" x="112" y="466" text-anchor="middle">ADMINISTRATEUR</text>
  <text class="m mono" x="112" y="484" text-anchor="middle">VALIDATEUR</text>
  <text class="m mono" x="112" y="502" text-anchor="middle">UTILISATEUR</text>

  <!-- ========== FRONTEND ========== -->
  <g filter="url(#shadow)">
    <rect x="228" y="152" width="168" height="100" rx="10" fill="#ffffff" stroke="#e2e8f0"/>
    <rect x="240" y="164" width="28" height="28" rx="6" fill="#dd0031"/>
    <text class="t" x="254" y="183" text-anchor="middle" fill="#fff" font-size="11" font-weight="800">A</text>
    <text class="t cardH" x="278" y="176">Angular 21 SSR</text>
    <text class="t cardS" x="240" y="206">Landing · Auth · Dashboard</text>
    <text class="t cardS" x="240" y="224">Guards · Interceptors</text>
    <text class="m mono" x="240" y="242" fill="#be123c">/ · /auth/login · /dashboard</text>

    <rect x="228" y="268" width="168" height="72" rx="10" fill="#ffffff" stroke="#e2e8f0"/>
    <rect x="240" y="284" width="28" height="28" rx="6" fill="#009639"/>
    <text class="t cardH" x="278" y="296">Nginx :80</text>
    <text class="t cardS" x="240" y="318">Reverse proxy /api →</text>
    <text class="m mono" x="240" y="332" fill="#047857">backend:8080</text>

    <rect x="228" y="356" width="168" height="160" rx="10" fill="#ffffff" stroke="#e2e8f0"/>
    <text class="t cardH" x="244" y="380">UI métier (composants)</text>
    <text class="t cardS" x="244" y="404">• DecisionForm / List</text>
    <text class="t cardS" x="244" y="424">• ValidationForm</text>
    <text class="t cardS" x="244" y="444">• AuditTrail / AuditLog</text>
    <text class="t cardS" x="244" y="464">• Stats · Charts</text>
    <text class="t cardS" x="244" y="490" fill="#e11d48">AuthService + JWT storage</text>
  </g>

  <!-- ========== BACKEND ========== -->
  <g filter="url(#shadow)">
    <rect x="444" y="152" width="236" height="56" rx="10" fill="#ffffff" stroke="#e2e8f0"/>
    <text class="t cardH" x="460" y="174">AuthController</text>
    <text class="m mono" x="460" y="194" fill="#2563eb">POST /api/auth/login · refresh</text>

    <rect x="444" y="220" width="236" height="56" rx="10" fill="#ffffff" stroke="#e2e8f0"/>
    <text class="t cardH" x="460" y="242">DecisionController</text>
    <text class="t cardS" x="460" y="260">Création · suivi · score confiance</text>

    <rect x="444" y="288" width="236" height="56" rx="10" fill="#ffffff" stroke="#e2e8f0"/>
    <text class="t cardH" x="460" y="310">ValidationController</text>
    <text class="t cardS" x="460" y="328">Approuver / rejeter + historique</text>

    <rect x="444" y="356" width="112" height="56" rx="10" fill="#ffffff" stroke="#e2e8f0"/>
    <text class="t cardH" x="500" y="380" text-anchor="middle">Dashboard</text>
    <text class="t cardS" x="500" y="396" text-anchor="middle">KPIs</text>

    <rect x="568" y="356" width="112" height="56" rx="10" fill="#ffffff" stroke="#e2e8f0"/>
    <text class="t cardH" x="624" y="380" text-anchor="middle">Audit API</text>
    <text class="t cardS" x="624" y="396" text-anchor="middle">piste vérifiable</text>
  </g>

  <!-- Integrity highlight box -->
  <g filter="url(#glow)">
    <rect x="444" y="428" width="236" height="92" rx="12" fill="#fffbeb" stroke="#f59e0b" stroke-width="2"/>
  </g>
  <rect x="444" y="428" width="236" height="8" rx="4" fill="url(#gAudit)"/>
  <text class="t cardH" x="562" y="458" text-anchor="middle">Cœur traçabilité</text>
  <text class="t cardS" x="562" y="478" text-anchor="middle">HashChainService · AuditAspect</text>
  <text class="m mono" x="562" y="498" text-anchor="middle" fill="#b45309">hashPrecedent → hashCourant</text>

  <!-- ========== ML ========== -->
  <g filter="url(#shadow)">
    <rect x="728" y="152" width="188" height="88" rx="10" fill="#ffffff" stroke="#e2e8f0"/>
    <text class="t cardH" x="744" y="176">Flask API :5000</text>
    <text class="m mono" x="744" y="198" fill="#b45309">POST /predict</text>
    <text class="m mono" x="744" y="214" fill="#b45309">POST /train · GET /domains</text>
    <text class="m mono" x="744" y="230" fill="#94a3b8">GET /health</text>

    <rect x="728" y="256" width="188" height="88" rx="10" fill="#ffffff" stroke="#e2e8f0"/>
    <text class="t cardH" x="744" y="280">scikit-learn</text>
    <text class="t cardS" x="744" y="300">RandomForest + Scaler</text>
    <text class="t cardS" x="744" y="318">Score · probabilités</text>
    <text class="t cardS" x="744" y="334">+ facteurs explicatifs</text>

    <rect x="728" y="360" width="188" height="156" rx="10" fill="#ffffff" stroke="#e2e8f0"/>
    <text class="t cardH" x="744" y="384">7 domaines métier</text>
    <text class="t cardS" x="744" y="408">credit · medical · insurance</text>
    <text class="t cardS" x="744" y="428">hr · legal · education</text>
    <text class="t cardS" x="744" y="448">general</text>
    <rect x="744" y="464" width="156" height="32" rx="6" fill="#fef3c7"/>
    <text class="t" x="822" y="484" text-anchor="middle" font-size="10.5" font-weight="700" fill="#92400e">APPROUVER / REJETER</text>
  </g>

  <!-- ========== DATA ========== -->
  <g filter="url(#shadow)">
    <rect x="964" y="152" width="168" height="80" rx="10" fill="#ffffff" stroke="#e2e8f0"/>
    <text class="t cardH" x="1048" y="180" text-anchor="middle">PostgreSQL 16</text>
    <text class="t cardS" x="1048" y="200" text-anchor="middle">DB tracabilite_ia</text>
    <text class="m mono" x="1048" y="218" text-anchor="middle" fill="#0e7490">:5432</text>

    <rect x="964" y="248" width="168" height="200" rx="10" fill="#ffffff" stroke="#e2e8f0"/>
    <text class="t cardH" x="980" y="272">Entités JPA</text>
    <text class="t cardS" x="980" y="298">• Utilisateur (+ rôles)</text>
    <text class="t cardS" x="980" y="318">• SystemeIA</text>
    <text class="t cardS" x="980" y="338">• Decision</text>
    <text class="t cardS" x="980" y="358">• ValidationAction</text>
    <text class="t cardS" x="980" y="378">• Journal d'audit</text>
    <rect x="980" y="396" width="136" height="36" rx="6" fill="#cffafe"/>
    <text class="t" x="1048" y="418" text-anchor="middle" font-size="10" font-weight="700" fill="#0e7490">chaîne de hash</text>
  </g>
  <rect x="964" y="464" width="168" height="52" rx="10" fill="#ecfeff" stroke="#67e8f9"/>
  <text class="t cardS" x="1048" y="486" text-anchor="middle">JPA / Hibernate</text>
  <text class="t cardS" x="1048" y="502" text-anchor="middle">ddl-auto: update</text>

  <!-- ========== CONSULTATION ========== -->
  <g filter="url(#shadow)">
    <rect x="1180" y="152" width="216" height="100" rx="10" fill="#ffffff" stroke="#e2e8f0"/>
    <text class="t cardH" x="1288" y="184" text-anchor="middle">Dashboard</text>
    <text class="t cardS" x="1288" y="206" text-anchor="middle">KPIs · volumes · scores</text>
    <text class="t cardS" x="1288" y="226" text-anchor="middle">taux validation / rejet</text>

    <rect x="1180" y="268" width="216" height="120" rx="10" fill="#ffffff" stroke="#e2e8f0"/>
    <text class="t cardH" x="1288" y="300" text-anchor="middle">Piste d'audit</text>
    <text class="t cardS" x="1288" y="324" text-anchor="middle">historique chronologique</text>
    <text class="t cardS" x="1288" y="344" text-anchor="middle">vérification d'intégrité</text>
    <text class="m mono" x="1288" y="368" text-anchor="middle" fill="#047857">hashCourant intact ?</text>

    <rect x="1180" y="404" width="216" height="112" rx="10" fill="#ecfdf5" stroke="#6ee7b7"/>
    <text class="t cardH" x="1288" y="436" text-anchor="middle">Valeur métier</text>
    <text class="t cardS" x="1288" y="460" text-anchor="middle">Décision IA explicable</text>
    <text class="t cardS" x="1288" y="480" text-anchor="middle">Validation humaine</text>
    <text class="t cardS" x="1288" y="500" text-anchor="middle">Preuve anti-altération</text>
  </g>

  <!-- ========== FLOWS ========== -->
  <!-- 1 users -> frontend -->
  <path class="flow" d="M180 276 C196 276, 196 200, 228 200"/>
  <circle cx="204" cy="168" r="12" fill="url(#gStep)" filter="url(#shadow)"/>
  <text class="t stepN" x="204" y="172">1</text>
  <text class="t flowLbl" x="188" y="248">Login</text>

  <!-- 2 frontend -> backend -->
  <path class="flow" d="M396 188 C412 188, 412 180, 444 180"/>
  <circle cx="420" cy="148" r="12" fill="url(#gStep)" filter="url(#shadow)"/>
  <text class="t stepN" x="420" y="152">2</text>
  <text class="t flowLbl" x="400" y="140">REST /api</text>
  <text class="t flowLbl" x="398" y="214">Bearer JWT</text>

  <!-- 3 backend -> ML -->
  <path class="flow" d="M680 180 C696 180, 696 196, 728 196"/>
  <circle cx="704" cy="156" r="12" fill="url(#gStep)" filter="url(#shadow)"/>
  <text class="t stepN" x="704" y="160">3</text>
  <text class="t flowLbl" x="688" y="148">/predict</text>

  <!-- 4 ML -> backend -->
  <path class="flowDash" d="M728 236 C696 236, 696 248, 680 248"/>
  <circle cx="704" cy="268" r="12" fill="url(#gStep)" filter="url(#shadow)"/>
  <text class="t stepN" x="704" y="272">4</text>
  <text class="t flowLbl" x="638" y="280">décision + score</text>

  <!-- 5 backend -> data (audit path) -->
  <path class="flowAudit" d="M680 474 C820 474, 860 280, 964 280"/>
  <circle cx="820" cy="360" r="12" fill="#f59e0b" filter="url(#shadow)"/>
  <text class="t stepN" x="820" y="364">5</text>
  <text class="t flowLbl" x="760" y="390" fill="#b45309">persist + hash chain</text>

  <!-- 6 validation loop -->
  <path class="flowDash" d="M444 316 C300 360, 260 276, 180 276"/>
  <circle cx="300" cy="330" r="12" fill="url(#gStep)" filter="url(#shadow)"/>
  <text class="t stepN" x="300" y="334">6</text>
  <text class="t flowLbl" x="240" y="360">valider / rejeter</text>

  <!-- 7 data -> consultation -->
  <path class="flow" d="M1132 192 C1148 192, 1148 200, 1180 200"/>
  <path class="flow" d="M1132 328 C1148 328, 1148 328, 1180 328"/>
  <circle cx="1156" cy="256" r="12" fill="url(#gStep)" filter="url(#shadow)"/>
  <text class="t stepN" x="1156" y="260">7</text>
  <text class="t flowLbl" x="1140" y="290">restitution</text>

  <!-- ========== PLATFORM BAR ========== -->
  <rect x="28" y="564" width="1384" height="148" rx="14" fill="#ffffff" stroke="#e2e8f0"/>
  <text class="t platH" x="48" y="592" font-size="14">Plateforme &amp; transversal</text>

  <g>
    <rect x="48" y="608" width="180" height="80" rx="10" fill="#f8fafc" stroke="#e2e8f0"/>
    <text class="t platH" x="138" y="640" text-anchor="middle">Spring Security</text>
    <text class="t platS" x="138" y="660" text-anchor="middle">JWT · rôles · filtre</text>

    <rect x="244" y="608" width="180" height="80" rx="10" fill="#f8fafc" stroke="#e2e8f0"/>
    <text class="t platH" x="334" y="640" text-anchor="middle">Docker Compose</text>
    <text class="t platS" x="334" y="660" text-anchor="middle">4 conteneurs + network</text>

    <rect x="440" y="608" width="180" height="80" rx="10" fill="#f8fafc" stroke="#e2e8f0"/>
    <text class="t platH" x="530" y="640" text-anchor="middle">OpenAPI / Swagger</text>
    <text class="t platS" x="530" y="660" text-anchor="middle">contrat API REST</text>

    <rect x="636" y="608" width="180" height="80" rx="10" fill="#f8fafc" stroke="#e2e8f0"/>
    <text class="t platH" x="726" y="640" text-anchor="middle">Actuator</text>
    <text class="t platS" x="726" y="660" text-anchor="middle">/health · metrics</text>

    <rect x="832" y="608" width="180" height="80" rx="10" fill="#fffbeb" stroke="#fcd34d"/>
    <text class="t platH" x="922" y="640" text-anchor="middle">MLDecisionService</text>
    <text class="t platS" x="922" y="660" text-anchor="middle">client HTTP → Flask</text>

    <rect x="1028" y="608" width="180" height="80" rx="10" fill="#f8fafc" stroke="#e2e8f0"/>
    <text class="t platH" x="1118" y="640" text-anchor="middle">Java 21 · Maven</text>
    <text class="t platS" x="1118" y="660" text-anchor="middle">Lombok · JJWT</text>

    <rect x="1224" y="608" width="164" height="80" rx="10" fill="#f8fafc" stroke="#e2e8f0"/>
    <text class="t platH" x="1306" y="640" text-anchor="middle">Git / GitHub</text>
    <text class="t platS" x="1306" y="660" text-anchor="middle">versioning</text>
  </g>

  <!-- ========== LEGEND ========== -->
  <rect x="28" y="732" width="1384" height="160" rx="14" fill="#ffffff" stroke="#e2e8f0"/>
  <text class="t legH" x="48" y="760">Légende du parcours décisionnel</text>

  <g>
    <circle cx="56" cy="788" r="10" fill="url(#gStep)"/><text class="t stepN" x="56" y="792">1</text>
    <text class="t legT" x="74" y="792">Connexion (rôles JWT)</text>

    <circle cx="280" cy="788" r="10" fill="url(#gStep)"/><text class="t stepN" x="280" y="792">2</text>
    <text class="t legT" x="298" y="792">REST /api + Bearer</text>

    <circle cx="500" cy="788" r="10" fill="url(#gStep)"/><text class="t stepN" x="500" y="792">3</text>
    <text class="t legT" x="518" y="792">Appel IA /predict</text>

    <circle cx="700" cy="788" r="10" fill="url(#gStep)"/><text class="t stepN" x="700" y="792">4</text>
    <text class="t legT" x="718" y="792">Retour décision + score</text>

    <circle cx="960" cy="788" r="10" fill="#f59e0b"/><text class="t stepN" x="960" y="792">5</text>
    <text class="t legT" x="978" y="792">Persistance + chaîne de hash</text>

    <circle cx="56" cy="824" r="10" fill="url(#gStep)"/><text class="t stepN" x="56" y="828">6</text>
    <text class="t legT" x="74" y="828">Validation humaine (boucle)</text>

    <circle cx="320" cy="824" r="10" fill="url(#gStep)"/><text class="t stepN" x="320" y="828">7</text>
    <text class="t legT" x="338" y="828">Dashboard &amp; piste d'audit vérifiable</text>

    <!-- line styles -->
    <line x1="700" y1="824" x2="740" y2="824" stroke="#64748b" stroke-width="2"/>
    <text class="t legT" x="752" y="828">flux synchrone</text>
    <line x1="900" y1="824" x2="940" y2="824" stroke="#94a3b8" stroke-width="1.8" stroke-dasharray="5 4"/>
    <text class="t legT" x="952" y="828">retour / boucle</text>
    <line x1="1100" y1="824" x2="1140" y2="824" stroke="#d97706" stroke-width="2.2"/>
    <text class="t legT" x="1152" y="828">écriture auditée</text>
  </g>

  <text class="t" x="720" y="892" text-anchor="middle" font-size="11" fill="#94a3b8" font-weight="500">
    PFA 2025/2026 — Système de Traçabilité des Décisions Assistées par IA
  </text>
</svg>
